G04 Layer: TopSilkLayer*
G04 EasyEDA v6.4.7, 2020-10-11T20:05:18--4:00*
G04 e6b0d2e49f2c434995fed72e9f85cac0,1eb4b4baf0c945e885b29d49d8d6ac6e,10*
G04 Gerber Generator version 0.2*
G04 Scale: 100 percent, Rotated: No, Reflected: No *
G04 Dimensions in millimeters *
G04 leading zeros omitted , absolute positions ,3 integer and 3 decimal *
%FSLAX33Y33*%
%MOMM*%
G90*
D02*

%ADD10C,0.254000*%
%ADD12C,0.200000*%
%ADD46C,0.100000*%
%ADD47C,0.101600*%
%ADD48C,0.127000*%
%ADD49C,0.200660*%
%ADD50C,0.150114*%
%ADD51C,0.203200*%
%ADD52C,0.399999*%
%ADD53C,0.299999*%
%ADD54C,0.152400*%

%LPD*%
G54D12*
G01X13826Y18251D02*
G01X12726Y18251D01*
G01X12726Y19852D01*
G01X13826Y19852D01*
G01X14626Y18251D02*
G01X15726Y18251D01*
G01X15726Y19251D01*
G01X15726Y19852D01*
G01X14626Y19852D01*
G01X14626Y21814D02*
G01X15726Y21814D01*
G01X15726Y20214D01*
G01X14626Y20214D01*
G01X13826Y21814D02*
G01X12726Y21814D01*
G01X12726Y20814D01*
G01X12726Y20214D01*
G01X13826Y20214D01*
G01X14626Y23777D02*
G01X15726Y23777D01*
G01X15726Y22177D01*
G01X14626Y22177D01*
G01X13826Y23777D02*
G01X12726Y23777D01*
G01X12726Y22777D01*
G01X12726Y22177D01*
G01X13826Y22177D01*
G01X15895Y40426D02*
G01X16995Y40426D01*
G01X16995Y38825D01*
G01X15895Y38825D01*
G01X15095Y40426D02*
G01X13995Y40426D01*
G01X13995Y39426D01*
G01X13995Y38825D01*
G01X15095Y38825D01*
G01X12593Y35600D02*
G01X13693Y35600D01*
G01X13693Y33999D01*
G01X12593Y33999D01*
G01X11793Y35600D02*
G01X10693Y35600D01*
G01X10693Y34600D01*
G01X10693Y33999D01*
G01X11793Y33999D01*
G01X12593Y33314D02*
G01X13693Y33314D01*
G01X13693Y31713D01*
G01X12593Y31713D01*
G01X11793Y33314D02*
G01X10693Y33314D01*
G01X10693Y32314D01*
G01X10693Y31713D01*
G01X11793Y31713D01*
G54D46*
G01X16748Y33841D02*
G01X16748Y33441D01*
G01X17748Y33341D02*
G01X15648Y33341D01*
G01X17648Y33041D02*
G01X15748Y33041D01*
G01X15748Y32641D01*
G01X17648Y32641D01*
G01X17648Y33041D01*
G01X17748Y32341D02*
G01X15648Y32341D01*
G01X16748Y32241D02*
G01X16748Y31941D01*
G54D47*
G01X15497Y35407D02*
G01X15497Y30409D01*
G01X17799Y30408D02*
G01X17799Y35409D01*
G01X17795Y30409D02*
G01X15497Y30409D01*
G01X17795Y35407D02*
G01X15497Y35407D01*
G54D12*
G01X21573Y42381D02*
G01X20473Y42381D01*
G01X20473Y43982D01*
G01X21573Y43982D01*
G01X22373Y42381D02*
G01X23473Y42381D01*
G01X23473Y43381D01*
G01X23473Y43982D01*
G01X22373Y43982D01*
G01X26182Y43982D02*
G01X27282Y43982D01*
G01X27282Y42381D01*
G01X26182Y42381D01*
G01X25382Y43982D02*
G01X24282Y43982D01*
G01X24282Y42982D01*
G01X24282Y42381D01*
G01X25382Y42381D01*
G54D10*
G01X14223Y45318D02*
G01X17477Y45318D01*
G01X17477Y55269D01*
G01X13794Y55269D01*
G01X13794Y45318D01*
G01X14223Y45318D01*
G54D12*
G01X13826Y16289D02*
G01X12726Y16289D01*
G01X12726Y17889D01*
G01X13826Y17889D01*
G01X14626Y16289D02*
G01X15726Y16289D01*
G01X15726Y17289D01*
G01X15726Y17889D01*
G01X14626Y17889D01*
G54D46*
G01X21955Y56320D02*
G01X21955Y55920D01*
G01X22955Y55820D02*
G01X20855Y55820D01*
G01X22855Y55520D02*
G01X20955Y55520D01*
G01X20955Y55120D01*
G01X22855Y55120D01*
G01X22855Y55520D01*
G01X22955Y54820D02*
G01X20855Y54820D01*
G01X21955Y54720D02*
G01X21955Y54420D01*
G54D47*
G01X20704Y57886D02*
G01X20704Y52888D01*
G01X23006Y52887D02*
G01X23006Y57888D01*
G01X23002Y52888D02*
G01X20704Y52888D01*
G01X23002Y57886D02*
G01X20704Y57886D01*
G54D12*
G01X25065Y52541D02*
G01X23965Y52541D01*
G01X23965Y54142D01*
G01X25065Y54142D01*
G01X25865Y52541D02*
G01X26965Y52541D01*
G01X26965Y53541D01*
G01X26965Y54142D01*
G01X25865Y54142D01*
G01X25065Y56605D02*
G01X23965Y56605D01*
G01X23965Y58206D01*
G01X25065Y58206D01*
G01X25865Y56605D02*
G01X26965Y56605D01*
G01X26965Y57605D01*
G01X26965Y58206D01*
G01X25865Y58206D01*
G54D10*
G01X4775Y48961D02*
G01X-725Y48961D01*
G01X-734Y48971D02*
G01X-1155Y48583D01*
G01X-1155Y48877D01*
G01X-825Y49182D01*
G01X-825Y56809D01*
G01X-1206Y57165D01*
G01X-1206Y57329D01*
G01X-1155Y57329D01*
G01X-734Y56971D01*
G01X4765Y56961D02*
G01X-734Y56961D01*
G01X4775Y48961D02*
G01X4775Y56961D01*
G54D48*
G01X7883Y56898D02*
G01X9153Y56898D01*
G01X8137Y56898D02*
G01X8137Y56517D01*
G01X8137Y56517D02*
G01X8899Y56898D01*
G01X8899Y56898D02*
G01X8899Y56517D01*
G01X8137Y56898D02*
G01X8137Y57279D01*
G01X8137Y57279D02*
G01X8899Y56898D01*
G01X8899Y56898D02*
G01X8899Y57279D01*
G54D10*
G01X6519Y55648D02*
G01X6519Y55898D01*
G01X6519Y57898D02*
G01X6519Y58147D01*
G01X10517Y55648D02*
G01X6519Y55648D01*
G01X10517Y55648D02*
G01X10517Y55898D01*
G01X10517Y57898D02*
G01X10517Y58147D01*
G01X6519Y58147D02*
G01X10517Y58147D01*
G01X9374Y58142D02*
G01X9374Y55653D01*
G54D49*
G01X24566Y4723D02*
G01X17865Y4723D01*
G01X17865Y7972D01*
G01X24566Y7972D01*
G01X24566Y4723D01*
G54D12*
G01X14626Y12001D02*
G01X15726Y12001D01*
G01X15726Y10401D01*
G01X14626Y10401D01*
G01X13826Y12001D02*
G01X12726Y12001D01*
G01X12726Y11001D01*
G01X12726Y10401D01*
G01X13826Y10401D01*
G54D10*
G01X-4166Y13854D02*
G01X-4166Y22854D01*
G01X-4166Y22854D02*
G01X10233Y22854D01*
G01X10233Y22854D02*
G01X10233Y13854D01*
G01X10233Y13854D02*
G01X-4166Y13854D01*
G01X-466Y13854D02*
G01X-466Y22854D01*
G01X-386Y15154D02*
G01X10233Y15154D01*
G01X-386Y21554D02*
G01X10233Y21554D01*
G01X6796Y5590D02*
G01X6796Y2796D01*
G01X12067Y2796D01*
G01X13591Y4320D01*
G01X13591Y5590D01*
G01X6796Y6860D02*
G01X6796Y9654D01*
G01X12067Y9654D01*
G01X13591Y8130D01*
G01X13591Y6860D01*
G54D12*
G01X48427Y20684D02*
G01X48427Y19584D01*
G01X46826Y19584D01*
G01X46826Y20684D01*
G01X48427Y21484D02*
G01X48427Y22584D01*
G01X47427Y22584D01*
G01X46826Y22584D01*
G01X46826Y21484D01*
G54D10*
G01X69404Y32003D02*
G01X69404Y29773D01*
G54D12*
G01X60472Y47157D02*
G01X61573Y47157D01*
G01X61573Y45556D01*
G01X60472Y45556D01*
G01X59673Y47157D02*
G01X58573Y47157D01*
G01X58573Y46157D01*
G01X58573Y45556D01*
G01X59673Y45556D01*
G01X59673Y43524D02*
G01X58573Y43524D01*
G01X58573Y45125D01*
G01X59673Y45125D01*
G01X60472Y43524D02*
G01X61573Y43524D01*
G01X61573Y44524D01*
G01X61573Y45125D01*
G01X60472Y45125D01*
G01X59673Y41492D02*
G01X58573Y41492D01*
G01X58573Y43093D01*
G01X59673Y43093D01*
G01X60472Y41492D02*
G01X61573Y41492D01*
G01X61573Y42492D01*
G01X61573Y43093D01*
G01X60472Y43093D01*
G54D10*
G01X33682Y61394D02*
G01X33682Y59768D01*
G01X30837Y59768D02*
G01X30837Y61394D01*
G01X31726Y61394D02*
G01X32793Y61394D01*
G01X31828Y59768D02*
G01X31726Y59768D01*
G01X32793Y59768D02*
G01X32691Y59768D01*
G01X30939Y59768D02*
G01X30837Y59768D01*
G01X33682Y59768D02*
G01X33580Y59768D01*
G01X33580Y61394D02*
G01X33682Y61394D01*
G01X30837Y61394D02*
G01X30939Y61394D01*
G01X33682Y59768D02*
G01X30837Y59768D01*
G01X30837Y61394D02*
G01X33098Y61394D01*
G01X33682Y61394D01*
G54D12*
G01X29554Y66187D02*
G01X29554Y67287D01*
G01X31155Y67287D01*
G01X31155Y66187D01*
G01X29554Y65387D02*
G01X29554Y64287D01*
G01X30554Y64287D01*
G01X31155Y64287D01*
G01X31155Y65387D01*
G01X33511Y66257D02*
G01X32411Y66257D01*
G01X32411Y67858D01*
G01X33511Y67858D01*
G01X34311Y66257D02*
G01X35411Y66257D01*
G01X35411Y67257D01*
G01X35411Y67858D01*
G01X34311Y67858D01*
G01X33638Y63209D02*
G01X32538Y63209D01*
G01X32538Y64810D01*
G01X33638Y64810D01*
G01X34438Y63209D02*
G01X35538Y63209D01*
G01X35538Y64209D01*
G01X35538Y64810D01*
G01X34438Y64810D01*
G01X33040Y57190D02*
G01X34140Y57190D01*
G01X34140Y55589D01*
G01X33040Y55589D01*
G01X32240Y57190D02*
G01X31140Y57190D01*
G01X31140Y56190D01*
G01X31140Y55589D01*
G01X32240Y55589D01*
G01X31516Y53507D02*
G01X32616Y53507D01*
G01X32616Y51906D01*
G01X31516Y51906D01*
G01X30716Y53507D02*
G01X29616Y53507D01*
G01X29616Y52507D01*
G01X29616Y51906D01*
G01X30716Y51906D01*
G01X29357Y56301D02*
G01X30457Y56301D01*
G01X30457Y54700D01*
G01X29357Y54700D01*
G01X28557Y56301D02*
G01X27457Y56301D01*
G01X27457Y55301D01*
G01X27457Y54700D01*
G01X28557Y54700D01*
G01X29504Y59546D02*
G01X29504Y58446D01*
G01X27903Y58446D01*
G01X27903Y59546D01*
G01X29504Y60346D02*
G01X29504Y61446D01*
G01X28504Y61446D01*
G01X27903Y61446D01*
G01X27903Y60346D01*
G01X14626Y25740D02*
G01X15726Y25740D01*
G01X15726Y24140D01*
G01X14626Y24140D01*
G01X13826Y25740D02*
G01X12726Y25740D01*
G01X12726Y24740D01*
G01X12726Y24140D01*
G01X13826Y24140D01*
G01X39226Y32348D02*
G01X38126Y32348D01*
G01X38126Y33949D01*
G01X39226Y33949D01*
G01X40026Y32348D02*
G01X41126Y32348D01*
G01X41126Y33348D01*
G01X41126Y33949D01*
G01X40026Y33949D01*
G01X43798Y32221D02*
G01X42698Y32221D01*
G01X42698Y33822D01*
G01X43798Y33822D01*
G01X44598Y32221D02*
G01X45698Y32221D01*
G01X45698Y33221D01*
G01X45698Y33822D01*
G01X44598Y33822D01*
G01X18689Y23789D02*
G01X19789Y23789D01*
G01X19789Y22188D01*
G01X18689Y22188D01*
G01X17889Y23789D02*
G01X16789Y23789D01*
G01X16789Y22789D01*
G01X16789Y22188D01*
G01X17889Y22188D01*
G01X18689Y21807D02*
G01X19789Y21807D01*
G01X19789Y20207D01*
G01X18689Y20207D01*
G01X17889Y21807D02*
G01X16789Y21807D01*
G01X16789Y20807D01*
G01X16789Y20207D01*
G01X17889Y20207D01*
G01X42311Y47157D02*
G01X43411Y47157D01*
G01X43411Y45556D01*
G01X42311Y45556D01*
G01X41511Y47157D02*
G01X40411Y47157D01*
G01X40411Y46157D01*
G01X40411Y45556D01*
G01X41511Y45556D01*
G01X24531Y49189D02*
G01X25631Y49189D01*
G01X25631Y47588D01*
G01X24531Y47588D01*
G01X23731Y49189D02*
G01X22631Y49189D01*
G01X22631Y48189D01*
G01X22631Y47588D01*
G01X23731Y47588D01*
G01X31516Y49824D02*
G01X32616Y49824D01*
G01X32616Y48223D01*
G01X31516Y48223D01*
G01X30716Y49824D02*
G01X29616Y49824D01*
G01X29616Y48824D01*
G01X29616Y48223D01*
G01X30716Y48223D01*
G54D10*
G01X33911Y37492D02*
G01X34292Y37492D01*
G01X34292Y37492D02*
G01X35689Y37492D01*
G01X33911Y36171D02*
G01X34292Y36171D01*
G01X34292Y36171D02*
G01X35689Y36171D01*
G01X35300Y37432D02*
G01X35300Y36211D01*
G54D12*
G01X30717Y41365D02*
G01X29617Y41365D01*
G01X29617Y42966D01*
G01X30717Y42966D01*
G01X31517Y41365D02*
G01X32617Y41365D01*
G01X32617Y42365D01*
G01X32617Y42966D01*
G01X31517Y42966D01*
G01X35580Y51983D02*
G01X36680Y51983D01*
G01X36680Y50382D01*
G01X35580Y50382D01*
G01X34780Y51983D02*
G01X33680Y51983D01*
G01X33680Y50983D01*
G01X33680Y50382D01*
G01X34780Y50382D01*
G54D49*
G01X33202Y4723D02*
G01X26501Y4723D01*
G01X26501Y7972D01*
G01X33202Y7972D01*
G01X33202Y4723D01*
G54D12*
G01X13826Y12363D02*
G01X12726Y12363D01*
G01X12726Y13963D01*
G01X13826Y13963D01*
G01X14626Y12363D02*
G01X15726Y12363D01*
G01X15726Y13363D01*
G01X15726Y13963D01*
G01X14626Y13963D01*
G01X18689Y13883D02*
G01X19789Y13883D01*
G01X19789Y12282D01*
G01X18689Y12282D01*
G01X17889Y13883D02*
G01X16789Y13883D01*
G01X16789Y12883D01*
G01X16789Y12282D01*
G01X17889Y12282D01*
G01X17889Y14264D02*
G01X16789Y14264D01*
G01X16789Y15864D01*
G01X17889Y15864D01*
G01X18689Y14264D02*
G01X19789Y14264D01*
G01X19789Y15264D01*
G01X19789Y15864D01*
G01X18689Y15864D01*
G01X14626Y15926D02*
G01X15726Y15926D01*
G01X15726Y14326D01*
G01X14626Y14326D01*
G01X13826Y15926D02*
G01X12726Y15926D01*
G01X12726Y14926D01*
G01X12726Y14326D01*
G01X13826Y14326D01*
G54D10*
G01X36489Y46879D02*
G01X37148Y46879D01*
G01X36489Y46879D01*
G01X37148Y46879D01*
G01X37148Y46064D01*
G01X34229Y46064D02*
G01X34229Y46879D01*
G01X34888Y46879D01*
G54D12*
G01X35389Y45330D02*
G01X35988Y45330D01*
G54D10*
G01X34912Y41442D02*
G01X34912Y42101D01*
G01X34912Y41442D01*
G01X34912Y42101D01*
G01X35727Y42101D01*
G01X35727Y39182D02*
G01X34912Y39182D01*
G01X34912Y39841D01*
G54D12*
G01X36461Y40342D02*
G01X36461Y40941D01*
G01X32933Y45449D02*
G01X32933Y44349D01*
G01X31332Y44349D01*
G01X31332Y45449D01*
G01X32933Y46249D02*
G01X32933Y47349D01*
G01X31933Y47349D01*
G01X31332Y47349D01*
G01X31332Y46249D01*
G01X28488Y46084D02*
G01X28488Y44984D01*
G01X26887Y44984D01*
G01X26887Y46084D01*
G01X28488Y46884D02*
G01X28488Y47984D01*
G01X27488Y47984D01*
G01X26887Y47984D01*
G01X26887Y46884D01*
G01X42311Y45379D02*
G01X43411Y45379D01*
G01X43411Y43778D01*
G01X42311Y43778D01*
G01X41511Y45379D02*
G01X40411Y45379D01*
G01X40411Y44379D01*
G01X40411Y43778D01*
G01X41511Y43778D01*
G01X29173Y46629D02*
G01X29173Y47729D01*
G01X30774Y47729D01*
G01X30774Y46629D01*
G01X29173Y45829D02*
G01X29173Y44729D01*
G01X30173Y44729D01*
G01X30774Y44729D01*
G01X30774Y45829D01*
G01X23632Y21932D02*
G01X23632Y22332D01*
G01X24032Y22332D01*
G01X27533Y22332D02*
G01X27933Y22332D01*
G01X27933Y21932D01*
G01X27533Y18032D02*
G01X27933Y18032D01*
G01X27933Y18432D01*
G01X24032Y18032D02*
G01X23632Y18032D01*
G01X23632Y18432D01*
G01X23388Y25821D02*
G01X24488Y25821D01*
G01X24488Y24220D01*
G01X23388Y24220D01*
G01X22588Y25821D02*
G01X21488Y25821D01*
G01X21488Y24821D01*
G01X21488Y24220D01*
G01X22588Y24220D01*
G01X29046Y23769D02*
G01X29046Y24869D01*
G01X30647Y24869D01*
G01X30647Y23769D01*
G01X29046Y22969D02*
G01X29046Y21869D01*
G01X30046Y21869D01*
G01X30647Y21869D01*
G01X30647Y22969D01*
G01X31409Y13826D02*
G01X31409Y12726D01*
G01X29808Y12726D01*
G01X29808Y13826D01*
G01X31409Y14626D02*
G01X31409Y15726D01*
G01X30409Y15726D01*
G01X29808Y15726D01*
G01X29808Y14626D01*
G01X22716Y13552D02*
G01X21616Y13552D01*
G01X21616Y15153D01*
G01X22716Y15153D01*
G01X23516Y13552D02*
G01X24616Y13552D01*
G01X24616Y14552D01*
G01X24616Y15153D01*
G01X23516Y15153D01*
G01X27198Y15153D02*
G01X28298Y15153D01*
G01X28298Y13552D01*
G01X27198Y13552D01*
G01X26398Y15153D02*
G01X25298Y15153D01*
G01X25298Y14153D01*
G01X25298Y13552D01*
G01X26398Y13552D01*
G01X18689Y17845D02*
G01X19789Y17845D01*
G01X19789Y16245D01*
G01X18689Y16245D01*
G01X17889Y17845D02*
G01X16789Y17845D01*
G01X16789Y16845D01*
G01X16789Y16245D01*
G01X17889Y16245D01*
G01X17889Y18226D02*
G01X16789Y18226D01*
G01X16789Y19826D01*
G01X17889Y19826D01*
G01X18689Y18226D02*
G01X19789Y18226D01*
G01X19789Y19226D01*
G01X19789Y19826D01*
G01X18689Y19826D01*
G01X46699Y25039D02*
G01X46699Y26139D01*
G01X48300Y26139D01*
G01X48300Y25039D01*
G01X46699Y24239D02*
G01X46699Y23139D01*
G01X47699Y23139D01*
G01X48300Y23139D01*
G01X48300Y24239D01*
G01X51074Y24805D02*
G01X52174Y24805D01*
G01X52174Y23204D01*
G01X51074Y23204D01*
G01X50274Y24805D02*
G01X49174Y24805D01*
G01X49174Y23805D01*
G01X49174Y23204D01*
G01X50274Y23204D01*
G01X51074Y22646D02*
G01X52174Y22646D01*
G01X52174Y21045D01*
G01X51074Y21045D01*
G01X50274Y22646D02*
G01X49174Y22646D01*
G01X49174Y21646D01*
G01X49174Y21045D01*
G01X50274Y21045D01*
G54D10*
G01X28605Y38397D02*
G01X22706Y38397D01*
G01X22706Y32497D01*
G01X28605Y32497D01*
G01X28605Y38397D01*
G54D12*
G01X8720Y41823D02*
G01X9820Y41823D01*
G01X9820Y40222D01*
G01X8720Y40222D01*
G01X7920Y41823D02*
G01X6820Y41823D01*
G01X6820Y40823D01*
G01X6820Y40222D01*
G01X7920Y40222D01*
G01X8720Y44363D02*
G01X9820Y44363D01*
G01X9820Y42762D01*
G01X8720Y42762D01*
G01X7920Y44363D02*
G01X6820Y44363D01*
G01X6820Y43363D01*
G01X6820Y42762D01*
G01X7920Y42762D01*
G01X8238Y24982D02*
G01X7138Y24982D01*
G01X7138Y26583D01*
G01X8238Y26583D01*
G01X9038Y24982D02*
G01X10138Y24982D01*
G01X10138Y25982D01*
G01X10138Y26583D01*
G01X9038Y26583D01*
G54D10*
G01X8433Y66248D02*
G01X14433Y66248D01*
G01X14433Y60248D01*
G01X8433Y60248D01*
G01X8433Y66248D01*
G01X5546Y42013D02*
G01X4073Y42013D01*
G01X5546Y40286D02*
G01X4073Y40286D01*
G01X5546Y40286D02*
G01X5546Y42013D01*
G01X3489Y42013D02*
G01X2321Y42013D01*
G01X3464Y40286D02*
G01X2321Y40286D01*
G01X2321Y40286D02*
G01X1965Y40642D01*
G01X1965Y41658D01*
G01X2321Y42013D01*
G54D50*
G01X3921Y40769D02*
G01X3921Y41556D01*
G01X3667Y41302D01*
G01X3667Y40946D01*
G01X3921Y40692D01*
G01X3921Y40921D01*
G01X3794Y41378D02*
G01X3794Y40870D01*
G54D10*
G01X5546Y44426D02*
G01X4073Y44426D01*
G01X5546Y42699D02*
G01X4073Y42699D01*
G01X5546Y42699D02*
G01X5546Y44426D01*
G01X3489Y44426D02*
G01X2321Y44426D01*
G01X3464Y42699D02*
G01X2321Y42699D01*
G01X2321Y42699D02*
G01X1965Y43055D01*
G01X1965Y44071D01*
G01X2321Y44426D01*
G54D50*
G01X3921Y43182D02*
G01X3921Y43969D01*
G01X3667Y43715D01*
G01X3667Y43359D01*
G01X3921Y43105D01*
G01X3921Y43334D01*
G01X3794Y43791D02*
G01X3794Y43283D01*
G54D10*
G01X5546Y26646D02*
G01X4073Y26646D01*
G01X5546Y24919D02*
G01X4073Y24919D01*
G01X5546Y24919D02*
G01X5546Y26646D01*
G01X3489Y26646D02*
G01X2321Y26646D01*
G01X3464Y24919D02*
G01X2321Y24919D01*
G01X2321Y24919D02*
G01X1965Y25275D01*
G01X1965Y26291D01*
G01X2321Y26646D01*
G54D50*
G01X3921Y25402D02*
G01X3921Y26189D01*
G01X3667Y25935D01*
G01X3667Y25579D01*
G01X3921Y25325D01*
G01X3921Y25554D01*
G01X3794Y26011D02*
G01X3794Y25503D01*
G54D10*
G01X39526Y5632D02*
G01X39526Y8343D01*
G01X35417Y11710D02*
G01X44917Y11710D01*
G01X44917Y2210D01*
G01X35417Y2210D01*
G01X35417Y11710D01*
G01X35295Y22704D02*
G01X36311Y22704D01*
G01X35803Y23212D02*
G01X35803Y22196D01*
G01X55707Y3860D02*
G01X49707Y3860D01*
G01X49707Y9860D01*
G01X55707Y9860D01*
G01X55707Y3860D01*
G01X68661Y3860D02*
G01X62661Y3860D01*
G01X62661Y9860D01*
G01X68661Y9860D01*
G01X68661Y3860D01*
G01X59452Y20383D02*
G01X58752Y20383D01*
G01X58752Y21883D01*
G01X58152Y21883D01*
G01X58152Y20383D01*
G01X57452Y20383D01*
G01X57452Y21883D01*
G01X56852Y21883D01*
G01X56852Y20383D01*
G01X56352Y20383D01*
G01X56352Y21983D01*
G01X55852Y21983D01*
G01X55852Y20383D01*
G01X55052Y20383D01*
G01X59452Y22183D02*
G01X59452Y19883D01*
G01X55052Y22383D02*
G01X55052Y19883D01*
G01X21528Y65026D02*
G01X22544Y65026D01*
G01X22036Y64518D02*
G01X22036Y65534D01*
G01X24449Y65026D02*
G01X23433Y65026D01*
G01X39574Y35277D02*
G01X39574Y40677D01*
G01X61174Y35377D02*
G01X61174Y40777D01*
G01X39580Y40638D02*
G01X44280Y40638D01*
G01X44280Y48038D01*
G01X61180Y40738D02*
G01X56380Y40738D01*
G01X56380Y47938D01*
G01X37980Y66738D02*
G01X63280Y66738D01*
G01X63280Y50138D01*
G01X37980Y50138D01*
G01X37980Y66638D01*
G01X37880Y66738D01*
G01X38180Y66738D01*
G01X38580Y66738D01*
G01X45280Y40738D02*
G01X55480Y40738D01*
G01X37321Y67278D02*
G01X64021Y67278D01*
G01X64021Y48018D01*
G01X37321Y48018D01*
G01X37321Y67278D01*
G01X71376Y25021D02*
G01X71376Y14353D01*
G01X68328Y14353D01*
G01X68328Y25021D01*
G01X71376Y25021D01*
G01X71376Y22227D02*
G01X68328Y22227D01*
G01X47627Y30736D02*
G01X49151Y30736D01*
G01X47500Y30609D02*
G01X49278Y30609D01*
G01X54791Y30966D02*
G01X54519Y30966D01*
G01X52418Y30966D02*
G01X52146Y30966D01*
G01X59922Y30966D02*
G01X59700Y30966D01*
G01X57651Y30966D02*
G01X57430Y30966D01*
G54D51*
G01X1399Y30355D02*
G01X6479Y30355D01*
G01X6479Y37975D01*
G01X1399Y37975D01*
G01X1399Y30355D01*
G01X1399Y35223D01*

%LPD*%
G36*
G01X71647Y57282D02*
G01X71591Y57284D01*
G01X71525Y57282D01*
G01X71462Y57275D01*
G01X71403Y57265D01*
G01X71347Y57251D01*
G01X71294Y57233D01*
G01X71245Y57212D01*
G01X71201Y57187D01*
G01X71160Y57159D01*
G01X71124Y57127D01*
G01X71092Y57092D01*
G01X71064Y57053D01*
G01X71041Y57011D01*
G01X71023Y56967D01*
G01X71010Y56919D01*
G01X71002Y56869D01*
G01X71000Y56816D01*
G01X71004Y56749D01*
G01X71015Y56686D01*
G01X71034Y56627D01*
G01X71059Y56572D01*
G01X71091Y56523D01*
G01X71130Y56478D01*
G01X71174Y56440D01*
G01X71224Y56407D01*
G01X71279Y56381D01*
G01X71340Y56362D01*
G01X71405Y56350D01*
G01X71475Y56346D01*
G01X71542Y56350D01*
G01X71604Y56362D01*
G01X71662Y56380D01*
G01X71714Y56405D01*
G01X71762Y56436D01*
G01X71803Y56472D01*
G01X71839Y56513D01*
G01X71869Y56559D01*
G01X71893Y56609D01*
G01X71910Y56662D01*
G01X71921Y56718D01*
G01X71924Y56776D01*
G01X71917Y56863D01*
G01X71895Y56941D01*
G01X71860Y57011D01*
G01X71812Y57073D01*
G01X71872Y57061D01*
G01X71929Y57046D01*
G01X71984Y57029D01*
G01X72036Y57007D01*
G01X72087Y56983D01*
G01X72134Y56954D01*
G01X72180Y56922D01*
G01X72224Y56887D01*
G01X72265Y56847D01*
G01X72304Y56804D01*
G01X72341Y56756D01*
G01X72375Y56704D01*
G01X72408Y56648D01*
G01X72437Y56588D01*
G01X72465Y56523D01*
G01X72491Y56453D01*
G01X72559Y56471D01*
G01X72541Y56540D01*
G01X72520Y56606D01*
G01X72497Y56669D01*
G01X72471Y56728D01*
G01X72443Y56785D01*
G01X72412Y56838D01*
G01X72380Y56888D01*
G01X72346Y56935D01*
G01X72310Y56978D01*
G01X72272Y57018D01*
G01X72232Y57056D01*
G01X72190Y57091D01*
G01X72148Y57122D01*
G01X72103Y57150D01*
G01X72057Y57176D01*
G01X72009Y57199D01*
G01X71961Y57220D01*
G01X71911Y57236D01*
G01X71860Y57251D01*
G01X71808Y57263D01*
G01X71755Y57272D01*
G01X71701Y57279D01*
G01X71647Y57282D01*
G37*

%LPC*%
G36*
G01X71636Y57087D02*
G01X71609Y57088D01*
G01X71523Y57085D01*
G01X71444Y57079D01*
G01X71374Y57068D01*
G01X71312Y57052D01*
G01X71258Y57033D01*
G01X71211Y57010D01*
G01X71172Y56984D01*
G01X71141Y56954D01*
G01X71116Y56922D01*
G01X71100Y56887D01*
G01X71090Y56849D01*
G01X71086Y56809D01*
G01X71092Y56755D01*
G01X71109Y56704D01*
G01X71138Y56658D01*
G01X71178Y56618D01*
G01X71230Y56584D01*
G01X71293Y56559D01*
G01X71367Y56542D01*
G01X71452Y56537D01*
G01X71536Y56543D01*
G01X71609Y56560D01*
G01X71670Y56588D01*
G01X71719Y56624D01*
G01X71757Y56669D01*
G01X71783Y56720D01*
G01X71800Y56777D01*
G01X71805Y56839D01*
G01X71799Y56908D01*
G01X71783Y56972D01*
G01X71754Y57030D01*
G01X71713Y57083D01*
G01X71688Y57085D01*
G01X71636Y57087D01*
G37*

%LPD*%
G36*
G01X72519Y56148D02*
G01X72450Y56148D01*
G01X72404Y55836D01*
G01X72316Y55834D01*
G01X72227Y55832D01*
G01X72138Y55831D01*
G01X71350Y55831D01*
G01X71030Y55841D01*
G01X71007Y55810D01*
G01X71127Y55353D01*
G01X71203Y55353D01*
G01X71175Y55648D01*
G01X72138Y55648D01*
G01X72227Y55647D01*
G01X72316Y55647D01*
G01X72404Y55645D01*
G01X72450Y55328D01*
G01X72519Y55328D01*
G01X72519Y56148D01*
G37*

%LPD*%
G36*
G01X71865Y55066D02*
G01X71762Y55069D01*
G01X71662Y55066D01*
G01X71569Y55059D01*
G01X71485Y55046D01*
G01X71408Y55030D01*
G01X71338Y55009D01*
G01X71276Y54984D01*
G01X71221Y54956D01*
G01X71172Y54925D01*
G01X71130Y54891D01*
G01X71094Y54855D01*
G01X71064Y54817D01*
G01X71040Y54777D01*
G01X71022Y54736D01*
G01X71010Y54693D01*
G01X71002Y54650D01*
G01X71000Y54606D01*
G01X71002Y54562D01*
G01X71010Y54518D01*
G01X71022Y54474D01*
G01X71040Y54432D01*
G01X71064Y54392D01*
G01X71094Y54353D01*
G01X71130Y54316D01*
G01X71172Y54282D01*
G01X71221Y54250D01*
G01X71276Y54222D01*
G01X71338Y54197D01*
G01X71408Y54176D01*
G01X71485Y54159D01*
G01X71569Y54147D01*
G01X71662Y54139D01*
G01X71762Y54137D01*
G01X71865Y54139D01*
G01X71961Y54147D01*
G01X72048Y54159D01*
G01X72127Y54176D01*
G01X72199Y54197D01*
G01X72263Y54222D01*
G01X72320Y54250D01*
G01X72370Y54282D01*
G01X72413Y54316D01*
G01X72450Y54353D01*
G01X72480Y54392D01*
G01X72505Y54432D01*
G01X72524Y54474D01*
G01X72536Y54518D01*
G01X72544Y54562D01*
G01X72546Y54606D01*
G01X72544Y54650D01*
G01X72536Y54693D01*
G01X72524Y54736D01*
G01X72505Y54777D01*
G01X72480Y54817D01*
G01X72450Y54855D01*
G01X72413Y54891D01*
G01X72370Y54925D01*
G01X72320Y54956D01*
G01X72263Y54984D01*
G01X72199Y55009D01*
G01X72127Y55030D01*
G01X72048Y55046D01*
G01X71961Y55059D01*
G01X71865Y55066D01*
G37*

%LPC*%
G36*
G01X71892Y54868D02*
G01X71762Y54871D01*
G01X71636Y54868D01*
G01X71526Y54860D01*
G01X71431Y54849D01*
G01X71350Y54832D01*
G01X71282Y54813D01*
G01X71225Y54790D01*
G01X71179Y54764D01*
G01X71144Y54736D01*
G01X71118Y54705D01*
G01X71101Y54673D01*
G01X71092Y54640D01*
G01X71088Y54606D01*
G01X71092Y54571D01*
G01X71101Y54537D01*
G01X71118Y54504D01*
G01X71144Y54473D01*
G01X71179Y54444D01*
G01X71225Y54417D01*
G01X71282Y54394D01*
G01X71350Y54373D01*
G01X71431Y54357D01*
G01X71526Y54345D01*
G01X71636Y54337D01*
G01X71762Y54335D01*
G01X71861Y54336D01*
G01X71952Y54341D01*
G01X72033Y54347D01*
G01X72106Y54357D01*
G01X72171Y54369D01*
G01X72228Y54383D01*
G01X72278Y54399D01*
G01X72321Y54417D01*
G01X72357Y54437D01*
G01X72387Y54458D01*
G01X72412Y54480D01*
G01X72431Y54504D01*
G01X72445Y54529D01*
G01X72456Y54554D01*
G01X72461Y54580D01*
G01X72463Y54606D01*
G01X72460Y54640D01*
G01X72449Y54673D01*
G01X72431Y54705D01*
G01X72404Y54736D01*
G01X72367Y54764D01*
G01X72320Y54790D01*
G01X72261Y54813D01*
G01X72189Y54832D01*
G01X72104Y54849D01*
G01X72006Y54860D01*
G01X71892Y54868D01*
G37*

%LPD*%
G36*
G01X72519Y53954D02*
G01X72346Y53954D01*
G01X72346Y53181D01*
G01X72267Y53258D01*
G01X72194Y53329D01*
G01X72129Y53392D01*
G01X72077Y53443D01*
G01X71994Y53522D01*
G01X71919Y53592D01*
G01X71850Y53654D01*
G01X71787Y53708D01*
G01X71730Y53754D01*
G01X71677Y53792D01*
G01X71626Y53824D01*
G01X71579Y53849D01*
G01X71532Y53867D01*
G01X71487Y53880D01*
G01X71441Y53888D01*
G01X71393Y53890D01*
G01X71337Y53888D01*
G01X71284Y53879D01*
G01X71234Y53866D01*
G01X71189Y53846D01*
G01X71147Y53822D01*
G01X71110Y53791D01*
G01X71077Y53754D01*
G01X71050Y53711D01*
G01X71029Y53662D01*
G01X71013Y53607D01*
G01X71003Y53545D01*
G01X71000Y53476D01*
G01X71002Y53421D01*
G01X71009Y53368D01*
G01X71020Y53317D01*
G01X71037Y53269D01*
G01X71058Y53223D01*
G01X71083Y53181D01*
G01X71114Y53143D01*
G01X71148Y53109D01*
G01X71188Y53081D01*
G01X71232Y53058D01*
G01X71282Y53040D01*
G01X71335Y53029D01*
G01X71363Y53049D01*
G01X71385Y53074D01*
G01X71398Y53104D01*
G01X71403Y53138D01*
G01X71396Y53177D01*
G01X71372Y53210D01*
G01X71328Y53237D01*
G01X71264Y53260D01*
G01X71101Y53303D01*
G01X71095Y53338D01*
G01X71090Y53370D01*
G01X71087Y53398D01*
G01X71086Y53423D01*
G01X71092Y53483D01*
G01X71109Y53537D01*
G01X71136Y53583D01*
G01X71173Y53623D01*
G01X71219Y53654D01*
G01X71273Y53678D01*
G01X71335Y53692D01*
G01X71403Y53697D01*
G01X71448Y53695D01*
G01X71492Y53688D01*
G01X71537Y53678D01*
G01X71582Y53663D01*
G01X71628Y53643D01*
G01X71675Y53619D01*
G01X71723Y53590D01*
G01X71774Y53557D01*
G01X71826Y53519D01*
G01X71880Y53477D01*
G01X71938Y53429D01*
G01X71998Y53377D01*
G01X72041Y53340D01*
G01X72086Y53301D01*
G01X72132Y53260D01*
G01X72180Y53218D01*
G01X72229Y53174D01*
G01X72279Y53130D01*
G01X72330Y53085D01*
G01X72381Y53039D01*
G01X72519Y53039D01*
G01X72519Y53954D01*
G37*

%LPD*%
G36*
G01X71840Y52341D02*
G01X71769Y52343D01*
G01X71698Y52341D01*
G01X71630Y52333D01*
G01X71564Y52321D01*
G01X71503Y52304D01*
G01X71444Y52283D01*
G01X71388Y52257D01*
G01X71336Y52227D01*
G01X71287Y52194D01*
G01X71241Y52157D01*
G01X71200Y52117D01*
G01X71162Y52074D01*
G01X71128Y52027D01*
G01X71097Y51978D01*
G01X71070Y51926D01*
G01X71047Y51872D01*
G01X71029Y51815D01*
G01X71014Y51757D01*
G01X71003Y51697D01*
G01X70997Y51635D01*
G01X70995Y51571D01*
G01X70997Y51508D01*
G01X71003Y51445D01*
G01X71014Y51385D01*
G01X71029Y51326D01*
G01X71047Y51269D01*
G01X71070Y51215D01*
G01X71097Y51162D01*
G01X71128Y51113D01*
G01X71162Y51066D01*
G01X71200Y51023D01*
G01X71241Y50982D01*
G01X71287Y50945D01*
G01X71336Y50912D01*
G01X71388Y50883D01*
G01X71444Y50857D01*
G01X71503Y50836D01*
G01X71564Y50819D01*
G01X71630Y50807D01*
G01X71698Y50799D01*
G01X71769Y50796D01*
G01X71840Y50799D01*
G01X71909Y50807D01*
G01X71974Y50819D01*
G01X72037Y50836D01*
G01X72096Y50857D01*
G01X72152Y50883D01*
G01X72205Y50912D01*
G01X72254Y50945D01*
G01X72300Y50982D01*
G01X72342Y51023D01*
G01X72381Y51066D01*
G01X72416Y51113D01*
G01X72447Y51162D01*
G01X72474Y51215D01*
G01X72498Y51269D01*
G01X72517Y51326D01*
G01X72532Y51385D01*
G01X72543Y51445D01*
G01X72549Y51508D01*
G01X72552Y51571D01*
G01X72549Y51635D01*
G01X72543Y51697D01*
G01X72532Y51757D01*
G01X72517Y51815D01*
G01X72498Y51872D01*
G01X72474Y51926D01*
G01X72447Y51978D01*
G01X72416Y52027D01*
G01X72381Y52074D01*
G01X72342Y52117D01*
G01X72300Y52157D01*
G01X72254Y52194D01*
G01X72205Y52227D01*
G01X72152Y52257D01*
G01X72096Y52283D01*
G01X72037Y52304D01*
G01X71974Y52321D01*
G01X71909Y52333D01*
G01X71840Y52341D01*
G37*

%LPC*%
G36*
G01X71832Y52242D02*
G01X71769Y52244D01*
G01X71706Y52242D01*
G01X71645Y52236D01*
G01X71587Y52225D01*
G01X71532Y52211D01*
G01X71479Y52192D01*
G01X71429Y52171D01*
G01X71383Y52145D01*
G01X71339Y52116D01*
G01X71298Y52084D01*
G01X71260Y52050D01*
G01X71226Y52012D01*
G01X71195Y51971D01*
G01X71167Y51929D01*
G01X71142Y51884D01*
G01X71122Y51836D01*
G01X71104Y51787D01*
G01X71091Y51735D01*
G01X71081Y51682D01*
G01X71075Y51627D01*
G01X71073Y51571D01*
G01X71075Y51515D01*
G01X71081Y51460D01*
G01X71091Y51406D01*
G01X71104Y51355D01*
G01X71122Y51305D01*
G01X71142Y51257D01*
G01X71166Y51212D01*
G01X71194Y51169D01*
G01X71225Y51128D01*
G01X71259Y51091D01*
G01X71297Y51056D01*
G01X71338Y51024D01*
G01X71382Y50995D01*
G01X71428Y50970D01*
G01X71478Y50947D01*
G01X71531Y50929D01*
G01X71586Y50915D01*
G01X71645Y50904D01*
G01X71706Y50898D01*
G01X71769Y50895D01*
G01X71833Y50898D01*
G01X71895Y50904D01*
G01X71954Y50915D01*
G01X72010Y50929D01*
G01X72063Y50947D01*
G01X72114Y50970D01*
G01X72161Y50995D01*
G01X72206Y51024D01*
G01X72247Y51056D01*
G01X72285Y51091D01*
G01X72319Y51128D01*
G01X72351Y51169D01*
G01X72379Y51212D01*
G01X72403Y51257D01*
G01X72425Y51305D01*
G01X72442Y51355D01*
G01X72455Y51406D01*
G01X72465Y51460D01*
G01X72471Y51515D01*
G01X72473Y51571D01*
G01X72471Y51627D01*
G01X72465Y51682D01*
G01X72454Y51735D01*
G01X72441Y51787D01*
G01X72423Y51836D01*
G01X72402Y51884D01*
G01X72377Y51929D01*
G01X72349Y51971D01*
G01X72317Y52012D01*
G01X72282Y52050D01*
G01X72244Y52084D01*
G01X72203Y52116D01*
G01X72158Y52145D01*
G01X72111Y52171D01*
G01X72060Y52192D01*
G01X72007Y52211D01*
G01X71952Y52225D01*
G01X71893Y52236D01*
G01X71832Y52242D01*
G37*

%LPD*%
G36*
G01X72160Y51868D02*
G01X71947Y51876D01*
G01X71947Y51787D01*
G01X72120Y51754D01*
G01X72131Y51718D01*
G01X72139Y51683D01*
G01X72144Y51652D01*
G01X72145Y51624D01*
G01X72139Y51560D01*
G01X72120Y51503D01*
G01X72090Y51452D01*
G01X72048Y51408D01*
G01X71994Y51372D01*
G01X71930Y51347D01*
G01X71855Y51330D01*
G01X71769Y51325D01*
G01X71681Y51331D01*
G01X71605Y51348D01*
G01X71539Y51376D01*
G01X71485Y51412D01*
G01X71443Y51456D01*
G01X71413Y51507D01*
G01X71394Y51564D01*
G01X71388Y51624D01*
G01X71390Y51653D01*
G01X71394Y51683D01*
G01X71401Y51713D01*
G01X71411Y51744D01*
G01X71589Y51777D01*
G01X71589Y51863D01*
G01X71376Y51858D01*
G01X71346Y51797D01*
G01X71327Y51738D01*
G01X71317Y51675D01*
G01X71315Y51604D01*
G01X71319Y51544D01*
G01X71330Y51486D01*
G01X71348Y51432D01*
G01X71373Y51382D01*
G01X71404Y51336D01*
G01X71442Y51295D01*
G01X71485Y51258D01*
G01X71533Y51228D01*
G01X71586Y51203D01*
G01X71643Y51185D01*
G01X71704Y51174D01*
G01X71769Y51170D01*
G01X71834Y51173D01*
G01X71895Y51184D01*
G01X71953Y51202D01*
G01X72005Y51225D01*
G01X72053Y51255D01*
G01X72095Y51291D01*
G01X72132Y51332D01*
G01X72163Y51378D01*
G01X72188Y51428D01*
G01X72207Y51483D01*
G01X72218Y51542D01*
G01X72221Y51604D01*
G01X72218Y51676D01*
G01X72207Y51743D01*
G01X72188Y51807D01*
G01X72160Y51868D01*
G37*

%LPD*%
G36*
G01X72272Y50641D02*
G01X72229Y50644D01*
G01X72178Y50640D01*
G01X72131Y50627D01*
G01X72086Y50605D01*
G01X72045Y50573D01*
G01X72007Y50532D01*
G01X71971Y50479D01*
G01X71939Y50415D01*
G01X71909Y50339D01*
G01X71881Y50263D01*
G01X71840Y50166D01*
G01X71798Y50102D01*
G01X71748Y50066D01*
G01X71683Y50055D01*
G01X71617Y50069D01*
G01X71565Y50111D01*
G01X71532Y50179D01*
G01X71520Y50273D01*
G01X71523Y50313D01*
G01X71531Y50353D01*
G01X71544Y50393D01*
G01X71561Y50433D01*
G01X71751Y50476D01*
G01X71751Y50575D01*
G01X71525Y50583D01*
G01X71486Y50511D01*
G01X71458Y50437D01*
G01X71440Y50359D01*
G01X71434Y50273D01*
G01X71441Y50184D01*
G01X71459Y50107D01*
G01X71488Y50040D01*
G01X71527Y49985D01*
G01X71573Y49941D01*
G01X71626Y49910D01*
G01X71683Y49891D01*
G01X71744Y49885D01*
G01X71798Y49890D01*
G01X71847Y49904D01*
G01X71890Y49927D01*
G01X71929Y49959D01*
G01X71964Y49998D01*
G01X71995Y50044D01*
G01X72022Y50097D01*
G01X72046Y50156D01*
G01X72079Y50260D01*
G01X72121Y50354D01*
G01X72165Y50417D01*
G01X72218Y50455D01*
G01X72282Y50466D01*
G01X72321Y50462D01*
G01X72355Y50451D01*
G01X72386Y50431D01*
G01X72412Y50404D01*
G01X72434Y50369D01*
G01X72449Y50325D01*
G01X72459Y50273D01*
G01X72463Y50212D01*
G01X72460Y50161D01*
G01X72453Y50113D01*
G01X72441Y50069D01*
G01X72425Y50029D01*
G01X72219Y49979D01*
G01X72219Y49874D01*
G01X72463Y49877D01*
G01X72499Y49959D01*
G01X72526Y50039D01*
G01X72541Y50122D01*
G01X72546Y50212D01*
G01X72543Y50280D01*
G01X72535Y50343D01*
G01X72521Y50400D01*
G01X72503Y50450D01*
G01X72479Y50496D01*
G01X72452Y50535D01*
G01X72422Y50568D01*
G01X72388Y50595D01*
G01X72351Y50617D01*
G01X72312Y50632D01*
G01X72272Y50641D01*
G37*

%LPD*%
G36*
G01X72519Y49697D02*
G01X72450Y49697D01*
G01X72425Y49542D01*
G01X72334Y49540D01*
G01X72236Y49538D01*
G01X72139Y49537D01*
G01X71820Y49537D01*
G01X71725Y49532D01*
G01X71644Y49517D01*
G01X71577Y49494D01*
G01X71524Y49462D01*
G01X71484Y49421D01*
G01X71456Y49373D01*
G01X71440Y49316D01*
G01X71434Y49252D01*
G01X71437Y49199D01*
G01X71447Y49146D01*
G01X71462Y49094D01*
G01X71485Y49042D01*
G01X71514Y48992D01*
G01X71550Y48943D01*
G01X71592Y48895D01*
G01X71642Y48851D01*
G01X71592Y48834D01*
G01X71549Y48812D01*
G01X71513Y48786D01*
G01X71484Y48755D01*
G01X71462Y48720D01*
G01X71446Y48680D01*
G01X71437Y48636D01*
G01X71434Y48587D01*
G01X71437Y48535D01*
G01X71448Y48484D01*
G01X71465Y48432D01*
G01X71489Y48382D01*
G01X71518Y48333D01*
G01X71553Y48285D01*
G01X71592Y48241D01*
G01X71637Y48198D01*
G01X71457Y48180D01*
G01X71436Y48150D01*
G01X71558Y47835D01*
G01X71624Y47835D01*
G01X71642Y48013D01*
G01X71708Y48016D01*
G01X71775Y48017D01*
G01X71848Y48018D01*
G01X72138Y48018D01*
G01X72234Y48017D01*
G01X72333Y48017D01*
G01X72425Y48015D01*
G01X72450Y47850D01*
G01X72519Y47850D01*
G01X72519Y48363D01*
G01X72450Y48363D01*
G01X72425Y48208D01*
G01X72333Y48206D01*
G01X72234Y48205D01*
G01X72138Y48204D01*
G01X72051Y48203D01*
G01X71721Y48203D01*
G01X71655Y48284D01*
G01X71611Y48359D01*
G01X71584Y48431D01*
G01X71576Y48505D01*
G01X71579Y48550D01*
G01X71590Y48588D01*
G01X71608Y48619D01*
G01X71635Y48645D01*
G01X71671Y48664D01*
G01X71717Y48678D01*
G01X71775Y48686D01*
G01X71845Y48688D01*
G01X72236Y48688D01*
G01X72334Y48687D01*
G01X72425Y48686D01*
G01X72450Y48516D01*
G01X72519Y48516D01*
G01X72519Y49029D01*
G01X72450Y49029D01*
G01X72425Y48876D01*
G01X72334Y48873D01*
G01X72236Y48872D01*
G01X72139Y48871D01*
G01X71807Y48871D01*
G01X71778Y48869D01*
G01X71750Y48867D01*
G01X71723Y48863D01*
G01X71655Y48948D01*
G01X71610Y49026D01*
G01X71584Y49098D01*
G01X71576Y49168D01*
G01X71579Y49213D01*
G01X71588Y49252D01*
G01X71606Y49285D01*
G01X71632Y49311D01*
G01X71667Y49331D01*
G01X71713Y49345D01*
G01X71772Y49354D01*
G01X71843Y49356D01*
G01X72139Y49356D01*
G01X72236Y49355D01*
G01X72334Y49353D01*
G01X72425Y49351D01*
G01X72450Y49186D01*
G01X72519Y49186D01*
G01X72519Y49697D01*
G37*

%LPD*%
G36*
G01X72483Y47713D02*
G01X72430Y47754D01*
G01X72386Y47713D01*
G01X72410Y47693D01*
G01X72428Y47672D01*
G01X72439Y47650D01*
G01X72442Y47624D01*
G01X72435Y47590D01*
G01X72410Y47564D01*
G01X72366Y47548D01*
G01X72300Y47543D01*
G01X71815Y47543D01*
G01X71749Y47540D01*
G01X71690Y47534D01*
G01X71639Y47521D01*
G01X71593Y47505D01*
G01X71554Y47484D01*
G01X71521Y47458D01*
G01X71493Y47426D01*
G01X71471Y47391D01*
G01X71455Y47350D01*
G01X71443Y47304D01*
G01X71436Y47253D01*
G01X71434Y47197D01*
G01X71438Y47115D01*
G01X71453Y47039D01*
G01X71476Y46971D01*
G01X71507Y46911D01*
G01X71547Y46860D01*
G01X71593Y46819D01*
G01X71648Y46788D01*
G01X71708Y46768D01*
G01X71744Y46777D01*
G01X71770Y46796D01*
G01X71786Y46826D01*
G01X71792Y46867D01*
G01X71786Y46906D01*
G01X71767Y46937D01*
G01X71735Y46962D01*
G01X71690Y46979D01*
G01X71538Y47022D01*
G01X71529Y47056D01*
G01X71523Y47087D01*
G01X71519Y47117D01*
G01X71518Y47146D01*
G01X71521Y47199D01*
G01X71530Y47243D01*
G01X71548Y47280D01*
G01X71574Y47310D01*
G01X71611Y47332D01*
G01X71659Y47348D01*
G01X71720Y47357D01*
G01X71795Y47360D01*
G01X71863Y47360D01*
G01X71880Y47292D01*
G01X71898Y47225D01*
G01X71918Y47161D01*
G01X71937Y47103D01*
G01X71975Y47004D01*
G01X72014Y46924D01*
G01X72053Y46860D01*
G01X72093Y46812D01*
G01X72135Y46777D01*
G01X72179Y46754D01*
G01X72225Y46742D01*
G01X72275Y46738D01*
G01X72337Y46744D01*
G01X72392Y46761D01*
G01X72439Y46788D01*
G01X72477Y46824D01*
G01X72507Y46868D01*
G01X72529Y46917D01*
G01X72542Y46973D01*
G01X72546Y47032D01*
G01X72544Y47079D01*
G01X72535Y47123D01*
G01X72522Y47163D01*
G01X72502Y47202D01*
G01X72477Y47241D01*
G01X72447Y47280D01*
G01X72411Y47321D01*
G01X72369Y47365D01*
G01X72441Y47388D01*
G01X72496Y47429D01*
G01X72532Y47488D01*
G01X72544Y47563D01*
G01X72538Y47619D01*
G01X72518Y47669D01*
G01X72483Y47713D01*
G37*

%LPC*%
G36*
G01X72287Y47360D02*
G01X71934Y47360D01*
G01X71951Y47301D01*
G01X71968Y47247D01*
G01X71986Y47197D01*
G01X72000Y47154D01*
G01X72029Y47089D01*
G01X72059Y47037D01*
G01X72090Y46997D01*
G01X72120Y46967D01*
G01X72151Y46947D01*
G01X72183Y46934D01*
G01X72214Y46927D01*
G01X72244Y46925D01*
G01X72321Y46939D01*
G01X72375Y46977D01*
G01X72407Y47034D01*
G01X72417Y47106D01*
G01X72410Y47161D01*
G01X72388Y47216D01*
G01X72348Y47279D01*
G01X72287Y47360D01*
G37*

%LPD*%
G36*
G01X72519Y46565D02*
G01X72450Y46565D01*
G01X72425Y46412D01*
G01X72334Y46410D01*
G01X72236Y46409D01*
G01X72139Y46408D01*
G01X72051Y46407D01*
G01X71840Y46407D01*
G01X71739Y46403D01*
G01X71653Y46389D01*
G01X71583Y46367D01*
G01X71527Y46335D01*
G01X71486Y46295D01*
G01X71456Y46245D01*
G01X71440Y46187D01*
G01X71434Y46120D01*
G01X71438Y46066D01*
G01X71449Y46012D01*
G01X71467Y45958D01*
G01X71491Y45905D01*
G01X71522Y45854D01*
G01X71557Y45804D01*
G01X71598Y45758D01*
G01X71642Y45714D01*
G01X71205Y45714D01*
G01X70888Y45722D01*
G01X70873Y45691D01*
G01X70967Y45356D01*
G01X71033Y45356D01*
G01X71050Y45536D01*
G01X72138Y45536D01*
G01X72234Y45535D01*
G01X72333Y45533D01*
G01X72425Y45531D01*
G01X72450Y45366D01*
G01X72519Y45366D01*
G01X72519Y45876D01*
G01X72450Y45876D01*
G01X72425Y45722D01*
G01X72333Y45721D01*
G01X72234Y45720D01*
G01X72138Y45719D01*
G01X71721Y45719D01*
G01X71651Y45806D01*
G01X71606Y45885D01*
G01X71581Y45961D01*
G01X71574Y46036D01*
G01X71577Y46081D01*
G01X71587Y46119D01*
G01X71605Y46152D01*
G01X71632Y46178D01*
G01X71669Y46199D01*
G01X71715Y46213D01*
G01X71773Y46221D01*
G01X71843Y46224D01*
G01X72139Y46224D01*
G01X72236Y46223D01*
G01X72334Y46221D01*
G01X72425Y46219D01*
G01X72450Y46054D01*
G01X72519Y46054D01*
G01X72519Y46565D01*
G37*

%LPD*%
G36*
G01X72191Y45214D02*
G01X72127Y45219D01*
G01X72077Y45216D01*
G01X72030Y45209D01*
G01X71986Y45197D01*
G01X71944Y45179D01*
G01X71905Y45156D01*
G01X71868Y45127D01*
G01X71833Y45092D01*
G01X71800Y45049D01*
G01X71768Y45001D01*
G01X71737Y44945D01*
G01X71707Y44883D01*
G01X71678Y44812D01*
G01X71642Y44723D01*
G01X71617Y44666D01*
G01X71590Y44617D01*
G01X71560Y44573D01*
G01X71527Y44537D01*
G01X71490Y44509D01*
G01X71449Y44489D01*
G01X71403Y44476D01*
G01X71353Y44472D01*
G01X71293Y44478D01*
G01X71240Y44495D01*
G01X71195Y44523D01*
G01X71158Y44560D01*
G01X71129Y44605D01*
G01X71108Y44658D01*
G01X71095Y44717D01*
G01X71091Y44782D01*
G01X71094Y44831D01*
G01X71102Y44877D01*
G01X71116Y44920D01*
G01X71137Y44962D01*
G01X71403Y45020D01*
G01X71403Y45135D01*
G01X71111Y45150D01*
G01X71086Y45112D01*
G01X71063Y45072D01*
G01X71043Y45030D01*
G01X71027Y44986D01*
G01X71013Y44940D01*
G01X71003Y44891D01*
G01X70997Y44839D01*
G01X70995Y44784D01*
G01X70998Y44715D01*
G01X71007Y44650D01*
G01X71022Y44588D01*
G01X71043Y44531D01*
G01X71070Y44478D01*
G01X71102Y44431D01*
G01X71139Y44390D01*
G01X71182Y44354D01*
G01X71230Y44327D01*
G01X71283Y44306D01*
G01X71341Y44294D01*
G01X71403Y44289D01*
G01X71457Y44292D01*
G01X71508Y44301D01*
G01X71554Y44316D01*
G01X71597Y44337D01*
G01X71637Y44363D01*
G01X71674Y44394D01*
G01X71709Y44430D01*
G01X71741Y44470D01*
G01X71770Y44515D01*
G01X71798Y44564D01*
G01X71824Y44617D01*
G01X71848Y44672D01*
G01X71884Y44756D01*
G01X71913Y44825D01*
G01X71942Y44883D01*
G01X71972Y44932D01*
G01X72005Y44970D01*
G01X72040Y45000D01*
G01X72080Y45020D01*
G01X72125Y45032D01*
G01X72176Y45036D01*
G01X72239Y45029D01*
G01X72295Y45010D01*
G01X72342Y44980D01*
G01X72382Y44939D01*
G01X72412Y44887D01*
G01X72435Y44827D01*
G01X72448Y44757D01*
G01X72452Y44680D01*
G01X72449Y44613D01*
G01X72440Y44554D01*
G01X72424Y44499D01*
G01X72399Y44446D01*
G01X72120Y44391D01*
G01X72120Y44276D01*
G01X72432Y44261D01*
G01X72456Y44302D01*
G01X72479Y44348D01*
G01X72499Y44398D01*
G01X72516Y44453D01*
G01X72531Y44510D01*
G01X72542Y44570D01*
G01X72549Y44632D01*
G01X72552Y44695D01*
G01X72548Y44770D01*
G01X72538Y44841D01*
G01X72523Y44907D01*
G01X72500Y44968D01*
G01X72472Y45023D01*
G01X72439Y45072D01*
G01X72399Y45115D01*
G01X72355Y45151D01*
G01X72305Y45180D01*
G01X72250Y45201D01*
G01X72191Y45214D01*
G37*

%LPD*%
G36*
G01X72519Y43608D02*
G01X72450Y43608D01*
G01X72430Y43425D01*
G01X71205Y43425D01*
G01X70888Y43433D01*
G01X70873Y43405D01*
G01X70967Y43060D01*
G01X71033Y43060D01*
G01X71050Y43248D01*
G01X71579Y43248D01*
G01X71509Y43177D01*
G01X71464Y43105D01*
G01X71441Y43032D01*
G01X71434Y42955D01*
G01X71436Y42905D01*
G01X71444Y42856D01*
G01X71457Y42810D01*
G01X71474Y42765D01*
G01X71496Y42724D01*
G01X71522Y42685D01*
G01X71553Y42648D01*
G01X71588Y42615D01*
G01X71626Y42585D01*
G01X71669Y42558D01*
G01X71716Y42535D01*
G01X71766Y42516D01*
G01X71820Y42501D01*
G01X71877Y42490D01*
G01X71937Y42483D01*
G01X72000Y42480D01*
G01X72080Y42484D01*
G01X72154Y42495D01*
G01X72223Y42513D01*
G01X72286Y42538D01*
G01X72344Y42569D01*
G01X72395Y42606D01*
G01X72440Y42649D01*
G01X72477Y42697D01*
G01X72507Y42751D01*
G01X72529Y42809D01*
G01X72542Y42871D01*
G01X72546Y42938D01*
G01X72536Y43032D01*
G01X72505Y43115D01*
G01X72456Y43187D01*
G01X72389Y43250D01*
G01X72541Y43263D01*
G01X72519Y43608D01*
G37*

%LPC*%
G36*
G01X72308Y43242D02*
G01X71663Y43242D01*
G01X71607Y43172D01*
G01X71571Y43108D01*
G01X71551Y43048D01*
G01X71546Y42991D01*
G01X71548Y42949D01*
G01X71557Y42908D01*
G01X71571Y42870D01*
G01X71591Y42833D01*
G01X71617Y42799D01*
G01X71650Y42769D01*
G01X71690Y42741D01*
G01X71737Y42718D01*
G01X71790Y42699D01*
G01X71851Y42685D01*
G01X71919Y42677D01*
G01X71995Y42674D01*
G01X72068Y42676D01*
G01X72134Y42684D01*
G01X72193Y42697D01*
G01X72245Y42715D01*
G01X72290Y42737D01*
G01X72329Y42763D01*
G01X72361Y42793D01*
G01X72387Y42826D01*
G01X72407Y42863D01*
G01X72421Y42903D01*
G01X72430Y42944D01*
G01X72432Y42988D01*
G01X72426Y43058D01*
G01X72405Y43121D01*
G01X72367Y43182D01*
G01X72308Y43242D01*
G37*

%LPD*%
G36*
G01X72483Y42326D02*
G01X72430Y42366D01*
G01X72386Y42326D01*
G01X72410Y42305D01*
G01X72428Y42284D01*
G01X72439Y42262D01*
G01X72442Y42237D01*
G01X72435Y42203D01*
G01X72410Y42177D01*
G01X72366Y42161D01*
G01X72300Y42155D01*
G01X71815Y42155D01*
G01X71749Y42153D01*
G01X71690Y42146D01*
G01X71639Y42134D01*
G01X71593Y42118D01*
G01X71554Y42096D01*
G01X71521Y42070D01*
G01X71493Y42039D01*
G01X71471Y42003D01*
G01X71455Y41962D01*
G01X71443Y41917D01*
G01X71436Y41866D01*
G01X71434Y41810D01*
G01X71438Y41727D01*
G01X71453Y41650D01*
G01X71476Y41582D01*
G01X71507Y41521D01*
G01X71547Y41471D01*
G01X71593Y41429D01*
G01X71648Y41398D01*
G01X71708Y41378D01*
G01X71744Y41387D01*
G01X71770Y41407D01*
G01X71786Y41437D01*
G01X71792Y41477D01*
G01X71786Y41517D01*
G01X71767Y41548D01*
G01X71735Y41572D01*
G01X71690Y41589D01*
G01X71538Y41632D01*
G01X71529Y41666D01*
G01X71523Y41698D01*
G01X71519Y41729D01*
G01X71518Y41759D01*
G01X71521Y41811D01*
G01X71530Y41856D01*
G01X71548Y41893D01*
G01X71574Y41922D01*
G01X71611Y41945D01*
G01X71659Y41960D01*
G01X71720Y41969D01*
G01X71795Y41972D01*
G01X71863Y41972D01*
G01X71880Y41904D01*
G01X71898Y41836D01*
G01X71918Y41773D01*
G01X71937Y41716D01*
G01X71975Y41616D01*
G01X72014Y41535D01*
G01X72053Y41471D01*
G01X72093Y41422D01*
G01X72135Y41387D01*
G01X72179Y41364D01*
G01X72225Y41352D01*
G01X72275Y41348D01*
G01X72337Y41354D01*
G01X72392Y41371D01*
G01X72439Y41398D01*
G01X72477Y41434D01*
G01X72507Y41478D01*
G01X72529Y41527D01*
G01X72542Y41583D01*
G01X72546Y41642D01*
G01X72544Y41690D01*
G01X72535Y41734D01*
G01X72522Y41774D01*
G01X72502Y41813D01*
G01X72477Y41852D01*
G01X72447Y41891D01*
G01X72411Y41931D01*
G01X72369Y41975D01*
G01X72441Y41998D01*
G01X72496Y42040D01*
G01X72532Y42099D01*
G01X72544Y42176D01*
G01X72538Y42231D01*
G01X72518Y42280D01*
G01X72483Y42326D01*
G37*

%LPC*%
G36*
G01X72287Y41972D02*
G01X71934Y41972D01*
G01X71951Y41913D01*
G01X71968Y41857D01*
G01X71986Y41808D01*
G01X72000Y41767D01*
G01X72029Y41701D01*
G01X72059Y41648D01*
G01X72090Y41608D01*
G01X72120Y41578D01*
G01X72151Y41557D01*
G01X72183Y41544D01*
G01X72214Y41538D01*
G01X72244Y41536D01*
G01X72321Y41549D01*
G01X72375Y41588D01*
G01X72407Y41646D01*
G01X72417Y41718D01*
G01X72410Y41774D01*
G01X72388Y41828D01*
G01X72348Y41891D01*
G01X72287Y41972D01*
G37*

%LPD*%
G36*
G01X72483Y41191D02*
G01X72430Y41231D01*
G01X72386Y41190D01*
G01X72410Y41170D01*
G01X72428Y41150D01*
G01X72439Y41127D01*
G01X72442Y41101D01*
G01X72435Y41067D01*
G01X72410Y41041D01*
G01X72366Y41026D01*
G01X72300Y41020D01*
G01X71815Y41020D01*
G01X71749Y41017D01*
G01X71690Y41011D01*
G01X71639Y40999D01*
G01X71593Y40982D01*
G01X71554Y40961D01*
G01X71521Y40935D01*
G01X71493Y40904D01*
G01X71471Y40868D01*
G01X71455Y40827D01*
G01X71443Y40781D01*
G01X71436Y40730D01*
G01X71434Y40675D01*
G01X71438Y40592D01*
G01X71453Y40517D01*
G01X71476Y40448D01*
G01X71507Y40389D01*
G01X71547Y40338D01*
G01X71593Y40296D01*
G01X71648Y40265D01*
G01X71708Y40245D01*
G01X71744Y40254D01*
G01X71770Y40274D01*
G01X71786Y40304D01*
G01X71792Y40344D01*
G01X71786Y40383D01*
G01X71767Y40414D01*
G01X71735Y40439D01*
G01X71690Y40456D01*
G01X71538Y40499D01*
G01X71529Y40533D01*
G01X71523Y40564D01*
G01X71519Y40595D01*
G01X71518Y40624D01*
G01X71521Y40676D01*
G01X71530Y40720D01*
G01X71548Y40757D01*
G01X71574Y40787D01*
G01X71611Y40809D01*
G01X71659Y40825D01*
G01X71720Y40834D01*
G01X71795Y40837D01*
G01X71863Y40837D01*
G01X71880Y40770D01*
G01X71898Y40702D01*
G01X71918Y40638D01*
G01X71937Y40581D01*
G01X71975Y40481D01*
G01X72014Y40401D01*
G01X72053Y40338D01*
G01X72093Y40289D01*
G01X72135Y40254D01*
G01X72179Y40231D01*
G01X72225Y40219D01*
G01X72275Y40215D01*
G01X72337Y40221D01*
G01X72392Y40238D01*
G01X72439Y40265D01*
G01X72477Y40301D01*
G01X72507Y40345D01*
G01X72529Y40395D01*
G01X72542Y40450D01*
G01X72546Y40509D01*
G01X72544Y40557D01*
G01X72535Y40600D01*
G01X72522Y40640D01*
G01X72502Y40680D01*
G01X72477Y40718D01*
G01X72447Y40757D01*
G01X72411Y40798D01*
G01X72369Y40842D01*
G01X72441Y40865D01*
G01X72496Y40907D01*
G01X72532Y40966D01*
G01X72544Y41040D01*
G01X72538Y41096D01*
G01X72518Y41146D01*
G01X72483Y41191D01*
G37*

%LPC*%
G36*
G01X72287Y40837D02*
G01X71934Y40837D01*
G01X71951Y40779D01*
G01X71968Y40724D01*
G01X71986Y40674D01*
G01X72000Y40631D01*
G01X72029Y40566D01*
G01X72059Y40514D01*
G01X72090Y40474D01*
G01X72120Y40444D01*
G01X72151Y40424D01*
G01X72183Y40411D01*
G01X72214Y40405D01*
G01X72244Y40403D01*
G01X72321Y40416D01*
G01X72375Y40454D01*
G01X72407Y40511D01*
G01X72417Y40583D01*
G01X72410Y40638D01*
G01X72388Y40693D01*
G01X72348Y40756D01*
G01X72287Y40837D01*
G37*

%LPD*%
G36*
G01X71580Y40116D02*
G01X71518Y40123D01*
G01X71482Y40096D01*
G01X71456Y40058D01*
G01X71440Y40012D01*
G01X71434Y39961D01*
G01X71439Y39915D01*
G01X71453Y39869D01*
G01X71477Y39824D01*
G01X71510Y39780D01*
G01X71551Y39739D01*
G01X71601Y39700D01*
G01X71658Y39666D01*
G01X71723Y39636D01*
G01X71457Y39615D01*
G01X71436Y39585D01*
G01X71558Y39270D01*
G01X71624Y39270D01*
G01X71642Y39448D01*
G01X71708Y39451D01*
G01X71775Y39452D01*
G01X71848Y39453D01*
G01X72138Y39453D01*
G01X72235Y39452D01*
G01X72334Y39452D01*
G01X72425Y39450D01*
G01X72450Y39288D01*
G01X72519Y39288D01*
G01X72519Y39829D01*
G01X72450Y39829D01*
G01X72422Y39643D01*
G01X72332Y39641D01*
G01X72234Y39640D01*
G01X72138Y39639D01*
G01X72051Y39638D01*
G01X71876Y39638D01*
G01X71783Y39674D01*
G01X71704Y39716D01*
G01X71637Y39769D01*
G01X71581Y39831D01*
G01X71607Y39859D01*
G01X71633Y39890D01*
G01X71653Y39923D01*
G01X71666Y39958D01*
G01X71670Y39996D01*
G01X71659Y40054D01*
G01X71628Y40093D01*
G01X71580Y40116D01*
G37*

%LPD*%
G36*
G01X72519Y39176D02*
G01X72442Y39176D01*
G01X72422Y39001D01*
G01X71020Y38521D01*
G01X71020Y38391D01*
G01X72412Y37919D01*
G01X72442Y37736D01*
G01X72519Y37736D01*
G01X72519Y38234D01*
G01X72442Y38234D01*
G01X72412Y38015D01*
G01X72026Y38142D01*
G01X72026Y38660D01*
G01X72414Y38790D01*
G01X72442Y38569D01*
G01X72519Y38569D01*
G01X72519Y39176D01*
G37*

%LPC*%
G36*
G01X71937Y38173D02*
G01X71937Y38630D01*
G01X71246Y38399D01*
G01X71937Y38173D01*
G37*

%LPD*%

%LPD*%
G36*
G01X68839Y66352D02*
G01X68808Y66389D01*
G01X68698Y66318D01*
G01X68742Y66261D01*
G01X68777Y66197D01*
G01X68801Y66127D01*
G01X68810Y66052D01*
G01X68807Y66000D01*
G01X68796Y65952D01*
G01X68779Y65907D01*
G01X68755Y65866D01*
G01X68725Y65829D01*
G01X68690Y65796D01*
G01X68650Y65767D01*
G01X68603Y65743D01*
G01X68553Y65724D01*
G01X68498Y65710D01*
G01X68439Y65702D01*
G01X68376Y65699D01*
G01X68312Y65702D01*
G01X68252Y65711D01*
G01X68197Y65726D01*
G01X68146Y65746D01*
G01X68099Y65771D01*
G01X68058Y65800D01*
G01X68022Y65834D01*
G01X67992Y65872D01*
G01X67968Y65913D01*
G01X67951Y65957D01*
G01X67940Y66004D01*
G01X67936Y66054D01*
G01X67943Y66119D01*
G01X67964Y66178D01*
G01X67996Y66232D01*
G01X68038Y66283D01*
G01X67929Y66369D01*
G01X67878Y66307D01*
G01X67836Y66235D01*
G01X67807Y66150D01*
G01X67797Y66049D01*
G01X67799Y65997D01*
G01X67806Y65947D01*
G01X67818Y65897D01*
G01X67835Y65849D01*
G01X67857Y65804D01*
G01X67883Y65761D01*
G01X67913Y65720D01*
G01X67948Y65683D01*
G01X67987Y65648D01*
G01X68031Y65618D01*
G01X68078Y65591D01*
G01X68130Y65569D01*
G01X68186Y65550D01*
G01X68245Y65537D01*
G01X68309Y65529D01*
G01X68376Y65526D01*
G01X68442Y65528D01*
G01X68504Y65536D01*
G01X68563Y65548D01*
G01X68617Y65566D01*
G01X68668Y65586D01*
G01X68715Y65612D01*
G01X68758Y65641D01*
G01X68797Y65674D01*
G01X68831Y65710D01*
G01X68861Y65749D01*
G01X68887Y65791D01*
G01X68909Y65836D01*
G01X68925Y65883D01*
G01X68938Y65932D01*
G01X68945Y65984D01*
G01X68947Y66036D01*
G01X68945Y66086D01*
G01X68938Y66135D01*
G01X68926Y66182D01*
G01X68911Y66227D01*
G01X68891Y66271D01*
G01X68867Y66313D01*
G01X68839Y66352D01*
G37*

%LPD*%
G36*
G01X68922Y65231D02*
G01X67825Y65231D01*
G01X67825Y65066D01*
G01X68922Y65066D01*
G01X68922Y65231D01*
G37*

%LPD*%
G36*
G01X67522Y65260D02*
G01X67477Y65269D01*
G01X67429Y65260D01*
G01X67393Y65233D01*
G01X67370Y65195D01*
G01X67362Y65150D01*
G01X67370Y65101D01*
G01X67393Y65063D01*
G01X67429Y65037D01*
G01X67477Y65028D01*
G01X67522Y65037D01*
G01X67557Y65063D01*
G01X67580Y65101D01*
G01X67588Y65150D01*
G01X67580Y65195D01*
G01X67557Y65233D01*
G01X67522Y65260D01*
G37*

%LPD*%
G36*
G01X68922Y64665D02*
G01X67433Y64665D01*
G01X67433Y64459D01*
G01X68246Y64167D01*
G01X68406Y64117D01*
G01X68485Y64091D01*
G01X68564Y64063D01*
G01X68564Y64053D01*
G01X68485Y64026D01*
G01X68326Y63972D01*
G01X68246Y63946D01*
G01X67433Y63654D01*
G01X67433Y63446D01*
G01X68922Y63446D01*
G01X68922Y63598D01*
G01X68014Y63598D01*
G01X67961Y63596D01*
G01X67905Y63593D01*
G01X67848Y63591D01*
G01X67792Y63587D01*
G01X67736Y63584D01*
G01X67682Y63581D01*
G01X67632Y63578D01*
G01X67632Y63585D01*
G01X67969Y63705D01*
G01X68769Y63997D01*
G01X68769Y64114D01*
G01X67969Y64403D01*
G01X67632Y64520D01*
G01X67632Y64530D01*
G01X67682Y64527D01*
G01X67736Y64523D01*
G01X67792Y64520D01*
G01X67905Y64513D01*
G01X67961Y64511D01*
G01X68014Y64510D01*
G01X68922Y64510D01*
G01X68922Y64665D01*
G37*

%LPD*%
G36*
G01X68236Y63161D02*
G01X68114Y63161D01*
G01X68114Y62750D01*
G01X67667Y62750D01*
G01X67667Y62613D01*
G01X68114Y62613D01*
G01X68114Y62201D01*
G01X68236Y62201D01*
G01X68236Y62613D01*
G01X68683Y62613D01*
G01X68683Y62750D01*
G01X68236Y62750D01*
G01X68236Y63161D01*
G37*

%LPD*%
G36*
G01X67964Y62097D02*
G01X67820Y62130D01*
G01X67808Y62102D01*
G01X67801Y62075D01*
G01X67798Y62046D01*
G01X67797Y62013D01*
G01X67801Y61967D01*
G01X67813Y61923D01*
G01X67833Y61880D01*
G01X67860Y61839D01*
G01X67893Y61801D01*
G01X67932Y61765D01*
G01X67976Y61733D01*
G01X68025Y61703D01*
G01X68025Y61696D01*
G01X67825Y61680D01*
G01X67825Y61546D01*
G01X68922Y61546D01*
G01X68922Y61711D01*
G01X68206Y61711D01*
G01X68140Y61741D01*
G01X68085Y61774D01*
G01X68040Y61809D01*
G01X68004Y61845D01*
G01X67979Y61883D01*
G01X67960Y61920D01*
G01X67950Y61957D01*
G01X67947Y61993D01*
G01X67948Y62022D01*
G01X67951Y62048D01*
G01X67956Y62071D01*
G01X67964Y62097D01*
G37*

%LPD*%
G36*
G01X68338Y61268D02*
G01X68310Y61269D01*
G01X68233Y61265D01*
G01X68161Y61256D01*
G01X68096Y61239D01*
G01X68035Y61217D01*
G01X67982Y61189D01*
G01X67934Y61155D01*
G01X67893Y61114D01*
G01X67859Y61069D01*
G01X67832Y61018D01*
G01X67813Y60962D01*
G01X67801Y60901D01*
G01X67797Y60835D01*
G01X67799Y60788D01*
G01X67807Y60741D01*
G01X67820Y60696D01*
G01X67837Y60652D01*
G01X67859Y60609D01*
G01X67886Y60569D01*
G01X67917Y60531D01*
G01X67952Y60495D01*
G01X67992Y60463D01*
G01X68035Y60433D01*
G01X68083Y60407D01*
G01X68134Y60385D01*
G01X68189Y60368D01*
G01X68248Y60355D01*
G01X68310Y60347D01*
G01X68376Y60344D01*
G01X68441Y60347D01*
G01X68503Y60355D01*
G01X68562Y60368D01*
G01X68616Y60385D01*
G01X68667Y60407D01*
G01X68714Y60433D01*
G01X68757Y60463D01*
G01X68796Y60497D01*
G01X68830Y60534D01*
G01X68861Y60574D01*
G01X68887Y60617D01*
G01X68908Y60662D01*
G01X68925Y60711D01*
G01X68938Y60760D01*
G01X68945Y60812D01*
G01X68947Y60865D01*
G01X68945Y60920D01*
G01X68939Y60972D01*
G01X68928Y61020D01*
G01X68914Y61066D01*
G01X68897Y61109D01*
G01X68879Y61150D01*
G01X68858Y61189D01*
G01X68836Y61226D01*
G01X68726Y61165D01*
G01X68764Y61102D01*
G01X68792Y61036D01*
G01X68809Y60964D01*
G01X68815Y60885D01*
G01X68812Y60832D01*
G01X68802Y60782D01*
G01X68786Y60736D01*
G01X68764Y60693D01*
G01X68736Y60654D01*
G01X68703Y60619D01*
G01X68665Y60589D01*
G01X68623Y60563D01*
G01X68575Y60542D01*
G01X68524Y60526D01*
G01X68468Y60515D01*
G01X68409Y60509D01*
G01X68409Y61259D01*
G01X68388Y61263D01*
G01X68364Y61267D01*
G01X68338Y61268D01*
G37*

%LPC*%
G36*
G01X68289Y60507D02*
G01X68289Y61122D01*
G01X68206Y61116D01*
G01X68134Y61102D01*
G01X68072Y61078D01*
G01X68022Y61046D01*
G01X67983Y61005D01*
G01X67954Y60956D01*
G01X67937Y60901D01*
G01X67931Y60837D01*
G01X67937Y60777D01*
G01X67956Y60720D01*
G01X67985Y60667D01*
G01X68026Y60620D01*
G01X68077Y60578D01*
G01X68138Y60545D01*
G01X68209Y60521D01*
G01X68289Y60507D01*
G37*

%LPD*%
G36*
G01X68922Y60202D02*
G01X68785Y60202D01*
G01X68785Y59587D01*
G01X67911Y60182D01*
G01X67825Y60182D01*
G01X67825Y59443D01*
G01X67962Y59443D01*
G01X67962Y59971D01*
G01X68833Y59379D01*
G01X68922Y59379D01*
G01X68922Y60202D01*
G37*

%LPD*%
G36*
G01X68922Y59250D02*
G01X68785Y59250D01*
G01X68785Y58637D01*
G01X67911Y59232D01*
G01X67825Y59232D01*
G01X67825Y58493D01*
G01X67962Y58493D01*
G01X67962Y59021D01*
G01X68833Y58427D01*
G01X68922Y58427D01*
G01X68922Y59250D01*
G37*

%LPD*%
G36*
G01X68922Y58168D02*
G01X67825Y58168D01*
G01X67825Y58002D01*
G01X68612Y58002D01*
G01X68658Y57962D01*
G01X68698Y57924D01*
G01X68731Y57887D01*
G01X68758Y57851D01*
G01X68779Y57813D01*
G01X68793Y57775D01*
G01X68802Y57735D01*
G01X68805Y57693D01*
G01X68801Y57640D01*
G01X68787Y57594D01*
G01X68765Y57557D01*
G01X68733Y57527D01*
G01X68691Y57505D01*
G01X68638Y57489D01*
G01X68574Y57480D01*
G01X68500Y57477D01*
G01X67825Y57477D01*
G01X67825Y57312D01*
G01X68521Y57312D01*
G01X68588Y57314D01*
G01X68650Y57320D01*
G01X68706Y57331D01*
G01X68757Y57347D01*
G01X68801Y57367D01*
G01X68840Y57392D01*
G01X68873Y57422D01*
G01X68900Y57456D01*
G01X68920Y57496D01*
G01X68935Y57540D01*
G01X68944Y57590D01*
G01X68947Y57644D01*
G01X68944Y57700D01*
G01X68933Y57751D01*
G01X68915Y57800D01*
G01X68892Y57845D01*
G01X68862Y57889D01*
G01X68828Y57930D01*
G01X68790Y57971D01*
G01X68747Y58010D01*
G01X68747Y58018D01*
G01X68922Y58030D01*
G01X68922Y58168D01*
G37*

%LPD*%
G36*
G01X68540Y57040D02*
G01X68488Y57042D01*
G01X68415Y57037D01*
G01X68351Y57020D01*
G01X68294Y56993D01*
G01X68246Y56957D01*
G01X68205Y56913D01*
G01X68172Y56860D01*
G01X68147Y56800D01*
G01X68129Y56735D01*
G01X68122Y56735D01*
G01X68100Y56785D01*
G01X68072Y56829D01*
G01X68037Y56868D01*
G01X67998Y56899D01*
G01X67953Y56923D01*
G01X67905Y56941D01*
G01X67854Y56952D01*
G01X67799Y56956D01*
G01X67738Y56952D01*
G01X67682Y56939D01*
G01X67633Y56919D01*
G01X67589Y56891D01*
G01X67551Y56857D01*
G01X67519Y56815D01*
G01X67492Y56767D01*
G01X67471Y56714D01*
G01X67454Y56655D01*
G01X67443Y56591D01*
G01X67436Y56522D01*
G01X67433Y56448D01*
G01X67433Y56016D01*
G01X68922Y56016D01*
G01X68922Y56481D01*
G01X68920Y56542D01*
G01X68915Y56601D01*
G01X68907Y56656D01*
G01X68895Y56709D01*
G01X68880Y56759D01*
G01X68861Y56805D01*
G01X68839Y56847D01*
G01X68813Y56886D01*
G01X68785Y56921D01*
G01X68752Y56952D01*
G01X68717Y56979D01*
G01X68678Y57001D01*
G01X68635Y57019D01*
G01X68589Y57032D01*
G01X68540Y57040D01*
G37*

%LPC*%
G36*
G01X67875Y56783D02*
G01X67820Y56788D01*
G01X67756Y56783D01*
G01X67703Y56765D01*
G01X67659Y56737D01*
G01X67625Y56697D01*
G01X67600Y56646D01*
G01X67582Y56583D01*
G01X67572Y56508D01*
G01X67568Y56423D01*
G01X67568Y56186D01*
G01X68074Y56186D01*
G01X68074Y56412D01*
G01X68069Y56506D01*
G01X68056Y56585D01*
G01X68034Y56650D01*
G01X68004Y56701D01*
G01X67968Y56741D01*
G01X67925Y56767D01*
G01X67875Y56783D01*
G37*
G36*
G01X68531Y56876D02*
G01X68480Y56880D01*
G01X68435Y56877D01*
G01X68394Y56867D01*
G01X68356Y56851D01*
G01X68323Y56829D01*
G01X68295Y56802D01*
G01X68270Y56768D01*
G01X68249Y56729D01*
G01X68233Y56685D01*
G01X68220Y56634D01*
G01X68210Y56579D01*
G01X68205Y56519D01*
G01X68203Y56453D01*
G01X68203Y56186D01*
G01X68787Y56186D01*
G01X68787Y56453D01*
G01X68785Y56517D01*
G01X68779Y56576D01*
G01X68769Y56631D01*
G01X68755Y56681D01*
G01X68736Y56726D01*
G01X68714Y56765D01*
G01X68686Y56799D01*
G01X68655Y56828D01*
G01X68618Y56850D01*
G01X68577Y56867D01*
G01X68531Y56876D01*
G37*

%LPD*%
G36*
G01X68236Y55732D02*
G01X68114Y55732D01*
G01X68114Y55320D01*
G01X67667Y55320D01*
G01X67667Y55183D01*
G01X68114Y55183D01*
G01X68114Y54772D01*
G01X68236Y54772D01*
G01X68236Y55183D01*
G01X68683Y55183D01*
G01X68683Y55320D01*
G01X68236Y55320D01*
G01X68236Y55732D01*
G37*

%LPD*%
G36*
G01X68241Y54572D02*
G01X68173Y54573D01*
G01X68104Y54572D01*
G01X68038Y54566D01*
G01X67976Y54558D01*
G01X67917Y54545D01*
G01X67860Y54529D01*
G01X67807Y54510D01*
G01X67757Y54487D01*
G01X67711Y54461D01*
G01X67668Y54431D01*
G01X67628Y54398D01*
G01X67591Y54362D01*
G01X67559Y54321D01*
G01X67530Y54278D01*
G01X67505Y54232D01*
G01X67483Y54181D01*
G01X67465Y54128D01*
G01X67452Y54071D01*
G01X67442Y54011D01*
G01X67435Y53947D01*
G01X67433Y53880D01*
G01X67433Y53514D01*
G01X68922Y53514D01*
G01X68922Y53885D01*
G01X68920Y53951D01*
G01X68914Y54014D01*
G01X68903Y54074D01*
G01X68889Y54130D01*
G01X68871Y54183D01*
G01X68848Y54233D01*
G01X68822Y54280D01*
G01X68793Y54322D01*
G01X68759Y54363D01*
G01X68723Y54399D01*
G01X68682Y54432D01*
G01X68638Y54461D01*
G01X68591Y54488D01*
G01X68540Y54510D01*
G01X68487Y54529D01*
G01X68430Y54545D01*
G01X68370Y54558D01*
G01X68307Y54566D01*
G01X68241Y54572D01*
G37*

%LPC*%
G36*
G01X68242Y54399D02*
G01X68173Y54401D01*
G01X68103Y54399D01*
G01X68037Y54393D01*
G01X67976Y54382D01*
G01X67918Y54368D01*
G01X67865Y54349D01*
G01X67815Y54327D01*
G01X67771Y54300D01*
G01X67730Y54269D01*
G01X67694Y54234D01*
G01X67663Y54194D01*
G01X67636Y54150D01*
G01X67613Y54101D01*
G01X67596Y54049D01*
G01X67583Y53992D01*
G01X67576Y53931D01*
G01X67573Y53865D01*
G01X67573Y53682D01*
G01X68785Y53682D01*
G01X68785Y53865D01*
G01X68782Y53931D01*
G01X68774Y53992D01*
G01X68761Y54049D01*
G01X68743Y54101D01*
G01X68719Y54150D01*
G01X68691Y54194D01*
G01X68658Y54234D01*
G01X68621Y54269D01*
G01X68579Y54300D01*
G01X68533Y54327D01*
G01X68482Y54349D01*
G01X68428Y54368D01*
G01X68370Y54382D01*
G01X68308Y54393D01*
G01X68242Y54399D01*
G37*

%LPD*%
G36*
G01X68922Y53197D02*
G01X68780Y53197D01*
G01X68780Y52496D01*
G01X68208Y52496D01*
G01X68208Y53067D01*
G01X68066Y53067D01*
G01X68066Y52496D01*
G01X67576Y52496D01*
G01X67576Y53174D01*
G01X67433Y53174D01*
G01X67433Y52328D01*
G01X68922Y52328D01*
G01X68922Y53197D01*
G37*

%LPD*%
G36*
G01X68922Y52064D02*
G01X68780Y52064D01*
G01X68780Y51406D01*
G01X67433Y51406D01*
G01X67433Y51238D01*
G01X68922Y51238D01*
G01X68922Y52064D01*
G37*

%LPD*%
G36*
G01X68243Y50909D02*
G01X68173Y50911D01*
G01X68103Y50909D01*
G01X68036Y50903D01*
G01X67972Y50894D01*
G01X67911Y50881D01*
G01X67853Y50864D01*
G01X67798Y50845D01*
G01X67746Y50822D01*
G01X67698Y50796D01*
G01X67653Y50767D01*
G01X67612Y50735D01*
G01X67575Y50700D01*
G01X67541Y50663D01*
G01X67510Y50623D01*
G01X67483Y50581D01*
G01X67461Y50536D01*
G01X67442Y50489D01*
G01X67427Y50440D01*
G01X67417Y50389D01*
G01X67410Y50336D01*
G01X67408Y50281D01*
G01X67410Y50226D01*
G01X67417Y50174D01*
G01X67427Y50123D01*
G01X67442Y50074D01*
G01X67461Y50027D01*
G01X67483Y49983D01*
G01X67510Y49940D01*
G01X67541Y49901D01*
G01X67575Y49864D01*
G01X67612Y49829D01*
G01X67653Y49797D01*
G01X67698Y49768D01*
G01X67746Y49742D01*
G01X67798Y49719D01*
G01X67853Y49700D01*
G01X67911Y49683D01*
G01X67972Y49670D01*
G01X68036Y49661D01*
G01X68103Y49655D01*
G01X68173Y49653D01*
G01X68243Y49655D01*
G01X68310Y49661D01*
G01X68374Y49670D01*
G01X68436Y49683D01*
G01X68494Y49700D01*
G01X68550Y49719D01*
G01X68602Y49742D01*
G01X68651Y49768D01*
G01X68696Y49797D01*
G01X68738Y49829D01*
G01X68777Y49864D01*
G01X68812Y49901D01*
G01X68843Y49940D01*
G01X68870Y49983D01*
G01X68893Y50027D01*
G01X68912Y50074D01*
G01X68927Y50123D01*
G01X68939Y50174D01*
G01X68945Y50226D01*
G01X68947Y50281D01*
G01X68945Y50336D01*
G01X68939Y50389D01*
G01X68927Y50440D01*
G01X68912Y50489D01*
G01X68893Y50536D01*
G01X68870Y50581D01*
G01X68843Y50623D01*
G01X68812Y50663D01*
G01X68777Y50700D01*
G01X68738Y50735D01*
G01X68696Y50767D01*
G01X68651Y50796D01*
G01X68602Y50822D01*
G01X68550Y50845D01*
G01X68494Y50864D01*
G01X68436Y50881D01*
G01X68374Y50894D01*
G01X68310Y50903D01*
G01X68243Y50909D01*
G37*

%LPC*%
G36*
G01X68243Y50736D02*
G01X68173Y50738D01*
G01X68103Y50736D01*
G01X68037Y50730D01*
G01X67974Y50720D01*
G01X67916Y50705D01*
G01X67861Y50688D01*
G01X67810Y50666D01*
G01X67763Y50641D01*
G01X67721Y50613D01*
G01X67683Y50582D01*
G01X67650Y50547D01*
G01X67622Y50509D01*
G01X67598Y50469D01*
G01X67580Y50426D01*
G01X67567Y50380D01*
G01X67558Y50332D01*
G01X67555Y50281D01*
G01X67558Y50231D01*
G01X67567Y50183D01*
G01X67580Y50137D01*
G01X67598Y50094D01*
G01X67622Y50054D01*
G01X67650Y50017D01*
G01X67683Y49982D01*
G01X67721Y49951D01*
G01X67763Y49923D01*
G01X67810Y49898D01*
G01X67861Y49876D01*
G01X67916Y49859D01*
G01X67974Y49844D01*
G01X68037Y49834D01*
G01X68103Y49828D01*
G01X68173Y49826D01*
G01X68243Y49828D01*
G01X68309Y49834D01*
G01X68372Y49844D01*
G01X68431Y49859D01*
G01X68487Y49876D01*
G01X68538Y49898D01*
G01X68586Y49923D01*
G01X68629Y49951D01*
G01X68668Y49982D01*
G01X68702Y50017D01*
G01X68731Y50054D01*
G01X68756Y50094D01*
G01X68775Y50137D01*
G01X68789Y50183D01*
G01X68797Y50231D01*
G01X68800Y50281D01*
G01X68797Y50332D01*
G01X68789Y50380D01*
G01X68775Y50426D01*
G01X68756Y50469D01*
G01X68731Y50509D01*
G01X68702Y50547D01*
G01X68668Y50582D01*
G01X68629Y50613D01*
G01X68586Y50641D01*
G01X68538Y50666D01*
G01X68487Y50688D01*
G01X68431Y50705D01*
G01X68372Y50720D01*
G01X68309Y50730D01*
G01X68243Y50736D01*
G37*

%LPD*%
G36*
G01X68236Y49455D02*
G01X68114Y49455D01*
G01X68114Y49044D01*
G01X67667Y49044D01*
G01X67667Y48907D01*
G01X68114Y48907D01*
G01X68114Y48495D01*
G01X68236Y48495D01*
G01X68236Y48907D01*
G01X68683Y48907D01*
G01X68683Y49044D01*
G01X68236Y49044D01*
G01X68236Y49455D01*
G37*

%LPD*%
G36*
G01X68442Y48310D02*
G01X68376Y48312D01*
G01X68309Y48310D01*
G01X68245Y48302D01*
G01X68186Y48288D01*
G01X68130Y48271D01*
G01X68078Y48249D01*
G01X68031Y48223D01*
G01X67987Y48193D01*
G01X67948Y48159D01*
G01X67913Y48123D01*
G01X67883Y48084D01*
G01X67857Y48042D01*
G01X67835Y47998D01*
G01X67818Y47953D01*
G01X67806Y47905D01*
G01X67799Y47857D01*
G01X67797Y47807D01*
G01X67799Y47757D01*
G01X67806Y47708D01*
G01X67818Y47660D01*
G01X67835Y47614D01*
G01X67857Y47570D01*
G01X67883Y47528D01*
G01X67913Y47489D01*
G01X67948Y47453D01*
G01X67987Y47420D01*
G01X68031Y47390D01*
G01X68078Y47364D01*
G01X68130Y47343D01*
G01X68186Y47325D01*
G01X68245Y47312D01*
G01X68309Y47304D01*
G01X68376Y47301D01*
G01X68442Y47304D01*
G01X68504Y47312D01*
G01X68563Y47325D01*
G01X68617Y47343D01*
G01X68668Y47364D01*
G01X68715Y47390D01*
G01X68758Y47420D01*
G01X68797Y47453D01*
G01X68831Y47489D01*
G01X68861Y47528D01*
G01X68887Y47570D01*
G01X68909Y47614D01*
G01X68925Y47660D01*
G01X68938Y47708D01*
G01X68945Y47757D01*
G01X68947Y47807D01*
G01X68945Y47857D01*
G01X68938Y47905D01*
G01X68925Y47953D01*
G01X68909Y47998D01*
G01X68887Y48042D01*
G01X68861Y48084D01*
G01X68831Y48123D01*
G01X68797Y48159D01*
G01X68758Y48193D01*
G01X68715Y48223D01*
G01X68668Y48249D01*
G01X68617Y48271D01*
G01X68563Y48288D01*
G01X68504Y48302D01*
G01X68442Y48310D01*
G37*

%LPC*%
G36*
G01X68439Y48139D02*
G01X68376Y48142D01*
G01X68312Y48139D01*
G01X68252Y48131D01*
G01X68197Y48117D01*
G01X68146Y48098D01*
G01X68099Y48076D01*
G01X68058Y48048D01*
G01X68022Y48016D01*
G01X67992Y47981D01*
G01X67968Y47942D01*
G01X67951Y47900D01*
G01X67940Y47855D01*
G01X67936Y47807D01*
G01X67940Y47759D01*
G01X67951Y47713D01*
G01X67968Y47671D01*
G01X67992Y47632D01*
G01X68022Y47597D01*
G01X68058Y47565D01*
G01X68099Y47538D01*
G01X68146Y47514D01*
G01X68197Y47496D01*
G01X68252Y47483D01*
G01X68312Y47475D01*
G01X68376Y47472D01*
G01X68439Y47475D01*
G01X68498Y47483D01*
G01X68553Y47496D01*
G01X68603Y47514D01*
G01X68650Y47538D01*
G01X68690Y47565D01*
G01X68725Y47597D01*
G01X68755Y47632D01*
G01X68779Y47671D01*
G01X68796Y47713D01*
G01X68807Y47759D01*
G01X68810Y47807D01*
G01X68807Y47855D01*
G01X68796Y47900D01*
G01X68779Y47942D01*
G01X68755Y47981D01*
G01X68725Y48016D01*
G01X68690Y48048D01*
G01X68650Y48076D01*
G01X68603Y48098D01*
G01X68553Y48117D01*
G01X68498Y48131D01*
G01X68439Y48139D01*
G37*

%LPD*%
G36*
G01X68921Y47149D02*
G01X68907Y47197D01*
G01X68785Y47164D01*
G01X68794Y47134D01*
G01X68804Y47100D01*
G01X68810Y47067D01*
G01X68813Y47035D01*
G01X68798Y46952D01*
G01X68755Y46899D01*
G01X68687Y46871D01*
G01X68597Y46862D01*
G01X67962Y46862D01*
G01X67962Y47167D01*
G01X67825Y47167D01*
G01X67825Y46862D01*
G01X67515Y46862D01*
G01X67515Y46722D01*
G01X67825Y46704D01*
G01X67835Y46532D01*
G01X67962Y46532D01*
G01X67962Y46699D01*
G01X68592Y46699D01*
G01X68668Y46703D01*
G01X68737Y46714D01*
G01X68798Y46734D01*
G01X68850Y46764D01*
G01X68891Y46805D01*
G01X68922Y46857D01*
G01X68941Y46922D01*
G01X68947Y47002D01*
G01X68944Y47049D01*
G01X68935Y47100D01*
G01X68921Y47149D01*
G37*

%LPD*%
G36*
G01X68442Y46402D02*
G01X68376Y46405D01*
G01X68309Y46402D01*
G01X68245Y46394D01*
G01X68186Y46381D01*
G01X68130Y46364D01*
G01X68078Y46342D01*
G01X68031Y46316D01*
G01X67987Y46286D01*
G01X67948Y46253D01*
G01X67913Y46217D01*
G01X67883Y46178D01*
G01X67857Y46136D01*
G01X67835Y46092D01*
G01X67818Y46046D01*
G01X67806Y45998D01*
G01X67799Y45950D01*
G01X67797Y45899D01*
G01X67799Y45850D01*
G01X67806Y45801D01*
G01X67818Y45754D01*
G01X67835Y45708D01*
G01X67857Y45665D01*
G01X67883Y45623D01*
G01X67913Y45584D01*
G01X67948Y45548D01*
G01X67987Y45515D01*
G01X68031Y45485D01*
G01X68078Y45459D01*
G01X68130Y45438D01*
G01X68186Y45420D01*
G01X68245Y45407D01*
G01X68309Y45399D01*
G01X68376Y45396D01*
G01X68442Y45399D01*
G01X68504Y45407D01*
G01X68563Y45420D01*
G01X68617Y45438D01*
G01X68668Y45459D01*
G01X68715Y45485D01*
G01X68758Y45515D01*
G01X68797Y45548D01*
G01X68831Y45584D01*
G01X68861Y45623D01*
G01X68887Y45665D01*
G01X68909Y45708D01*
G01X68925Y45754D01*
G01X68938Y45801D01*
G01X68945Y45850D01*
G01X68947Y45899D01*
G01X68945Y45950D01*
G01X68938Y45998D01*
G01X68925Y46046D01*
G01X68909Y46092D01*
G01X68887Y46136D01*
G01X68861Y46178D01*
G01X68831Y46217D01*
G01X68797Y46253D01*
G01X68758Y46286D01*
G01X68715Y46316D01*
G01X68668Y46342D01*
G01X68617Y46364D01*
G01X68563Y46381D01*
G01X68504Y46394D01*
G01X68442Y46402D01*
G37*

%LPC*%
G36*
G01X68439Y46232D02*
G01X68376Y46235D01*
G01X68312Y46232D01*
G01X68252Y46223D01*
G01X68197Y46210D01*
G01X68146Y46192D01*
G01X68099Y46169D01*
G01X68058Y46141D01*
G01X68022Y46110D01*
G01X67992Y46074D01*
G01X67968Y46035D01*
G01X67951Y45993D01*
G01X67940Y45948D01*
G01X67936Y45899D01*
G01X67940Y45852D01*
G01X67951Y45807D01*
G01X67968Y45765D01*
G01X67992Y45726D01*
G01X68022Y45691D01*
G01X68058Y45660D01*
G01X68099Y45632D01*
G01X68146Y45609D01*
G01X68197Y45591D01*
G01X68252Y45578D01*
G01X68312Y45570D01*
G01X68376Y45567D01*
G01X68439Y45570D01*
G01X68498Y45578D01*
G01X68553Y45591D01*
G01X68603Y45609D01*
G01X68650Y45632D01*
G01X68690Y45660D01*
G01X68725Y45691D01*
G01X68755Y45726D01*
G01X68779Y45765D01*
G01X68796Y45807D01*
G01X68807Y45852D01*
G01X68810Y45899D01*
G01X68807Y45948D01*
G01X68796Y45993D01*
G01X68779Y46035D01*
G01X68755Y46074D01*
G01X68725Y46110D01*
G01X68690Y46141D01*
G01X68650Y46169D01*
G01X68603Y46192D01*
G01X68553Y46210D01*
G01X68498Y46223D01*
G01X68439Y46232D01*
G37*

%LPD*%
G36*
G01X68922Y45120D02*
G01X68226Y45120D01*
G01X68158Y45117D01*
G01X68096Y45110D01*
G01X68040Y45099D01*
G01X67989Y45083D01*
G01X67944Y45063D01*
G01X67905Y45038D01*
G01X67872Y45008D01*
G01X67845Y44973D01*
G01X67824Y44933D01*
G01X67809Y44888D01*
G01X67800Y44839D01*
G01X67797Y44784D01*
G01X67801Y44730D01*
G01X67811Y44679D01*
G01X67829Y44630D01*
G01X67852Y44584D01*
G01X67879Y44540D01*
G01X67910Y44497D01*
G01X67945Y44456D01*
G01X67982Y44416D01*
G01X67753Y44424D01*
G01X67304Y44424D01*
G01X67304Y44258D01*
G01X68922Y44258D01*
G01X68922Y44424D01*
G01X68119Y44424D01*
G01X68078Y44464D01*
G01X68042Y44503D01*
G01X68012Y44541D01*
G01X67987Y44578D01*
G01X67967Y44615D01*
G01X67953Y44654D01*
G01X67944Y44694D01*
G01X67941Y44736D01*
G01X67946Y44789D01*
G01X67959Y44834D01*
G01X67982Y44871D01*
G01X68014Y44901D01*
G01X68056Y44924D01*
G01X68109Y44940D01*
G01X68172Y44949D01*
G01X68246Y44952D01*
G01X68922Y44952D01*
G01X68922Y45120D01*
G37*

%LPD*%
G36*
G01X67922Y43964D02*
G01X67865Y43966D01*
G01X67808Y43964D01*
G01X67755Y43956D01*
G01X67707Y43944D01*
G01X67663Y43927D01*
G01X67623Y43905D01*
G01X67588Y43879D01*
G01X67557Y43850D01*
G01X67529Y43815D01*
G01X67506Y43777D01*
G01X67486Y43735D01*
G01X67469Y43690D01*
G01X67456Y43641D01*
G01X67446Y43588D01*
G01X67439Y43533D01*
G01X67435Y43474D01*
G01X67433Y43413D01*
G01X67433Y43001D01*
G01X68922Y43001D01*
G01X68922Y43169D01*
G01X68320Y43169D01*
G01X68320Y43420D01*
G01X68318Y43480D01*
G01X68313Y43538D01*
G01X68305Y43592D01*
G01X68292Y43644D01*
G01X68277Y43692D01*
G01X68258Y43737D01*
G01X68235Y43778D01*
G01X68209Y43816D01*
G01X68179Y43850D01*
G01X68145Y43880D01*
G01X68108Y43906D01*
G01X68067Y43927D01*
G01X68022Y43944D01*
G01X67974Y43956D01*
G01X67922Y43964D01*
G37*

%LPC*%
G36*
G01X67918Y43796D02*
G01X67865Y43799D01*
G01X67812Y43796D01*
G01X67766Y43787D01*
G01X67725Y43773D01*
G01X67689Y43753D01*
G01X67659Y43727D01*
G01X67634Y43696D01*
G01X67614Y43659D01*
G01X67598Y43616D01*
G01X67585Y43567D01*
G01X67577Y43513D01*
G01X67572Y43453D01*
G01X67571Y43387D01*
G01X67571Y43169D01*
G01X68183Y43169D01*
G01X68183Y43397D01*
G01X68181Y43462D01*
G01X68175Y43521D01*
G01X68164Y43575D01*
G01X68150Y43622D01*
G01X68130Y43664D01*
G01X68107Y43700D01*
G01X68079Y43730D01*
G01X68046Y43755D01*
G01X68008Y43774D01*
G01X67965Y43788D01*
G01X67918Y43796D01*
G37*

%LPD*%
G36*
G01X68236Y42717D02*
G01X68114Y42717D01*
G01X68114Y42303D01*
G01X67667Y42303D01*
G01X67667Y42168D01*
G01X68114Y42168D01*
G01X68114Y41754D01*
G01X68236Y41754D01*
G01X68236Y42168D01*
G01X68683Y42168D01*
G01X68683Y42303D01*
G01X68236Y42303D01*
G01X68236Y42717D01*
G37*

%LPD*%
G36*
G01X68921Y41602D02*
G01X68907Y41650D01*
G01X68785Y41617D01*
G01X68794Y41586D01*
G01X68804Y41553D01*
G01X68810Y41519D01*
G01X68813Y41487D01*
G01X68798Y41405D01*
G01X68755Y41351D01*
G01X68687Y41323D01*
G01X68597Y41315D01*
G01X67962Y41315D01*
G01X67962Y41619D01*
G01X67825Y41619D01*
G01X67825Y41315D01*
G01X67515Y41315D01*
G01X67515Y41175D01*
G01X67825Y41157D01*
G01X67835Y40984D01*
G01X67962Y40984D01*
G01X67962Y41152D01*
G01X68592Y41152D01*
G01X68668Y41156D01*
G01X68737Y41167D01*
G01X68798Y41187D01*
G01X68850Y41217D01*
G01X68891Y41257D01*
G01X68922Y41310D01*
G01X68941Y41375D01*
G01X68947Y41454D01*
G01X68944Y41502D01*
G01X68935Y41552D01*
G01X68921Y41602D01*
G37*

%LPD*%
G36*
G01X68442Y40855D02*
G01X68376Y40857D01*
G01X68309Y40855D01*
G01X68245Y40847D01*
G01X68186Y40834D01*
G01X68130Y40816D01*
G01X68078Y40794D01*
G01X68031Y40769D01*
G01X67987Y40739D01*
G01X67948Y40706D01*
G01X67913Y40669D01*
G01X67883Y40630D01*
G01X67857Y40589D01*
G01X67835Y40544D01*
G01X67818Y40499D01*
G01X67806Y40451D01*
G01X67799Y40402D01*
G01X67797Y40352D01*
G01X67799Y40302D01*
G01X67806Y40254D01*
G01X67818Y40207D01*
G01X67835Y40161D01*
G01X67857Y40117D01*
G01X67883Y40076D01*
G01X67913Y40036D01*
G01X67948Y40000D01*
G01X67987Y39967D01*
G01X68031Y39938D01*
G01X68078Y39912D01*
G01X68130Y39890D01*
G01X68186Y39872D01*
G01X68245Y39860D01*
G01X68309Y39852D01*
G01X68376Y39849D01*
G01X68442Y39852D01*
G01X68504Y39860D01*
G01X68563Y39872D01*
G01X68617Y39890D01*
G01X68668Y39912D01*
G01X68715Y39938D01*
G01X68758Y39967D01*
G01X68797Y40000D01*
G01X68831Y40036D01*
G01X68861Y40076D01*
G01X68887Y40117D01*
G01X68909Y40161D01*
G01X68925Y40207D01*
G01X68938Y40254D01*
G01X68945Y40302D01*
G01X68947Y40352D01*
G01X68945Y40402D01*
G01X68938Y40451D01*
G01X68925Y40499D01*
G01X68909Y40544D01*
G01X68887Y40589D01*
G01X68861Y40630D01*
G01X68831Y40669D01*
G01X68797Y40706D01*
G01X68758Y40739D01*
G01X68715Y40769D01*
G01X68668Y40794D01*
G01X68617Y40816D01*
G01X68563Y40834D01*
G01X68504Y40847D01*
G01X68442Y40855D01*
G37*

%LPC*%
G36*
G01X68439Y40684D02*
G01X68376Y40687D01*
G01X68312Y40684D01*
G01X68252Y40676D01*
G01X68197Y40663D01*
G01X68146Y40645D01*
G01X68099Y40621D01*
G01X68058Y40594D01*
G01X68022Y40562D01*
G01X67992Y40527D01*
G01X67968Y40488D01*
G01X67951Y40445D01*
G01X67940Y40400D01*
G01X67936Y40352D01*
G01X67940Y40304D01*
G01X67951Y40259D01*
G01X67968Y40217D01*
G01X67992Y40179D01*
G01X68022Y40144D01*
G01X68058Y40112D01*
G01X68099Y40085D01*
G01X68146Y40062D01*
G01X68197Y40044D01*
G01X68252Y40030D01*
G01X68312Y40022D01*
G01X68376Y40019D01*
G01X68439Y40022D01*
G01X68498Y40030D01*
G01X68553Y40044D01*
G01X68603Y40062D01*
G01X68650Y40085D01*
G01X68690Y40112D01*
G01X68725Y40144D01*
G01X68755Y40179D01*
G01X68779Y40217D01*
G01X68796Y40259D01*
G01X68807Y40304D01*
G01X68810Y40352D01*
G01X68807Y40400D01*
G01X68796Y40445D01*
G01X68779Y40488D01*
G01X68755Y40527D01*
G01X68725Y40562D01*
G01X68690Y40594D01*
G01X68650Y40621D01*
G01X68603Y40645D01*
G01X68553Y40663D01*
G01X68498Y40676D01*
G01X68439Y40684D01*
G37*

%LPD*%
G36*
G01X67922Y39694D02*
G01X67865Y39697D01*
G01X67808Y39694D01*
G01X67755Y39686D01*
G01X67707Y39674D01*
G01X67663Y39658D01*
G01X67623Y39636D01*
G01X67588Y39610D01*
G01X67557Y39580D01*
G01X67529Y39545D01*
G01X67506Y39507D01*
G01X67486Y39465D01*
G01X67469Y39420D01*
G01X67456Y39371D01*
G01X67446Y39319D01*
G01X67439Y39263D01*
G01X67435Y39204D01*
G01X67433Y39143D01*
G01X67433Y38731D01*
G01X68922Y38731D01*
G01X68922Y38899D01*
G01X68320Y38899D01*
G01X68320Y39151D01*
G01X68318Y39210D01*
G01X68313Y39268D01*
G01X68305Y39323D01*
G01X68292Y39374D01*
G01X68277Y39422D01*
G01X68258Y39468D01*
G01X68235Y39509D01*
G01X68209Y39546D01*
G01X68179Y39580D01*
G01X68145Y39610D01*
G01X68108Y39636D01*
G01X68067Y39658D01*
G01X68022Y39674D01*
G01X67974Y39686D01*
G01X67922Y39694D01*
G37*

%LPC*%
G36*
G01X67918Y39526D02*
G01X67865Y39529D01*
G01X67812Y39526D01*
G01X67766Y39518D01*
G01X67725Y39503D01*
G01X67689Y39483D01*
G01X67659Y39458D01*
G01X67634Y39426D01*
G01X67614Y39389D01*
G01X67598Y39347D01*
G01X67585Y39298D01*
G01X67577Y39245D01*
G01X67572Y39185D01*
G01X67571Y39120D01*
G01X67571Y38899D01*
G01X68183Y38899D01*
G01X68183Y39128D01*
G01X68181Y39193D01*
G01X68175Y39252D01*
G01X68164Y39305D01*
G01X68150Y39353D01*
G01X68130Y39394D01*
G01X68107Y39430D01*
G01X68079Y39460D01*
G01X68046Y39485D01*
G01X68008Y39505D01*
G01X67965Y39518D01*
G01X67918Y39526D01*
G37*

%LPD*%
G36*
G01X68236Y38447D02*
G01X68114Y38447D01*
G01X68114Y38033D01*
G01X67667Y38033D01*
G01X67667Y37898D01*
G01X68114Y37898D01*
G01X68114Y37484D01*
G01X68236Y37484D01*
G01X68236Y37898D01*
G01X68683Y37898D01*
G01X68683Y38033D01*
G01X68236Y38033D01*
G01X68236Y38447D01*
G37*

%LPD*%

%LPD*%
G36*
G01X66643Y67185D02*
G01X65948Y67185D01*
G01X65880Y67182D01*
G01X65818Y67175D01*
G01X65762Y67164D01*
G01X65711Y67148D01*
G01X65666Y67128D01*
G01X65627Y67103D01*
G01X65594Y67073D01*
G01X65567Y67038D01*
G01X65546Y66998D01*
G01X65530Y66953D01*
G01X65521Y66904D01*
G01X65518Y66849D01*
G01X65522Y66794D01*
G01X65533Y66742D01*
G01X65550Y66693D01*
G01X65573Y66647D01*
G01X65601Y66602D01*
G01X65633Y66560D01*
G01X65668Y66519D01*
G01X65706Y66478D01*
G01X65706Y66473D01*
G01X65546Y66456D01*
G01X65546Y66321D01*
G01X66643Y66321D01*
G01X66643Y66486D01*
G01X65841Y66486D01*
G01X65800Y66528D01*
G01X65764Y66567D01*
G01X65733Y66605D01*
G01X65708Y66642D01*
G01X65688Y66680D01*
G01X65674Y66718D01*
G01X65666Y66757D01*
G01X65663Y66798D01*
G01X65668Y66852D01*
G01X65681Y66897D01*
G01X65703Y66935D01*
G01X65736Y66965D01*
G01X65778Y66988D01*
G01X65830Y67004D01*
G01X65894Y67014D01*
G01X65968Y67017D01*
G01X66643Y67017D01*
G01X66643Y67185D01*
G37*

%LPD*%
G36*
G01X66163Y66021D02*
G01X66097Y66024D01*
G01X66030Y66021D01*
G01X65967Y66013D01*
G01X65907Y66000D01*
G01X65852Y65982D01*
G01X65800Y65960D01*
G01X65752Y65934D01*
G01X65709Y65904D01*
G01X65670Y65871D01*
G01X65635Y65835D01*
G01X65605Y65795D01*
G01X65578Y65753D01*
G01X65557Y65710D01*
G01X65540Y65664D01*
G01X65528Y65616D01*
G01X65521Y65568D01*
G01X65518Y65518D01*
G01X65521Y65468D01*
G01X65528Y65419D01*
G01X65540Y65371D01*
G01X65557Y65326D01*
G01X65578Y65282D01*
G01X65605Y65240D01*
G01X65635Y65201D01*
G01X65670Y65165D01*
G01X65709Y65131D01*
G01X65752Y65102D01*
G01X65800Y65076D01*
G01X65852Y65054D01*
G01X65907Y65036D01*
G01X65967Y65023D01*
G01X66030Y65015D01*
G01X66097Y65013D01*
G01X66163Y65015D01*
G01X66225Y65023D01*
G01X66284Y65036D01*
G01X66339Y65054D01*
G01X66390Y65076D01*
G01X66437Y65102D01*
G01X66479Y65131D01*
G01X66519Y65165D01*
G01X66553Y65201D01*
G01X66583Y65240D01*
G01X66609Y65282D01*
G01X66630Y65326D01*
G01X66647Y65371D01*
G01X66659Y65419D01*
G01X66666Y65468D01*
G01X66669Y65518D01*
G01X66666Y65568D01*
G01X66659Y65616D01*
G01X66647Y65664D01*
G01X66630Y65710D01*
G01X66609Y65753D01*
G01X66583Y65795D01*
G01X66553Y65835D01*
G01X66519Y65871D01*
G01X66479Y65904D01*
G01X66437Y65934D01*
G01X66390Y65960D01*
G01X66339Y65982D01*
G01X66284Y66000D01*
G01X66225Y66013D01*
G01X66163Y66021D01*
G37*

%LPC*%
G36*
G01X66160Y65850D02*
G01X66097Y65854D01*
G01X66034Y65850D01*
G01X65974Y65842D01*
G01X65919Y65829D01*
G01X65867Y65810D01*
G01X65821Y65787D01*
G01X65779Y65759D01*
G01X65744Y65728D01*
G01X65714Y65692D01*
G01X65690Y65653D01*
G01X65672Y65611D01*
G01X65662Y65566D01*
G01X65658Y65518D01*
G01X65662Y65470D01*
G01X65672Y65425D01*
G01X65690Y65382D01*
G01X65714Y65344D01*
G01X65744Y65308D01*
G01X65779Y65276D01*
G01X65821Y65249D01*
G01X65867Y65226D01*
G01X65919Y65207D01*
G01X65974Y65194D01*
G01X66034Y65186D01*
G01X66097Y65183D01*
G01X66160Y65186D01*
G01X66219Y65194D01*
G01X66275Y65207D01*
G01X66325Y65226D01*
G01X66371Y65249D01*
G01X66412Y65276D01*
G01X66447Y65308D01*
G01X66477Y65344D01*
G01X66500Y65382D01*
G01X66518Y65425D01*
G01X66528Y65470D01*
G01X66532Y65518D01*
G01X66528Y65566D01*
G01X66518Y65611D01*
G01X66500Y65653D01*
G01X66477Y65692D01*
G01X66447Y65728D01*
G01X66412Y65759D01*
G01X66371Y65787D01*
G01X66325Y65810D01*
G01X66275Y65829D01*
G01X66219Y65842D01*
G01X66160Y65850D01*
G37*

%LPD*%
G36*
G01X66643Y64861D02*
G01X66628Y64909D01*
G01X66506Y64876D01*
G01X66516Y64845D01*
G01X66525Y64812D01*
G01X66532Y64778D01*
G01X66534Y64746D01*
G01X66520Y64663D01*
G01X66477Y64610D01*
G01X66409Y64582D01*
G01X66318Y64573D01*
G01X65683Y64573D01*
G01X65683Y64878D01*
G01X65546Y64878D01*
G01X65546Y64573D01*
G01X65236Y64573D01*
G01X65236Y64434D01*
G01X65546Y64416D01*
G01X65556Y64243D01*
G01X65683Y64243D01*
G01X65683Y64411D01*
G01X66313Y64411D01*
G01X66390Y64414D01*
G01X66459Y64426D01*
G01X66520Y64445D01*
G01X66571Y64475D01*
G01X66612Y64516D01*
G01X66643Y64568D01*
G01X66662Y64634D01*
G01X66669Y64713D01*
G01X66665Y64761D01*
G01X66656Y64811D01*
G01X66643Y64861D01*
G37*

%LPD*%
G36*
G01X66643Y64155D02*
G01X66628Y64203D01*
G01X66506Y64170D01*
G01X66516Y64141D01*
G01X66525Y64108D01*
G01X66532Y64075D01*
G01X66534Y64043D01*
G01X66520Y63960D01*
G01X66477Y63906D01*
G01X66409Y63878D01*
G01X66318Y63870D01*
G01X65683Y63870D01*
G01X65683Y64172D01*
G01X65546Y64172D01*
G01X65546Y63870D01*
G01X65236Y63870D01*
G01X65236Y63730D01*
G01X65546Y63710D01*
G01X65556Y63537D01*
G01X65683Y63537D01*
G01X65683Y63705D01*
G01X66313Y63705D01*
G01X66390Y63708D01*
G01X66459Y63720D01*
G01X66520Y63740D01*
G01X66571Y63770D01*
G01X66612Y63811D01*
G01X66643Y63863D01*
G01X66662Y63928D01*
G01X66669Y64007D01*
G01X66665Y64055D01*
G01X66656Y64105D01*
G01X66643Y64155D01*
G37*

%LPD*%
G36*
G01X66643Y63291D02*
G01X65546Y63291D01*
G01X65546Y63126D01*
G01X66334Y63126D01*
G01X66380Y63085D01*
G01X66419Y63047D01*
G01X66453Y63010D01*
G01X66480Y62974D01*
G01X66500Y62936D01*
G01X66515Y62898D01*
G01X66524Y62858D01*
G01X66527Y62816D01*
G01X66522Y62763D01*
G01X66509Y62718D01*
G01X66487Y62681D01*
G01X66455Y62651D01*
G01X66412Y62628D01*
G01X66360Y62612D01*
G01X66296Y62603D01*
G01X66222Y62600D01*
G01X65546Y62600D01*
G01X65546Y62435D01*
G01X66242Y62435D01*
G01X66310Y62437D01*
G01X66372Y62443D01*
G01X66428Y62455D01*
G01X66478Y62470D01*
G01X66523Y62491D01*
G01X66561Y62515D01*
G01X66594Y62545D01*
G01X66621Y62579D01*
G01X66642Y62619D01*
G01X66657Y62663D01*
G01X66666Y62713D01*
G01X66669Y62767D01*
G01X66665Y62823D01*
G01X66654Y62874D01*
G01X66637Y62923D01*
G01X66614Y62969D01*
G01X66584Y63012D01*
G01X66550Y63053D01*
G01X66511Y63094D01*
G01X66468Y63133D01*
G01X66468Y63141D01*
G01X66643Y63154D01*
G01X66643Y63291D01*
G37*

%LPD*%
G36*
G01X66262Y62163D02*
G01X66209Y62165D01*
G01X66137Y62160D01*
G01X66072Y62143D01*
G01X66016Y62116D01*
G01X65967Y62080D01*
G01X65926Y62036D01*
G01X65893Y61983D01*
G01X65868Y61924D01*
G01X65851Y61858D01*
G01X65843Y61858D01*
G01X65822Y61908D01*
G01X65794Y61953D01*
G01X65759Y61991D01*
G01X65719Y62022D01*
G01X65675Y62047D01*
G01X65626Y62064D01*
G01X65575Y62076D01*
G01X65521Y62079D01*
G01X65459Y62075D01*
G01X65404Y62062D01*
G01X65354Y62042D01*
G01X65311Y62015D01*
G01X65273Y61980D01*
G01X65241Y61938D01*
G01X65214Y61891D01*
G01X65192Y61837D01*
G01X65176Y61778D01*
G01X65164Y61714D01*
G01X65157Y61645D01*
G01X65155Y61571D01*
G01X65155Y61139D01*
G01X66643Y61139D01*
G01X66643Y61604D01*
G01X66642Y61665D01*
G01X66637Y61724D01*
G01X66628Y61779D01*
G01X66617Y61832D01*
G01X66601Y61881D01*
G01X66583Y61928D01*
G01X66560Y61970D01*
G01X66535Y62010D01*
G01X66506Y62045D01*
G01X66474Y62076D01*
G01X66438Y62102D01*
G01X66399Y62124D01*
G01X66357Y62142D01*
G01X66311Y62155D01*
G01X66262Y62163D01*
G37*

%LPC*%
G36*
G01X65596Y61906D02*
G01X65541Y61911D01*
G01X65478Y61906D01*
G01X65425Y61889D01*
G01X65381Y61860D01*
G01X65347Y61820D01*
G01X65321Y61769D01*
G01X65303Y61706D01*
G01X65293Y61632D01*
G01X65290Y61546D01*
G01X65290Y61309D01*
G01X65795Y61309D01*
G01X65795Y61536D01*
G01X65791Y61629D01*
G01X65777Y61708D01*
G01X65756Y61773D01*
G01X65726Y61825D01*
G01X65689Y61864D01*
G01X65646Y61891D01*
G01X65596Y61906D01*
G37*
G36*
G01X66252Y61999D02*
G01X66202Y62003D01*
G01X66156Y62000D01*
G01X66115Y61990D01*
G01X66078Y61974D01*
G01X66045Y61953D01*
G01X66017Y61925D01*
G01X65992Y61892D01*
G01X65971Y61852D01*
G01X65954Y61808D01*
G01X65941Y61758D01*
G01X65932Y61702D01*
G01X65927Y61642D01*
G01X65925Y61576D01*
G01X65925Y61309D01*
G01X66509Y61309D01*
G01X66509Y61576D01*
G01X66507Y61640D01*
G01X66501Y61700D01*
G01X66491Y61754D01*
G01X66477Y61804D01*
G01X66458Y61849D01*
G01X66435Y61889D01*
G01X66408Y61923D01*
G01X66376Y61951D01*
G01X66340Y61973D01*
G01X66299Y61990D01*
G01X66252Y61999D01*
G37*

%LPD*%
G36*
G01X66643Y60829D02*
G01X66501Y60829D01*
G01X66501Y60403D01*
G01X66502Y60343D01*
G01X66505Y60282D01*
G01X66509Y60219D01*
G01X66514Y60159D01*
G01X66463Y60212D01*
G01X66412Y60264D01*
G01X66362Y60313D01*
G01X66312Y60361D01*
G01X66264Y60406D01*
G01X66215Y60448D01*
G01X66166Y60489D01*
G01X66119Y60527D01*
G01X66071Y60562D01*
G01X66024Y60595D01*
G01X65977Y60625D01*
G01X65930Y60652D01*
G01X65884Y60676D01*
G01X65838Y60697D01*
G01X65792Y60716D01*
G01X65746Y60731D01*
G01X65700Y60743D01*
G01X65655Y60751D01*
G01X65609Y60756D01*
G01X65564Y60758D01*
G01X65500Y60755D01*
G01X65440Y60745D01*
G01X65385Y60729D01*
G01X65334Y60706D01*
G01X65288Y60678D01*
G01X65248Y60644D01*
G01X65213Y60604D01*
G01X65183Y60560D01*
G01X65161Y60510D01*
G01X65143Y60455D01*
G01X65133Y60396D01*
G01X65130Y60332D01*
G01X65134Y60265D01*
G01X65145Y60203D01*
G01X65164Y60145D01*
G01X65190Y60091D01*
G01X65221Y60040D01*
G01X65258Y59992D01*
G01X65301Y59945D01*
G01X65348Y59900D01*
G01X65440Y59996D01*
G01X65403Y60030D01*
G01X65370Y60065D01*
G01X65340Y60102D01*
G01X65315Y60141D01*
G01X65294Y60181D01*
G01X65278Y60224D01*
G01X65268Y60268D01*
G01X65264Y60314D01*
G01X65270Y60380D01*
G01X65288Y60438D01*
G01X65316Y60487D01*
G01X65352Y60526D01*
G01X65397Y60557D01*
G01X65450Y60578D01*
G01X65508Y60591D01*
G01X65572Y60596D01*
G01X65610Y60594D01*
G01X65650Y60589D01*
G01X65690Y60582D01*
G01X65732Y60570D01*
G01X65774Y60555D01*
G01X65816Y60537D01*
G01X65861Y60516D01*
G01X65906Y60491D01*
G01X65952Y60463D01*
G01X65999Y60431D01*
G01X66048Y60396D01*
G01X66097Y60356D01*
G01X66148Y60314D01*
G01X66200Y60268D01*
G01X66254Y60217D01*
G01X66309Y60163D01*
G01X66366Y60106D01*
G01X66424Y60045D01*
G01X66483Y59979D01*
G01X66544Y59910D01*
G01X66643Y59910D01*
G01X66643Y60829D01*
G37*

%LPD*%
G36*
G01X65958Y59740D02*
G01X65836Y59740D01*
G01X65836Y59328D01*
G01X65389Y59328D01*
G01X65389Y59191D01*
G01X65836Y59191D01*
G01X65836Y58780D01*
G01X65958Y58780D01*
G01X65958Y59191D01*
G01X66405Y59191D01*
G01X66405Y59328D01*
G01X65958Y59328D01*
G01X65958Y59740D01*
G37*

%LPD*%
G36*
G01X66262Y58607D02*
G01X66209Y58609D01*
G01X66137Y58604D01*
G01X66072Y58587D01*
G01X66016Y58560D01*
G01X65967Y58524D01*
G01X65926Y58480D01*
G01X65893Y58427D01*
G01X65868Y58368D01*
G01X65851Y58302D01*
G01X65843Y58302D01*
G01X65822Y58352D01*
G01X65794Y58397D01*
G01X65759Y58435D01*
G01X65719Y58466D01*
G01X65675Y58491D01*
G01X65626Y58508D01*
G01X65575Y58520D01*
G01X65521Y58523D01*
G01X65459Y58519D01*
G01X65404Y58506D01*
G01X65354Y58486D01*
G01X65311Y58459D01*
G01X65273Y58424D01*
G01X65241Y58382D01*
G01X65214Y58335D01*
G01X65192Y58281D01*
G01X65176Y58222D01*
G01X65164Y58158D01*
G01X65157Y58089D01*
G01X65155Y58015D01*
G01X65155Y57583D01*
G01X66643Y57583D01*
G01X66643Y58048D01*
G01X66642Y58109D01*
G01X66637Y58168D01*
G01X66628Y58223D01*
G01X66617Y58276D01*
G01X66601Y58325D01*
G01X66583Y58372D01*
G01X66560Y58414D01*
G01X66535Y58454D01*
G01X66506Y58489D01*
G01X66474Y58520D01*
G01X66438Y58546D01*
G01X66399Y58568D01*
G01X66357Y58586D01*
G01X66311Y58599D01*
G01X66262Y58607D01*
G37*

%LPC*%
G36*
G01X65596Y58350D02*
G01X65541Y58355D01*
G01X65478Y58350D01*
G01X65425Y58333D01*
G01X65381Y58304D01*
G01X65347Y58264D01*
G01X65321Y58213D01*
G01X65303Y58150D01*
G01X65293Y58076D01*
G01X65290Y57990D01*
G01X65290Y57753D01*
G01X65795Y57753D01*
G01X65795Y57980D01*
G01X65791Y58073D01*
G01X65777Y58152D01*
G01X65756Y58217D01*
G01X65726Y58269D01*
G01X65689Y58308D01*
G01X65646Y58335D01*
G01X65596Y58350D01*
G37*
G36*
G01X66252Y58443D02*
G01X66202Y58447D01*
G01X66156Y58444D01*
G01X66115Y58434D01*
G01X66078Y58418D01*
G01X66045Y58397D01*
G01X66017Y58369D01*
G01X65992Y58336D01*
G01X65971Y58296D01*
G01X65954Y58252D01*
G01X65941Y58202D01*
G01X65932Y58146D01*
G01X65927Y58086D01*
G01X65925Y58020D01*
G01X65925Y57753D01*
G01X66509Y57753D01*
G01X66509Y58020D01*
G01X66507Y58084D01*
G01X66501Y58144D01*
G01X66491Y58198D01*
G01X66477Y58248D01*
G01X66458Y58293D01*
G01X66435Y58333D01*
G01X66408Y58367D01*
G01X66376Y58395D01*
G01X66340Y58417D01*
G01X66299Y58434D01*
G01X66252Y58443D01*
G37*

%LPD*%
G36*
G01X66499Y57225D02*
G01X65881Y57225D01*
G01X65881Y56745D01*
G01X66021Y56745D01*
G01X66021Y57068D01*
G01X66428Y57068D01*
G01X66467Y57014D01*
G01X66497Y56946D01*
G01X66515Y56869D01*
G01X66522Y56786D01*
G01X66519Y56727D01*
G01X66510Y56671D01*
G01X66497Y56619D01*
G01X66478Y56571D01*
G01X66454Y56526D01*
G01X66425Y56484D01*
G01X66392Y56446D01*
G01X66353Y56412D01*
G01X66310Y56382D01*
G01X66263Y56355D01*
G01X66212Y56333D01*
G01X66156Y56314D01*
G01X66097Y56299D01*
G01X66034Y56289D01*
G01X65967Y56282D01*
G01X65897Y56280D01*
G01X65827Y56282D01*
G01X65760Y56289D01*
G01X65697Y56301D01*
G01X65638Y56316D01*
G01X65583Y56335D01*
G01X65532Y56359D01*
G01X65485Y56386D01*
G01X65443Y56417D01*
G01X65405Y56451D01*
G01X65372Y56490D01*
G01X65344Y56531D01*
G01X65320Y56576D01*
G01X65301Y56624D01*
G01X65288Y56675D01*
G01X65280Y56729D01*
G01X65277Y56786D01*
G01X65288Y56891D01*
G01X65319Y56979D01*
G01X65364Y57052D01*
G01X65419Y57113D01*
G01X65310Y57207D01*
G01X65277Y57173D01*
G01X65245Y57133D01*
G01X65215Y57089D01*
G01X65188Y57039D01*
G01X65164Y56983D01*
G01X65146Y56922D01*
G01X65134Y56854D01*
G01X65130Y56781D01*
G01X65132Y56723D01*
G01X65138Y56667D01*
G01X65149Y56613D01*
G01X65164Y56560D01*
G01X65183Y56510D01*
G01X65206Y56463D01*
G01X65232Y56417D01*
G01X65263Y56375D01*
G01X65297Y56335D01*
G01X65335Y56298D01*
G01X65377Y56263D01*
G01X65422Y56232D01*
G01X65471Y56204D01*
G01X65522Y56179D01*
G01X65578Y56158D01*
G01X65636Y56140D01*
G01X65697Y56126D01*
G01X65762Y56116D01*
G01X65829Y56110D01*
G01X65899Y56108D01*
G01X65970Y56110D01*
G01X66038Y56116D01*
G01X66103Y56125D01*
G01X66164Y56139D01*
G01X66223Y56156D01*
G01X66278Y56177D01*
G01X66330Y56201D01*
G01X66379Y56228D01*
G01X66424Y56259D01*
G01X66465Y56292D01*
G01X66503Y56329D01*
G01X66537Y56368D01*
G01X66567Y56410D01*
G01X66594Y56455D01*
G01X66617Y56502D01*
G01X66635Y56552D01*
G01X66650Y56603D01*
G01X66660Y56657D01*
G01X66667Y56713D01*
G01X66669Y56771D01*
G01X66666Y56843D01*
G01X66656Y56912D01*
G01X66641Y56976D01*
G01X66621Y57036D01*
G01X66596Y57091D01*
G01X66567Y57141D01*
G01X66534Y57186D01*
G01X66499Y57225D01*
G37*

%LPD*%
G36*
G01X66643Y55739D02*
G01X66643Y55927D01*
G01X65986Y55544D01*
G01X65972Y55595D01*
G01X65954Y55642D01*
G01X65933Y55686D01*
G01X65908Y55727D01*
G01X65879Y55763D01*
G01X65847Y55796D01*
G01X65810Y55823D01*
G01X65770Y55846D01*
G01X65726Y55865D01*
G01X65678Y55878D01*
G01X65625Y55886D01*
G01X65569Y55889D01*
G01X65497Y55885D01*
G01X65432Y55872D01*
G01X65376Y55852D01*
G01X65326Y55823D01*
G01X65284Y55788D01*
G01X65248Y55746D01*
G01X65218Y55698D01*
G01X65195Y55643D01*
G01X65177Y55584D01*
G01X65165Y55519D01*
G01X65158Y55450D01*
G01X65155Y55376D01*
G01X65155Y54921D01*
G01X66643Y54921D01*
G01X66643Y55089D01*
G01X66001Y55089D01*
G01X66001Y55368D01*
G01X66643Y55739D01*
G37*

%LPC*%
G36*
G01X65639Y55715D02*
G01X65569Y55721D01*
G01X65499Y55715D01*
G01X65440Y55697D01*
G01X65392Y55667D01*
G01X65355Y55625D01*
G01X65326Y55572D01*
G01X65307Y55508D01*
G01X65296Y55433D01*
G01X65292Y55348D01*
G01X65292Y55089D01*
G01X65864Y55089D01*
G01X65864Y55348D01*
G01X65859Y55433D01*
G01X65845Y55508D01*
G01X65823Y55572D01*
G01X65791Y55625D01*
G01X65749Y55667D01*
G01X65699Y55697D01*
G01X65639Y55715D01*
G37*

%LPD*%
G36*
G01X65958Y54637D02*
G01X65836Y54637D01*
G01X65836Y54223D01*
G01X65389Y54223D01*
G01X65389Y54088D01*
G01X65836Y54088D01*
G01X65836Y53674D01*
G01X65958Y53674D01*
G01X65958Y54088D01*
G01X66405Y54088D01*
G01X66405Y54223D01*
G01X65958Y54223D01*
G01X65958Y54637D01*
G37*

%LPD*%
G36*
G01X65963Y53477D02*
G01X65894Y53479D01*
G01X65826Y53477D01*
G01X65760Y53472D01*
G01X65698Y53462D01*
G01X65638Y53450D01*
G01X65582Y53434D01*
G01X65528Y53415D01*
G01X65479Y53392D01*
G01X65432Y53365D01*
G01X65389Y53335D01*
G01X65350Y53302D01*
G01X65313Y53265D01*
G01X65281Y53225D01*
G01X65252Y53181D01*
G01X65226Y53135D01*
G01X65205Y53084D01*
G01X65187Y53031D01*
G01X65173Y52974D01*
G01X65163Y52913D01*
G01X65157Y52850D01*
G01X65155Y52783D01*
G01X65155Y52417D01*
G01X66643Y52417D01*
G01X66643Y52788D01*
G01X66641Y52854D01*
G01X66635Y52917D01*
G01X66625Y52977D01*
G01X66610Y53033D01*
G01X66592Y53086D01*
G01X66570Y53136D01*
G01X66544Y53183D01*
G01X66514Y53226D01*
G01X66481Y53266D01*
G01X66444Y53303D01*
G01X66404Y53336D01*
G01X66360Y53366D01*
G01X66313Y53392D01*
G01X66262Y53415D01*
G01X66209Y53434D01*
G01X66152Y53450D01*
G01X66092Y53462D01*
G01X66029Y53472D01*
G01X65963Y53477D01*
G37*

%LPC*%
G36*
G01X65963Y53304D02*
G01X65894Y53306D01*
G01X65825Y53304D01*
G01X65759Y53298D01*
G01X65698Y53287D01*
G01X65640Y53273D01*
G01X65586Y53254D01*
G01X65537Y53231D01*
G01X65492Y53204D01*
G01X65452Y53173D01*
G01X65416Y53137D01*
G01X65384Y53098D01*
G01X65357Y53053D01*
G01X65335Y53005D01*
G01X65318Y52952D01*
G01X65305Y52895D01*
G01X65297Y52834D01*
G01X65295Y52767D01*
G01X65295Y52585D01*
G01X66506Y52585D01*
G01X66506Y52767D01*
G01X66504Y52834D01*
G01X66496Y52895D01*
G01X66482Y52952D01*
G01X66464Y53005D01*
G01X66441Y53053D01*
G01X66412Y53098D01*
G01X66380Y53137D01*
G01X66342Y53173D01*
G01X66301Y53204D01*
G01X66254Y53231D01*
G01X66204Y53254D01*
G01X66150Y53273D01*
G01X66091Y53287D01*
G01X66029Y53298D01*
G01X65963Y53304D01*
G37*

%LPD*%
G36*
G01X66643Y52099D02*
G01X66501Y52099D01*
G01X66501Y51398D01*
G01X65930Y51398D01*
G01X65930Y51970D01*
G01X65788Y51970D01*
G01X65788Y51398D01*
G01X65297Y51398D01*
G01X65297Y52077D01*
G01X65155Y52077D01*
G01X65155Y51231D01*
G01X66643Y51231D01*
G01X66643Y52099D01*
G37*

%LPD*%
G36*
G01X66643Y50967D02*
G01X66501Y50967D01*
G01X66501Y50309D01*
G01X65155Y50309D01*
G01X65155Y50141D01*
G01X66643Y50141D01*
G01X66643Y50967D01*
G37*

%LPD*%
G36*
G01X66311Y49814D02*
G01X66247Y49819D01*
G01X66174Y49812D01*
G01X66107Y49794D01*
G01X66047Y49764D01*
G01X65995Y49726D01*
G01X65951Y49678D01*
G01X65914Y49624D01*
G01X65886Y49565D01*
G01X65866Y49501D01*
G01X65859Y49501D01*
G01X65835Y49558D01*
G01X65805Y49609D01*
G01X65769Y49654D01*
G01X65727Y49694D01*
G01X65679Y49725D01*
G01X65625Y49748D01*
G01X65564Y49763D01*
G01X65498Y49768D01*
G01X65441Y49764D01*
G01X65389Y49753D01*
G01X65341Y49736D01*
G01X65297Y49712D01*
G01X65259Y49682D01*
G01X65225Y49647D01*
G01X65196Y49607D01*
G01X65172Y49562D01*
G01X65153Y49513D01*
G01X65139Y49459D01*
G01X65131Y49403D01*
G01X65127Y49344D01*
G01X65132Y49282D01*
G01X65142Y49223D01*
G01X65159Y49168D01*
G01X65180Y49116D01*
G01X65206Y49067D01*
G01X65236Y49020D01*
G01X65269Y48977D01*
G01X65305Y48935D01*
G01X65412Y49026D01*
G01X65353Y49093D01*
G01X65306Y49168D01*
G01X65274Y49250D01*
G01X65262Y49338D01*
G01X65267Y49395D01*
G01X65281Y49447D01*
G01X65302Y49491D01*
G01X65331Y49528D01*
G01X65367Y49558D01*
G01X65409Y49580D01*
G01X65457Y49593D01*
G01X65511Y49598D01*
G01X65551Y49595D01*
G01X65590Y49588D01*
G01X65626Y49576D01*
G01X65661Y49558D01*
G01X65691Y49535D01*
G01X65720Y49506D01*
G01X65745Y49470D01*
G01X65766Y49427D01*
G01X65782Y49377D01*
G01X65795Y49319D01*
G01X65803Y49254D01*
G01X65805Y49181D01*
G01X65935Y49181D01*
G01X65937Y49263D01*
G01X65945Y49336D01*
G01X65957Y49400D01*
G01X65974Y49456D01*
G01X65995Y49505D01*
G01X66020Y49545D01*
G01X66049Y49579D01*
G01X66081Y49606D01*
G01X66117Y49626D01*
G01X66156Y49640D01*
G01X66198Y49648D01*
G01X66242Y49651D01*
G01X66306Y49645D01*
G01X66363Y49628D01*
G01X66412Y49601D01*
G01X66453Y49564D01*
G01X66487Y49518D01*
G01X66511Y49465D01*
G01X66527Y49406D01*
G01X66532Y49341D01*
G01X66528Y49278D01*
G01X66518Y49220D01*
G01X66501Y49167D01*
G01X66479Y49119D01*
G01X66453Y49075D01*
G01X66424Y49035D01*
G01X66392Y48999D01*
G01X66359Y48965D01*
G01X66466Y48879D01*
G01X66504Y48917D01*
G01X66541Y48961D01*
G01X66576Y49010D01*
G01X66606Y49065D01*
G01X66632Y49126D01*
G01X66652Y49193D01*
G01X66664Y49268D01*
G01X66669Y49351D01*
G01X66666Y49415D01*
G01X66656Y49476D01*
G01X66640Y49534D01*
G01X66618Y49587D01*
G01X66591Y49637D01*
G01X66557Y49682D01*
G01X66518Y49721D01*
G01X66474Y49755D01*
G01X66425Y49782D01*
G01X66370Y49802D01*
G01X66311Y49814D01*
G37*

%LPD*%
G36*
G01X65958Y48742D02*
G01X65836Y48742D01*
G01X65836Y48328D01*
G01X65389Y48328D01*
G01X65389Y48193D01*
G01X65836Y48193D01*
G01X65836Y47779D01*
G01X65958Y47779D01*
G01X65958Y48193D01*
G01X66405Y48193D01*
G01X66405Y48328D01*
G01X65958Y48328D01*
G01X65958Y48742D01*
G37*

%LPD*%
G36*
G01X66163Y47593D02*
G01X66097Y47596D01*
G01X66030Y47593D01*
G01X65967Y47585D01*
G01X65907Y47573D01*
G01X65852Y47555D01*
G01X65800Y47533D01*
G01X65752Y47507D01*
G01X65709Y47477D01*
G01X65670Y47444D01*
G01X65635Y47408D01*
G01X65605Y47369D01*
G01X65578Y47327D01*
G01X65557Y47283D01*
G01X65540Y47237D01*
G01X65528Y47190D01*
G01X65521Y47140D01*
G01X65518Y47091D01*
G01X65521Y47041D01*
G01X65528Y46993D01*
G01X65540Y46945D01*
G01X65557Y46900D01*
G01X65578Y46856D01*
G01X65605Y46814D01*
G01X65635Y46775D01*
G01X65670Y46739D01*
G01X65709Y46706D01*
G01X65752Y46677D01*
G01X65800Y46651D01*
G01X65852Y46629D01*
G01X65907Y46611D01*
G01X65967Y46598D01*
G01X66030Y46590D01*
G01X66097Y46588D01*
G01X66163Y46590D01*
G01X66225Y46598D01*
G01X66284Y46611D01*
G01X66339Y46629D01*
G01X66390Y46651D01*
G01X66437Y46677D01*
G01X66479Y46706D01*
G01X66519Y46739D01*
G01X66553Y46775D01*
G01X66583Y46814D01*
G01X66609Y46856D01*
G01X66630Y46900D01*
G01X66647Y46945D01*
G01X66659Y46993D01*
G01X66666Y47041D01*
G01X66669Y47091D01*
G01X66666Y47140D01*
G01X66659Y47190D01*
G01X66647Y47237D01*
G01X66630Y47283D01*
G01X66609Y47327D01*
G01X66583Y47369D01*
G01X66553Y47408D01*
G01X66519Y47444D01*
G01X66479Y47477D01*
G01X66437Y47507D01*
G01X66390Y47533D01*
G01X66339Y47555D01*
G01X66284Y47573D01*
G01X66225Y47585D01*
G01X66163Y47593D01*
G37*

%LPC*%
G36*
G01X66160Y47423D02*
G01X66097Y47426D01*
G01X66034Y47423D01*
G01X65974Y47415D01*
G01X65919Y47401D01*
G01X65867Y47383D01*
G01X65821Y47360D01*
G01X65779Y47332D01*
G01X65744Y47301D01*
G01X65714Y47265D01*
G01X65690Y47227D01*
G01X65672Y47184D01*
G01X65662Y47139D01*
G01X65658Y47091D01*
G01X65662Y47043D01*
G01X65672Y46998D01*
G01X65690Y46956D01*
G01X65714Y46917D01*
G01X65744Y46882D01*
G01X65779Y46851D01*
G01X65821Y46823D01*
G01X65867Y46800D01*
G01X65919Y46782D01*
G01X65974Y46769D01*
G01X66034Y46760D01*
G01X66097Y46758D01*
G01X66160Y46760D01*
G01X66219Y46769D01*
G01X66275Y46782D01*
G01X66325Y46800D01*
G01X66371Y46823D01*
G01X66412Y46851D01*
G01X66447Y46882D01*
G01X66477Y46917D01*
G01X66500Y46956D01*
G01X66518Y46998D01*
G01X66528Y47043D01*
G01X66532Y47091D01*
G01X66528Y47139D01*
G01X66518Y47184D01*
G01X66500Y47227D01*
G01X66477Y47265D01*
G01X66447Y47301D01*
G01X66412Y47332D01*
G01X66371Y47360D01*
G01X66325Y47383D01*
G01X66275Y47401D01*
G01X66219Y47415D01*
G01X66160Y47423D01*
G37*

%LPD*%
G36*
G01X65686Y46476D02*
G01X65541Y46509D01*
G01X65530Y46481D01*
G01X65523Y46454D01*
G01X65519Y46424D01*
G01X65518Y46392D01*
G01X65522Y46346D01*
G01X65535Y46302D01*
G01X65554Y46259D01*
G01X65581Y46218D01*
G01X65614Y46180D01*
G01X65653Y46144D01*
G01X65698Y46112D01*
G01X65747Y46082D01*
G01X65747Y46075D01*
G01X65546Y46059D01*
G01X65546Y45925D01*
G01X66643Y45925D01*
G01X66643Y46090D01*
G01X65927Y46090D01*
G01X65861Y46119D01*
G01X65806Y46152D01*
G01X65762Y46186D01*
G01X65726Y46223D01*
G01X65700Y46260D01*
G01X65682Y46299D01*
G01X65672Y46336D01*
G01X65668Y46372D01*
G01X65669Y46401D01*
G01X65672Y46426D01*
G01X65678Y46449D01*
G01X65686Y46476D01*
G37*

%LPD*%
G36*
G01X66745Y45287D02*
G01X65546Y45706D01*
G01X65546Y45544D01*
G01X66174Y45338D01*
G01X66249Y45315D01*
G01X66407Y45267D01*
G01X66483Y45244D01*
G01X66483Y45234D01*
G01X66407Y45206D01*
G01X66328Y45178D01*
G01X66249Y45151D01*
G01X66174Y45125D01*
G01X65546Y44891D01*
G01X65546Y44718D01*
G01X66649Y45160D01*
G01X66735Y45137D01*
G01X66786Y45117D01*
G01X66834Y45093D01*
G01X66876Y45067D01*
G01X66913Y45037D01*
G01X66943Y45003D01*
G01X66965Y44966D01*
G01X66979Y44925D01*
G01X66984Y44881D01*
G01X66982Y44857D01*
G01X66978Y44835D01*
G01X66972Y44813D01*
G01X66966Y44794D01*
G01X67101Y44761D01*
G01X67111Y44788D01*
G01X67118Y44818D01*
G01X67122Y44851D01*
G01X67124Y44886D01*
G01X67120Y44937D01*
G01X67110Y44984D01*
G01X67094Y45028D01*
G01X67072Y45068D01*
G01X67044Y45105D01*
G01X67012Y45139D01*
G01X66976Y45170D01*
G01X66936Y45198D01*
G01X66892Y45223D01*
G01X66846Y45247D01*
G01X66796Y45268D01*
G01X66745Y45287D01*
G37*

%LPD*%
G36*
G01X66499Y44538D02*
G01X65881Y44538D01*
G01X65881Y44060D01*
G01X66021Y44060D01*
G01X66021Y44383D01*
G01X66428Y44383D01*
G01X66467Y44329D01*
G01X66497Y44261D01*
G01X66515Y44184D01*
G01X66522Y44101D01*
G01X66519Y44042D01*
G01X66510Y43986D01*
G01X66497Y43933D01*
G01X66478Y43885D01*
G01X66454Y43839D01*
G01X66425Y43797D01*
G01X66392Y43759D01*
G01X66353Y43725D01*
G01X66310Y43695D01*
G01X66263Y43668D01*
G01X66212Y43645D01*
G01X66156Y43627D01*
G01X66097Y43612D01*
G01X66034Y43602D01*
G01X65967Y43595D01*
G01X65897Y43593D01*
G01X65827Y43595D01*
G01X65760Y43602D01*
G01X65697Y43613D01*
G01X65638Y43629D01*
G01X65583Y43648D01*
G01X65532Y43672D01*
G01X65485Y43700D01*
G01X65443Y43731D01*
G01X65405Y43766D01*
G01X65372Y43804D01*
G01X65344Y43846D01*
G01X65320Y43891D01*
G01X65301Y43939D01*
G01X65288Y43990D01*
G01X65280Y44044D01*
G01X65277Y44101D01*
G01X65288Y44206D01*
G01X65319Y44293D01*
G01X65364Y44366D01*
G01X65419Y44426D01*
G01X65310Y44520D01*
G01X65277Y44486D01*
G01X65245Y44447D01*
G01X65215Y44403D01*
G01X65188Y44353D01*
G01X65164Y44299D01*
G01X65146Y44237D01*
G01X65134Y44170D01*
G01X65130Y44096D01*
G01X65132Y44038D01*
G01X65138Y43982D01*
G01X65149Y43928D01*
G01X65164Y43875D01*
G01X65183Y43825D01*
G01X65206Y43777D01*
G01X65232Y43732D01*
G01X65263Y43689D01*
G01X65297Y43649D01*
G01X65335Y43611D01*
G01X65377Y43577D01*
G01X65422Y43545D01*
G01X65471Y43517D01*
G01X65522Y43492D01*
G01X65578Y43471D01*
G01X65636Y43453D01*
G01X65697Y43439D01*
G01X65762Y43428D01*
G01X65829Y43422D01*
G01X65899Y43420D01*
G01X65970Y43422D01*
G01X66038Y43428D01*
G01X66103Y43438D01*
G01X66164Y43452D01*
G01X66223Y43469D01*
G01X66278Y43490D01*
G01X66330Y43514D01*
G01X66379Y43542D01*
G01X66424Y43572D01*
G01X66465Y43606D01*
G01X66503Y43643D01*
G01X66537Y43682D01*
G01X66567Y43724D01*
G01X66594Y43769D01*
G01X66617Y43815D01*
G01X66635Y43865D01*
G01X66650Y43917D01*
G01X66660Y43970D01*
G01X66667Y44026D01*
G01X66669Y44083D01*
G01X66666Y44156D01*
G01X66656Y44225D01*
G01X66641Y44290D01*
G01X66621Y44350D01*
G01X66596Y44406D01*
G01X66567Y44456D01*
G01X66534Y44500D01*
G01X66499Y44538D01*
G37*

%LPD*%
G36*
G01X65958Y43225D02*
G01X65836Y43225D01*
G01X65836Y42811D01*
G01X65389Y42811D01*
G01X65389Y42676D01*
G01X65836Y42676D01*
G01X65836Y42262D01*
G01X65958Y42262D01*
G01X65958Y42676D01*
G01X66405Y42676D01*
G01X66405Y42811D01*
G01X65958Y42811D01*
G01X65958Y43225D01*
G37*

%LPD*%
G36*
G01X66661Y42070D02*
G01X66656Y42089D01*
G01X66527Y42066D01*
G01X66530Y42053D01*
G01X66532Y42035D01*
G01X66532Y42028D01*
G01X66527Y42008D01*
G01X66513Y41991D01*
G01X66490Y41981D01*
G01X66456Y41978D01*
G01X65026Y41978D01*
G01X65026Y41812D01*
G01X66443Y41812D01*
G01X66539Y41823D01*
G01X66610Y41855D01*
G01X66654Y41910D01*
G01X66669Y41990D01*
G01X66668Y42022D01*
G01X66665Y42048D01*
G01X66661Y42070D01*
G37*

%LPD*%
G36*
G01X66059Y41533D02*
G01X66031Y41533D01*
G01X65955Y41530D01*
G01X65883Y41520D01*
G01X65817Y41504D01*
G01X65757Y41482D01*
G01X65703Y41454D01*
G01X65656Y41420D01*
G01X65615Y41380D01*
G01X65581Y41335D01*
G01X65554Y41285D01*
G01X65534Y41228D01*
G01X65522Y41167D01*
G01X65518Y41101D01*
G01X65521Y41055D01*
G01X65528Y41008D01*
G01X65541Y40963D01*
G01X65558Y40918D01*
G01X65580Y40876D01*
G01X65607Y40836D01*
G01X65638Y40797D01*
G01X65674Y40762D01*
G01X65713Y40729D01*
G01X65757Y40700D01*
G01X65804Y40674D01*
G01X65856Y40652D01*
G01X65911Y40635D01*
G01X65970Y40622D01*
G01X66032Y40614D01*
G01X66097Y40611D01*
G01X66163Y40614D01*
G01X66225Y40622D01*
G01X66283Y40634D01*
G01X66338Y40652D01*
G01X66388Y40674D01*
G01X66436Y40699D01*
G01X66478Y40729D01*
G01X66518Y40763D01*
G01X66552Y40799D01*
G01X66583Y40840D01*
G01X66608Y40883D01*
G01X66630Y40928D01*
G01X66647Y40976D01*
G01X66659Y41026D01*
G01X66666Y41078D01*
G01X66669Y41132D01*
G01X66667Y41187D01*
G01X66660Y41239D01*
G01X66650Y41287D01*
G01X66636Y41333D01*
G01X66619Y41376D01*
G01X66600Y41416D01*
G01X66579Y41454D01*
G01X66557Y41490D01*
G01X66448Y41429D01*
G01X66485Y41366D01*
G01X66513Y41300D01*
G01X66531Y41229D01*
G01X66537Y41152D01*
G01X66533Y41098D01*
G01X66524Y41048D01*
G01X66508Y41002D01*
G01X66485Y40958D01*
G01X66458Y40920D01*
G01X66425Y40885D01*
G01X66387Y40855D01*
G01X66344Y40829D01*
G01X66297Y40808D01*
G01X66245Y40792D01*
G01X66190Y40781D01*
G01X66130Y40776D01*
G01X66130Y41525D01*
G01X66110Y41529D01*
G01X66086Y41531D01*
G01X66059Y41533D01*
G37*

%LPC*%
G36*
G01X66011Y40774D02*
G01X66011Y41388D01*
G01X65928Y41383D01*
G01X65856Y41369D01*
G01X65794Y41345D01*
G01X65743Y41313D01*
G01X65704Y41272D01*
G01X65676Y41223D01*
G01X65658Y41167D01*
G01X65653Y41104D01*
G01X65659Y41044D01*
G01X65677Y40987D01*
G01X65707Y40934D01*
G01X65747Y40886D01*
G01X65798Y40845D01*
G01X65860Y40812D01*
G01X65931Y40788D01*
G01X66011Y40774D01*
G37*

%LPD*%
G36*
G01X66561Y40456D02*
G01X66529Y40494D01*
G01X66420Y40421D01*
G01X66463Y40365D01*
G01X66499Y40301D01*
G01X66523Y40230D01*
G01X66532Y40154D01*
G01X66528Y40103D01*
G01X66518Y40054D01*
G01X66500Y40010D01*
G01X66477Y39968D01*
G01X66447Y39931D01*
G01X66412Y39898D01*
G01X66371Y39869D01*
G01X66325Y39845D01*
G01X66275Y39826D01*
G01X66219Y39812D01*
G01X66160Y39804D01*
G01X66097Y39801D01*
G01X66034Y39804D01*
G01X65974Y39813D01*
G01X65919Y39828D01*
G01X65867Y39848D01*
G01X65821Y39873D01*
G01X65779Y39903D01*
G01X65744Y39936D01*
G01X65714Y39975D01*
G01X65690Y40016D01*
G01X65672Y40061D01*
G01X65662Y40109D01*
G01X65658Y40159D01*
G01X65665Y40224D01*
G01X65686Y40282D01*
G01X65718Y40336D01*
G01X65760Y40385D01*
G01X65650Y40474D01*
G01X65600Y40410D01*
G01X65558Y40337D01*
G01X65529Y40252D01*
G01X65518Y40151D01*
G01X65521Y40100D01*
G01X65528Y40049D01*
G01X65540Y40000D01*
G01X65557Y39953D01*
G01X65578Y39908D01*
G01X65605Y39865D01*
G01X65635Y39825D01*
G01X65670Y39787D01*
G01X65709Y39753D01*
G01X65752Y39723D01*
G01X65800Y39696D01*
G01X65852Y39673D01*
G01X65907Y39655D01*
G01X65967Y39642D01*
G01X66030Y39633D01*
G01X66097Y39631D01*
G01X66163Y39633D01*
G01X66225Y39641D01*
G01X66284Y39653D01*
G01X66339Y39670D01*
G01X66390Y39691D01*
G01X66437Y39715D01*
G01X66479Y39744D01*
G01X66519Y39777D01*
G01X66553Y39813D01*
G01X66583Y39852D01*
G01X66609Y39894D01*
G01X66630Y39938D01*
G01X66647Y39985D01*
G01X66659Y40034D01*
G01X66666Y40086D01*
G01X66669Y40139D01*
G01X66666Y40188D01*
G01X66660Y40237D01*
G01X66648Y40284D01*
G01X66632Y40330D01*
G01X66612Y40374D01*
G01X66589Y40416D01*
G01X66561Y40456D01*
G37*

%LPD*%
G36*
G01X66561Y39474D02*
G01X66529Y39511D01*
G01X66420Y39438D01*
G01X66463Y39382D01*
G01X66499Y39318D01*
G01X66523Y39248D01*
G01X66532Y39173D01*
G01X66528Y39122D01*
G01X66518Y39073D01*
G01X66500Y39028D01*
G01X66477Y38986D01*
G01X66447Y38949D01*
G01X66412Y38915D01*
G01X66371Y38887D01*
G01X66325Y38862D01*
G01X66275Y38843D01*
G01X66219Y38829D01*
G01X66160Y38821D01*
G01X66097Y38818D01*
G01X66034Y38821D01*
G01X65974Y38830D01*
G01X65919Y38845D01*
G01X65867Y38865D01*
G01X65821Y38890D01*
G01X65779Y38920D01*
G01X65744Y38953D01*
G01X65714Y38992D01*
G01X65690Y39033D01*
G01X65672Y39078D01*
G01X65662Y39126D01*
G01X65658Y39176D01*
G01X65665Y39241D01*
G01X65686Y39300D01*
G01X65718Y39354D01*
G01X65760Y39405D01*
G01X65650Y39491D01*
G01X65600Y39429D01*
G01X65558Y39357D01*
G01X65529Y39271D01*
G01X65518Y39171D01*
G01X65521Y39119D01*
G01X65528Y39068D01*
G01X65540Y39019D01*
G01X65557Y38971D01*
G01X65578Y38925D01*
G01X65605Y38882D01*
G01X65635Y38842D01*
G01X65670Y38805D01*
G01X65709Y38770D01*
G01X65752Y38740D01*
G01X65800Y38713D01*
G01X65852Y38690D01*
G01X65907Y38672D01*
G01X65967Y38659D01*
G01X66030Y38650D01*
G01X66097Y38648D01*
G01X66163Y38650D01*
G01X66225Y38658D01*
G01X66284Y38670D01*
G01X66339Y38687D01*
G01X66390Y38708D01*
G01X66437Y38733D01*
G01X66479Y38762D01*
G01X66519Y38794D01*
G01X66553Y38830D01*
G01X66583Y38869D01*
G01X66609Y38911D01*
G01X66630Y38956D01*
G01X66647Y39004D01*
G01X66659Y39053D01*
G01X66666Y39105D01*
G01X66669Y39158D01*
G01X66666Y39208D01*
G01X66660Y39257D01*
G01X66648Y39303D01*
G01X66632Y39349D01*
G01X66612Y39392D01*
G01X66589Y39434D01*
G01X66561Y39474D01*
G37*

%LPD*%
G36*
G01X66643Y38353D02*
G01X66643Y38533D01*
G01X65155Y38023D01*
G01X65155Y37837D01*
G01X66643Y37329D01*
G01X66643Y37497D01*
G01X66174Y37649D01*
G01X66174Y38206D01*
G01X66643Y38353D01*
G37*

%LPC*%
G36*
G01X66042Y37693D02*
G01X66042Y38162D01*
G01X65800Y38086D01*
G01X65738Y38065D01*
G01X65675Y38045D01*
G01X65613Y38025D01*
G01X65551Y38006D01*
G01X65488Y37987D01*
G01X65425Y37969D01*
G01X65362Y37950D01*
G01X65297Y37931D01*
G01X65297Y37924D01*
G01X65362Y37905D01*
G01X65426Y37886D01*
G01X65489Y37867D01*
G01X65552Y37849D01*
G01X65614Y37830D01*
G01X65738Y37791D01*
G01X65800Y37771D01*
G01X66042Y37693D01*
G37*

%LPD*%
G01X17147Y28864D02*
G01X17147Y26926D01*
G01X17147Y28864D02*
G01X18348Y28864D01*
G01X17147Y27942D02*
G01X17886Y27942D01*
G01X18958Y28218D02*
G01X18958Y27294D01*
G01X19049Y27017D01*
G01X19234Y26926D01*
G01X19511Y26926D01*
G01X19697Y27017D01*
G01X19974Y27294D01*
G01X19974Y28218D02*
G01X19974Y26926D01*
G01X20583Y28864D02*
G01X20583Y26926D01*
G01X21193Y28864D02*
G01X21193Y26926D01*
G01X21802Y28864D02*
G01X21802Y26926D01*
G01X21802Y28864D02*
G01X22447Y28864D01*
G01X22724Y28772D01*
G01X22910Y28587D01*
G01X23001Y28404D01*
G01X23095Y28124D01*
G01X23095Y27665D01*
G01X23001Y27388D01*
G01X22910Y27202D01*
G01X22724Y27017D01*
G01X22447Y26926D01*
G01X21802Y26926D01*
G01X23705Y28218D02*
G01X23705Y27294D01*
G01X23796Y27017D01*
G01X23982Y26926D01*
G01X24259Y26926D01*
G01X24444Y27017D01*
G01X24721Y27294D01*
G01X24721Y28218D02*
G01X24721Y26926D01*
G01X25330Y28864D02*
G01X25422Y28772D01*
G01X25516Y28864D01*
G01X25422Y28958D01*
G01X25330Y28864D01*
G01X25422Y28218D02*
G01X25422Y26926D01*
G01X26125Y28218D02*
G01X26125Y26926D01*
G01X26125Y27848D02*
G01X26402Y28124D01*
G01X26585Y28218D01*
G01X26862Y28218D01*
G01X27047Y28124D01*
G01X27141Y27848D01*
G01X27141Y26926D01*
G01X28211Y28218D02*
G01X28028Y28124D01*
G01X27842Y27942D01*
G01X27751Y27665D01*
G01X27751Y27479D01*
G01X27842Y27202D01*
G01X28028Y27017D01*
G01X28211Y26926D01*
G01X28488Y26926D01*
G01X28673Y27017D01*
G01X28858Y27202D01*
G01X28950Y27479D01*
G01X28950Y27665D01*
G01X28858Y27942D01*
G01X28673Y28124D01*
G01X28488Y28218D01*
G01X28211Y28218D01*
G54D54*
G01X65661Y35422D02*
G01X65661Y34332D01*
G01X65661Y35422D02*
G01X66128Y35422D01*
G01X66283Y35371D01*
G01X66336Y35320D01*
G01X66387Y35216D01*
G01X66387Y35112D01*
G01X66336Y35008D01*
G01X66283Y34954D01*
G01X66128Y34904D01*
G01X65661Y34904D01*
G01X66024Y34904D02*
G01X66387Y34332D01*
G01X67510Y35163D02*
G01X67459Y35267D01*
G01X67355Y35371D01*
G01X67251Y35422D01*
G01X67042Y35422D01*
G01X66938Y35371D01*
G01X66834Y35267D01*
G01X66783Y35163D01*
G01X66730Y35008D01*
G01X66730Y34749D01*
G01X66783Y34591D01*
G01X66834Y34487D01*
G01X66938Y34383D01*
G01X67042Y34332D01*
G01X67251Y34332D01*
G01X67355Y34383D01*
G01X67459Y34487D01*
G01X67510Y34591D01*
G01X67510Y34749D01*
G01X67251Y34749D02*
G01X67510Y34749D01*
G01X67853Y35422D02*
G01X67853Y34332D01*
G01X67853Y35422D02*
G01X68320Y35422D01*
G01X68477Y35371D01*
G01X68528Y35320D01*
G01X68582Y35216D01*
G01X68582Y35112D01*
G01X68528Y35008D01*
G01X68477Y34954D01*
G01X68320Y34904D01*
G01X67853Y34904D02*
G01X68320Y34904D01*
G01X68477Y34850D01*
G01X68528Y34800D01*
G01X68582Y34695D01*
G01X68582Y34540D01*
G01X68528Y34436D01*
G01X68477Y34383D01*
G01X68320Y34332D01*
G01X67853Y34332D01*

%LPD*%
G36*
G01X18737Y26509D02*
G01X18610Y26509D01*
G01X18549Y26475D01*
G01X18479Y26447D01*
G01X18400Y26425D01*
G01X18310Y26407D01*
G01X18310Y26298D01*
G01X18571Y26298D01*
G01X18571Y25158D01*
G01X18239Y25158D01*
G01X18239Y25021D01*
G01X19039Y25021D01*
G01X19039Y25158D01*
G01X18737Y25158D01*
G01X18737Y26509D01*
G37*

%LPD*%
G36*
G01X17218Y26118D02*
G01X17045Y26118D01*
G01X17446Y25021D01*
G01X17639Y25021D01*
G01X18030Y26118D01*
G01X17868Y26118D01*
G01X17652Y25480D01*
G01X17627Y25398D01*
G01X17600Y25316D01*
G01X17573Y25235D01*
G01X17548Y25158D01*
G01X17540Y25158D01*
G01X17514Y25235D01*
G01X17487Y25316D01*
G01X17461Y25398D01*
G01X17436Y25480D01*
G01X17218Y26118D01*
G37*

%LPD*%
G36*
G01X20332Y26531D02*
G01X20281Y26534D01*
G01X20230Y26531D01*
G01X20181Y26523D01*
G01X20135Y26508D01*
G01X20091Y26488D01*
G01X20051Y26461D01*
G01X20014Y26428D01*
G01X19979Y26390D01*
G01X19948Y26345D01*
G01X19919Y26295D01*
G01X19895Y26238D01*
G01X19873Y26176D01*
G01X19856Y26107D01*
G01X19842Y26032D01*
G01X19832Y25951D01*
G01X19826Y25863D01*
G01X19824Y25770D01*
G01X19826Y25675D01*
G01X19832Y25587D01*
G01X19842Y25505D01*
G01X19856Y25429D01*
G01X19873Y25359D01*
G01X19895Y25296D01*
G01X19919Y25238D01*
G01X19948Y25187D01*
G01X19979Y25142D01*
G01X20014Y25103D01*
G01X20051Y25070D01*
G01X20091Y25043D01*
G01X20135Y25022D01*
G01X20181Y25007D01*
G01X20230Y24998D01*
G01X20281Y24995D01*
G01X20332Y24998D01*
G01X20380Y25007D01*
G01X20426Y25022D01*
G01X20469Y25043D01*
G01X20509Y25070D01*
G01X20547Y25103D01*
G01X20581Y25142D01*
G01X20612Y25187D01*
G01X20640Y25238D01*
G01X20663Y25296D01*
G01X20684Y25359D01*
G01X20701Y25429D01*
G01X20715Y25505D01*
G01X20725Y25587D01*
G01X20731Y25675D01*
G01X20733Y25770D01*
G01X20731Y25863D01*
G01X20725Y25951D01*
G01X20715Y26032D01*
G01X20701Y26107D01*
G01X20684Y26176D01*
G01X20663Y26238D01*
G01X20640Y26295D01*
G01X20612Y26345D01*
G01X20581Y26390D01*
G01X20547Y26428D01*
G01X20509Y26461D01*
G01X20469Y26488D01*
G01X20426Y26508D01*
G01X20380Y26523D01*
G01X20332Y26531D01*
G37*

%LPC*%
G36*
G01X20324Y26396D02*
G01X20281Y26400D01*
G01X20238Y26396D01*
G01X20197Y26383D01*
G01X20159Y26362D01*
G01X20125Y26333D01*
G01X20093Y26295D01*
G01X20065Y26248D01*
G01X20042Y26191D01*
G01X20021Y26126D01*
G01X20005Y26051D01*
G01X19993Y25967D01*
G01X19986Y25873D01*
G01X19984Y25770D01*
G01X19986Y25664D01*
G01X19993Y25569D01*
G01X20005Y25483D01*
G01X20021Y25407D01*
G01X20042Y25340D01*
G01X20065Y25283D01*
G01X20093Y25235D01*
G01X20125Y25196D01*
G01X20159Y25165D01*
G01X20197Y25144D01*
G01X20238Y25131D01*
G01X20281Y25127D01*
G01X20324Y25131D01*
G01X20363Y25144D01*
G01X20400Y25165D01*
G01X20434Y25196D01*
G01X20465Y25235D01*
G01X20493Y25283D01*
G01X20517Y25340D01*
G01X20536Y25407D01*
G01X20552Y25483D01*
G01X20563Y25569D01*
G01X20570Y25664D01*
G01X20573Y25770D01*
G01X20570Y25873D01*
G01X20563Y25967D01*
G01X20552Y26051D01*
G01X20536Y26126D01*
G01X20517Y26191D01*
G01X20493Y26248D01*
G01X20465Y26295D01*
G01X20434Y26333D01*
G01X20400Y26362D01*
G01X20363Y26383D01*
G01X20324Y26396D01*
G37*

%LPD*%
G36*
G01X19494Y25250D02*
G01X19445Y25259D01*
G01X19398Y25250D01*
G01X19358Y25222D01*
G01X19331Y25180D01*
G01X19321Y25125D01*
G01X19331Y25071D01*
G01X19358Y25030D01*
G01X19398Y25004D01*
G01X19445Y24995D01*
G01X19494Y25004D01*
G01X19535Y25030D01*
G01X19562Y25071D01*
G01X19572Y25125D01*
G01X19562Y25180D01*
G01X19535Y25222D01*
G01X19494Y25250D01*
G37*

%LPD*%
G01X9526Y68073D02*
G01X9526Y66981D01*
G01X9526Y68073D02*
G01X9994Y68073D01*
G01X10149Y68020D01*
G01X10202Y67969D01*
G01X10253Y67865D01*
G01X10253Y67761D01*
G01X10202Y67657D01*
G01X10149Y67606D01*
G01X9994Y67553D01*
G01X9526Y67553D01*
G01X9890Y67553D02*
G01X10253Y66981D01*
G01X10596Y67398D02*
G01X11221Y67398D01*
G01X11221Y67502D01*
G01X11167Y67606D01*
G01X11117Y67657D01*
G01X11012Y67710D01*
G01X10857Y67710D01*
G01X10753Y67657D01*
G01X10649Y67553D01*
G01X10596Y67398D01*
G01X10596Y67294D01*
G01X10649Y67139D01*
G01X10753Y67035D01*
G01X10857Y66981D01*
G01X11012Y66981D01*
G01X11117Y67035D01*
G01X11221Y67139D01*
G01X12135Y67553D02*
G01X12082Y67657D01*
G01X11927Y67710D01*
G01X11772Y67710D01*
G01X11614Y67657D01*
G01X11564Y67553D01*
G01X11614Y67449D01*
G01X11719Y67398D01*
G01X11978Y67347D01*
G01X12082Y67294D01*
G01X12135Y67190D01*
G01X12135Y67139D01*
G01X12082Y67035D01*
G01X11927Y66981D01*
G01X11772Y66981D01*
G01X11614Y67035D01*
G01X11564Y67139D01*
G01X12478Y67398D02*
G01X13100Y67398D01*
G01X13100Y67502D01*
G01X13049Y67606D01*
G01X12996Y67657D01*
G01X12892Y67710D01*
G01X12737Y67710D01*
G01X12633Y67657D01*
G01X12529Y67553D01*
G01X12478Y67398D01*
G01X12478Y67294D01*
G01X12529Y67139D01*
G01X12633Y67035D01*
G01X12737Y66981D01*
G01X12892Y66981D01*
G01X12996Y67035D01*
G01X13100Y67139D01*
G01X13601Y68073D02*
G01X13601Y67190D01*
G01X13651Y67035D01*
G01X13756Y66981D01*
G01X13860Y66981D01*
G01X13443Y67710D02*
G01X13806Y67710D01*
G01X3286Y39867D02*
G01X3286Y38777D01*
G01X2923Y39867D02*
G01X3649Y39867D01*
G01X3992Y39867D02*
G01X4721Y38777D01*
G01X4721Y39867D02*
G01X3992Y38777D01*
G01X2923Y45849D02*
G01X2923Y44759D01*
G01X2923Y45849D02*
G01X3390Y45849D01*
G01X3545Y45798D01*
G01X3598Y45747D01*
G01X3649Y45643D01*
G01X3649Y45539D01*
G01X3598Y45435D01*
G01X3545Y45381D01*
G01X3390Y45330D01*
G01X2923Y45330D01*
G01X3286Y45330D02*
G01X3649Y44759D01*
G01X3992Y45849D02*
G01X4721Y44759D01*
G01X4721Y45849D02*
G01X3992Y44759D01*
G01X1653Y28183D02*
G01X1653Y27093D01*
G01X1653Y28183D02*
G01X2120Y28183D01*
G01X2275Y28132D01*
G01X2328Y28081D01*
G01X2379Y27977D01*
G01X2379Y27820D01*
G01X2328Y27715D01*
G01X2275Y27665D01*
G01X2120Y27611D01*
G01X1653Y27611D01*
G01X2983Y27820D02*
G01X2879Y27769D01*
G01X2775Y27665D01*
G01X2722Y27510D01*
G01X2722Y27406D01*
G01X2775Y27248D01*
G01X2879Y27144D01*
G01X2983Y27093D01*
G01X3138Y27093D01*
G01X3243Y27144D01*
G01X3347Y27248D01*
G01X3397Y27406D01*
G01X3397Y27510D01*
G01X3347Y27665D01*
G01X3243Y27769D01*
G01X3138Y27820D01*
G01X2983Y27820D01*
G01X3740Y27820D02*
G01X3949Y27093D01*
G01X4157Y27820D02*
G01X3949Y27093D01*
G01X4157Y27820D02*
G01X4365Y27093D01*
G01X4574Y27820D02*
G01X4365Y27093D01*
G01X4916Y27510D02*
G01X5539Y27510D01*
G01X5539Y27611D01*
G01X5488Y27715D01*
G01X5435Y27769D01*
G01X5330Y27820D01*
G01X5175Y27820D01*
G01X5071Y27769D01*
G01X4967Y27665D01*
G01X4916Y27510D01*
G01X4916Y27406D01*
G01X4967Y27248D01*
G01X5071Y27144D01*
G01X5175Y27093D01*
G01X5330Y27093D01*
G01X5435Y27144D01*
G01X5539Y27248D01*
G01X5882Y27820D02*
G01X5882Y27093D01*
G01X5882Y27510D02*
G01X5932Y27665D01*
G01X6037Y27769D01*
G01X6141Y27820D01*
G01X6298Y27820D01*
G01X34546Y13537D02*
G01X34546Y12448D01*
G01X34546Y13537D02*
G01X35013Y13537D01*
G01X35168Y13486D01*
G01X35221Y13433D01*
G01X35272Y13329D01*
G01X35272Y13174D01*
G01X35221Y13070D01*
G01X35168Y13019D01*
G01X35013Y12966D01*
G01X34546Y12966D01*
G01X35876Y13174D02*
G01X35772Y13123D01*
G01X35668Y13019D01*
G01X35615Y12862D01*
G01X35615Y12757D01*
G01X35668Y12602D01*
G01X35772Y12498D01*
G01X35876Y12448D01*
G01X36031Y12448D01*
G01X36136Y12498D01*
G01X36240Y12602D01*
G01X36290Y12757D01*
G01X36290Y12862D01*
G01X36240Y13019D01*
G01X36136Y13123D01*
G01X36031Y13174D01*
G01X35876Y13174D01*
G01X36791Y13537D02*
G01X36791Y12653D01*
G01X36842Y12498D01*
G01X36946Y12448D01*
G01X37050Y12448D01*
G01X36633Y13174D02*
G01X36997Y13174D01*
G01X37393Y12862D02*
G01X38015Y12862D01*
G01X38015Y12966D01*
G01X37964Y13070D01*
G01X37911Y13123D01*
G01X37809Y13174D01*
G01X37652Y13174D01*
G01X37548Y13123D01*
G01X37444Y13019D01*
G01X37393Y12862D01*
G01X37393Y12757D01*
G01X37444Y12602D01*
G01X37548Y12498D01*
G01X37652Y12448D01*
G01X37809Y12448D01*
G01X37911Y12498D01*
G01X38015Y12602D01*
G01X38358Y13174D02*
G01X38358Y12448D01*
G01X38358Y12966D02*
G01X38516Y13123D01*
G01X38620Y13174D01*
G01X38775Y13174D01*
G01X38879Y13123D01*
G01X38930Y12966D01*
G01X38930Y12448D01*
G01X39430Y13537D02*
G01X39430Y12653D01*
G01X39481Y12498D01*
G01X39585Y12448D01*
G01X39689Y12448D01*
G01X39272Y13174D02*
G01X39638Y13174D01*
G01X40032Y13537D02*
G01X40083Y13486D01*
G01X40136Y13537D01*
G01X40083Y13591D01*
G01X40032Y13537D01*
G01X40083Y13174D02*
G01X40083Y12448D01*
G01X40738Y13174D02*
G01X40634Y13123D01*
G01X40530Y13019D01*
G01X40479Y12862D01*
G01X40479Y12757D01*
G01X40530Y12602D01*
G01X40634Y12498D01*
G01X40738Y12448D01*
G01X40896Y12448D01*
G01X40997Y12498D01*
G01X41101Y12602D01*
G01X41155Y12757D01*
G01X41155Y12862D01*
G01X41101Y13019D01*
G01X40997Y13123D01*
G01X40896Y13174D01*
G01X40738Y13174D01*
G01X41497Y13174D02*
G01X41497Y12448D01*
G01X41497Y12966D02*
G01X41652Y13123D01*
G01X41757Y13174D01*
G01X41912Y13174D01*
G01X42016Y13123D01*
G01X42069Y12966D01*
G01X42069Y12448D01*
G01X42069Y12966D02*
G01X42224Y13123D01*
G01X42328Y13174D01*
G01X42483Y13174D01*
G01X42587Y13123D01*
G01X42640Y12966D01*
G01X42640Y12448D01*
G01X42983Y12862D02*
G01X43606Y12862D01*
G01X43606Y12966D01*
G01X43555Y13070D01*
G01X43502Y13123D01*
G01X43397Y13174D01*
G01X43242Y13174D01*
G01X43138Y13123D01*
G01X43034Y13019D01*
G01X42983Y12862D01*
G01X42983Y12757D01*
G01X43034Y12602D01*
G01X43138Y12498D01*
G01X43242Y12448D01*
G01X43397Y12448D01*
G01X43502Y12498D01*
G01X43606Y12602D01*
G01X44106Y13537D02*
G01X44106Y12653D01*
G01X44157Y12498D01*
G01X44261Y12448D01*
G01X44365Y12448D01*
G01X43949Y13174D02*
G01X44312Y13174D01*
G01X44708Y12862D02*
G01X45330Y12862D01*
G01X45330Y12966D01*
G01X45280Y13070D01*
G01X45226Y13123D01*
G01X45125Y13174D01*
G01X44967Y13174D01*
G01X44863Y13123D01*
G01X44759Y13019D01*
G01X44708Y12862D01*
G01X44708Y12757D01*
G01X44759Y12602D01*
G01X44863Y12498D01*
G01X44967Y12448D01*
G01X45125Y12448D01*
G01X45226Y12498D01*
G01X45330Y12602D01*
G01X45673Y13174D02*
G01X45673Y12448D01*
G01X45673Y12862D02*
G01X45727Y13019D01*
G01X45831Y13123D01*
G01X45935Y13174D01*
G01X46090Y13174D01*
G01X36070Y28831D02*
G01X36070Y27741D01*
G01X36070Y28831D02*
G01X36537Y28831D01*
G01X36692Y28780D01*
G01X36745Y28729D01*
G01X36796Y28625D01*
G01X36796Y28521D01*
G01X36745Y28416D01*
G01X36692Y28363D01*
G01X36537Y28312D01*
G01X36070Y28312D02*
G01X36537Y28312D01*
G01X36692Y28259D01*
G01X36745Y28208D01*
G01X36796Y28104D01*
G01X36796Y27949D01*
G01X36745Y27845D01*
G01X36692Y27792D01*
G01X36537Y27741D01*
G01X36070Y27741D01*
G01X37139Y28467D02*
G01X37139Y27949D01*
G01X37192Y27792D01*
G01X37296Y27741D01*
G01X37451Y27741D01*
G01X37555Y27792D01*
G01X37710Y27949D01*
G01X37710Y28467D02*
G01X37710Y27741D01*
G01X38625Y28467D02*
G01X38053Y27741D01*
G01X38053Y28467D02*
G01X38625Y28467D01*
G01X38053Y27741D02*
G01X38625Y27741D01*
G01X39539Y28467D02*
G01X38968Y27741D01*
G01X38968Y28467D02*
G01X39539Y28467D01*
G01X38968Y27741D02*
G01X39539Y27741D01*
G01X39882Y28157D02*
G01X40507Y28157D01*
G01X40507Y28259D01*
G01X40454Y28363D01*
G01X40403Y28416D01*
G01X40299Y28467D01*
G01X40144Y28467D01*
G01X40040Y28416D01*
G01X39935Y28312D01*
G01X39882Y28157D01*
G01X39882Y28053D01*
G01X39935Y27896D01*
G01X40040Y27792D01*
G01X40144Y27741D01*
G01X40299Y27741D01*
G01X40403Y27792D01*
G01X40507Y27896D01*
G01X40850Y28467D02*
G01X40850Y27741D01*
G01X40850Y28157D02*
G01X40901Y28312D01*
G01X41005Y28416D01*
G01X41109Y28467D01*
G01X41264Y28467D01*
G01X49150Y11851D02*
G01X49150Y10758D01*
G01X49150Y11851D02*
G01X49618Y11851D01*
G01X49773Y11797D01*
G01X49826Y11746D01*
G01X49877Y11642D01*
G01X49877Y11538D01*
G01X49826Y11434D01*
G01X49773Y11383D01*
G01X49618Y11330D01*
G01X49150Y11330D02*
G01X49618Y11330D01*
G01X49773Y11279D01*
G01X49826Y11226D01*
G01X49877Y11122D01*
G01X49877Y10967D01*
G01X49826Y10863D01*
G01X49773Y10812D01*
G01X49618Y10758D01*
G01X49150Y10758D01*
G01X50220Y11485D02*
G01X50220Y10967D01*
G01X50273Y10812D01*
G01X50375Y10758D01*
G01X50532Y10758D01*
G01X50636Y10812D01*
G01X50791Y10967D01*
G01X50791Y11485D02*
G01X50791Y10758D01*
G01X51289Y11851D02*
G01X51289Y10967D01*
G01X51342Y10812D01*
G01X51447Y10758D01*
G01X51551Y10758D01*
G01X51134Y11485D02*
G01X51497Y11485D01*
G01X52049Y11851D02*
G01X52049Y10967D01*
G01X52102Y10812D01*
G01X52204Y10758D01*
G01X52308Y10758D01*
G01X51894Y11485D02*
G01X52257Y11485D01*
G01X52912Y11485D02*
G01X52808Y11434D01*
G01X52704Y11330D01*
G01X52651Y11175D01*
G01X52651Y11071D01*
G01X52704Y10913D01*
G01X52808Y10812D01*
G01X52912Y10758D01*
G01X53067Y10758D01*
G01X53171Y10812D01*
G01X53275Y10913D01*
G01X53326Y11071D01*
G01X53326Y11175D01*
G01X53275Y11330D01*
G01X53171Y11434D01*
G01X53067Y11485D01*
G01X52912Y11485D01*
G01X53669Y11485D02*
G01X53669Y10758D01*
G01X53669Y11279D02*
G01X53827Y11434D01*
G01X53931Y11485D01*
G01X54086Y11485D01*
G01X54190Y11434D01*
G01X54241Y11279D01*
G01X54241Y10758D01*
G01X54584Y11226D02*
G01X55518Y11226D01*
G01X55914Y11589D02*
G01X55914Y11642D01*
G01X55965Y11746D01*
G01X56019Y11797D01*
G01X56123Y11851D01*
G01X56331Y11851D01*
G01X56433Y11797D01*
G01X56486Y11746D01*
G01X56537Y11642D01*
G01X56537Y11538D01*
G01X56486Y11434D01*
G01X56382Y11279D01*
G01X55861Y10758D01*
G01X56590Y10758D01*
G01X62105Y11928D02*
G01X62105Y10836D01*
G01X62105Y11928D02*
G01X62572Y11928D01*
G01X62727Y11877D01*
G01X62780Y11824D01*
G01X62831Y11720D01*
G01X62831Y11615D01*
G01X62780Y11511D01*
G01X62727Y11461D01*
G01X62572Y11407D01*
G01X62105Y11407D02*
G01X62572Y11407D01*
G01X62727Y11356D01*
G01X62780Y11306D01*
G01X62831Y11201D01*
G01X62831Y11044D01*
G01X62780Y10940D01*
G01X62727Y10889D01*
G01X62572Y10836D01*
G01X62105Y10836D01*
G01X63174Y11565D02*
G01X63174Y11044D01*
G01X63227Y10889D01*
G01X63331Y10836D01*
G01X63486Y10836D01*
G01X63590Y10889D01*
G01X63745Y11044D01*
G01X63745Y11565D02*
G01X63745Y10836D01*
G01X64246Y11928D02*
G01X64246Y11044D01*
G01X64297Y10889D01*
G01X64401Y10836D01*
G01X64505Y10836D01*
G01X64088Y11565D02*
G01X64454Y11565D01*
G01X65003Y11928D02*
G01X65003Y11044D01*
G01X65056Y10889D01*
G01X65160Y10836D01*
G01X65264Y10836D01*
G01X64848Y11565D02*
G01X65211Y11565D01*
G01X65866Y11565D02*
G01X65762Y11511D01*
G01X65658Y11407D01*
G01X65607Y11252D01*
G01X65607Y11148D01*
G01X65658Y10993D01*
G01X65762Y10889D01*
G01X65866Y10836D01*
G01X66021Y10836D01*
G01X66125Y10889D01*
G01X66230Y10993D01*
G01X66283Y11148D01*
G01X66283Y11252D01*
G01X66230Y11407D01*
G01X66125Y11511D01*
G01X66021Y11565D01*
G01X65866Y11565D01*
G01X66626Y11565D02*
G01X66626Y10836D01*
G01X66626Y11356D02*
G01X66781Y11511D01*
G01X66885Y11565D01*
G01X67040Y11565D01*
G01X67144Y11511D01*
G01X67197Y11356D01*
G01X67197Y10836D01*
G01X67540Y11306D02*
G01X68475Y11306D01*
G01X68922Y11928D02*
G01X69493Y11928D01*
G01X69181Y11511D01*
G01X69336Y11511D01*
G01X69440Y11461D01*
G01X69493Y11407D01*
G01X69544Y11252D01*
G01X69544Y11148D01*
G01X69493Y10993D01*
G01X69389Y10889D01*
G01X69232Y10836D01*
G01X69077Y10836D01*
G01X68922Y10889D01*
G01X68869Y10940D01*
G01X68818Y11044D01*
G01X51309Y17858D02*
G01X51309Y16765D01*
G01X51309Y17858D02*
G01X51777Y17858D01*
G01X51932Y17804D01*
G01X51985Y17754D01*
G01X52036Y17649D01*
G01X52036Y17492D01*
G01X51985Y17388D01*
G01X51932Y17337D01*
G01X51777Y17286D01*
G01X51309Y17286D01*
G01X52379Y17858D02*
G01X52379Y16765D01*
G01X52379Y17286D02*
G01X52536Y17441D01*
G01X52640Y17492D01*
G01X52795Y17492D01*
G01X52900Y17441D01*
G01X52950Y17286D01*
G01X52950Y16765D01*
G01X53555Y17492D02*
G01X53451Y17441D01*
G01X53347Y17337D01*
G01X53293Y17182D01*
G01X53293Y17078D01*
G01X53347Y16920D01*
G01X53451Y16816D01*
G01X53555Y16765D01*
G01X53710Y16765D01*
G01X53814Y16816D01*
G01X53918Y16920D01*
G01X53969Y17078D01*
G01X53969Y17182D01*
G01X53918Y17337D01*
G01X53814Y17441D01*
G01X53710Y17492D01*
G01X53555Y17492D01*
G01X54469Y17858D02*
G01X54469Y16974D01*
G01X54520Y16816D01*
G01X54624Y16765D01*
G01X54728Y16765D01*
G01X54312Y17492D02*
G01X54675Y17492D01*
G01X55330Y17492D02*
G01X55226Y17441D01*
G01X55122Y17337D01*
G01X55071Y17182D01*
G01X55071Y17078D01*
G01X55122Y16920D01*
G01X55226Y16816D01*
G01X55330Y16765D01*
G01X55488Y16765D01*
G01X55589Y16816D01*
G01X55694Y16920D01*
G01X55747Y17078D01*
G01X55747Y17182D01*
G01X55694Y17337D01*
G01X55589Y17441D01*
G01X55488Y17492D01*
G01X55330Y17492D01*
G01X56090Y17233D02*
G01X57024Y17233D01*
G01X57367Y17858D02*
G01X57367Y16765D01*
G01X57367Y17858D02*
G01X57835Y17858D01*
G01X57990Y17804D01*
G01X58043Y17754D01*
G01X58094Y17649D01*
G01X58094Y17545D01*
G01X58043Y17441D01*
G01X57990Y17388D01*
G01X57835Y17337D01*
G01X57367Y17337D01*
G01X57731Y17337D02*
G01X58094Y16765D01*
G01X58437Y17182D02*
G01X59062Y17182D01*
G01X59062Y17286D01*
G01X59008Y17388D01*
G01X58957Y17441D01*
G01X58853Y17492D01*
G01X58698Y17492D01*
G01X58594Y17441D01*
G01X58490Y17337D01*
G01X58437Y17182D01*
G01X58437Y17078D01*
G01X58490Y16920D01*
G01X58594Y16816D01*
G01X58698Y16765D01*
G01X58853Y16765D01*
G01X58957Y16816D01*
G01X59062Y16920D01*
G01X59976Y17337D02*
G01X59923Y17441D01*
G01X59768Y17492D01*
G01X59613Y17492D01*
G01X59455Y17441D01*
G01X59404Y17337D01*
G01X59455Y17233D01*
G01X59559Y17182D01*
G01X59818Y17129D01*
G01X59923Y17078D01*
G01X59976Y16974D01*
G01X59976Y16920D01*
G01X59923Y16816D01*
G01X59768Y16765D01*
G01X59613Y16765D01*
G01X59455Y16816D01*
G01X59404Y16920D01*
G01X60319Y17858D02*
G01X60370Y17804D01*
G01X60423Y17858D01*
G01X60370Y17908D01*
G01X60319Y17858D01*
G01X60370Y17492D02*
G01X60370Y16765D01*
G01X61337Y17337D02*
G01X61284Y17441D01*
G01X61129Y17492D01*
G01X60974Y17492D01*
G01X60817Y17441D01*
G01X60766Y17337D01*
G01X60817Y17233D01*
G01X60921Y17182D01*
G01X61180Y17129D01*
G01X61284Y17078D01*
G01X61337Y16974D01*
G01X61337Y16920D01*
G01X61284Y16816D01*
G01X61129Y16765D01*
G01X60974Y16765D01*
G01X60817Y16816D01*
G01X60766Y16920D01*
G01X61835Y17858D02*
G01X61835Y16974D01*
G01X61889Y16816D01*
G01X61990Y16765D01*
G01X62094Y16765D01*
G01X61680Y17492D02*
G01X62044Y17492D01*
G01X62699Y17492D02*
G01X62595Y17441D01*
G01X62491Y17337D01*
G01X62437Y17182D01*
G01X62437Y17078D01*
G01X62491Y16920D01*
G01X62595Y16816D01*
G01X62699Y16765D01*
G01X62854Y16765D01*
G01X62958Y16816D01*
G01X63062Y16920D01*
G01X63113Y17078D01*
G01X63113Y17182D01*
G01X63062Y17337D01*
G01X62958Y17441D01*
G01X62854Y17492D01*
G01X62699Y17492D01*
G01X63456Y17492D02*
G01X63456Y16765D01*
G01X63456Y17182D02*
G01X63509Y17337D01*
G01X63613Y17441D01*
G01X63717Y17492D01*
G01X63872Y17492D01*
G01X18925Y68531D02*
G01X18925Y67439D01*
G01X18925Y68531D02*
G01X19341Y67439D01*
G01X19755Y68531D02*
G01X19341Y67439D01*
G01X19755Y68531D02*
G01X19755Y67439D01*
G01X20098Y68531D02*
G01X20151Y68480D01*
G01X20202Y68531D01*
G01X20151Y68582D01*
G01X20098Y68531D01*
G01X20151Y68167D02*
G01X20151Y67439D01*
G01X21170Y68010D02*
G01X21066Y68114D01*
G01X20962Y68167D01*
G01X20804Y68167D01*
G01X20703Y68114D01*
G01X20598Y68010D01*
G01X20545Y67855D01*
G01X20545Y67751D01*
G01X20598Y67596D01*
G01X20703Y67492D01*
G01X20804Y67439D01*
G01X20962Y67439D01*
G01X21066Y67492D01*
G01X21170Y67596D01*
G01X21513Y68167D02*
G01X21513Y67439D01*
G01X21513Y67855D02*
G01X21564Y68010D01*
G01X21668Y68114D01*
G01X21772Y68167D01*
G01X21927Y68167D01*
G01X22531Y68167D02*
G01X22427Y68114D01*
G01X22323Y68010D01*
G01X22270Y67855D01*
G01X22270Y67751D01*
G01X22323Y67596D01*
G01X22427Y67492D01*
G01X22531Y67439D01*
G01X22686Y67439D01*
G01X22790Y67492D01*
G01X22895Y67596D01*
G01X22945Y67751D01*
G01X22945Y67855D01*
G01X22895Y68010D01*
G01X22790Y68114D01*
G01X22686Y68167D01*
G01X22531Y68167D01*
G01X23288Y68167D02*
G01X23288Y67075D01*
G01X23288Y68010D02*
G01X23392Y68114D01*
G01X23497Y68167D01*
G01X23651Y68167D01*
G01X23756Y68114D01*
G01X23860Y68010D01*
G01X23913Y67855D01*
G01X23913Y67751D01*
G01X23860Y67596D01*
G01X23756Y67492D01*
G01X23651Y67439D01*
G01X23497Y67439D01*
G01X23392Y67492D01*
G01X23288Y67596D01*
G01X24256Y68531D02*
G01X24256Y67439D01*
G01X24256Y67959D02*
G01X24411Y68114D01*
G01X24515Y68167D01*
G01X24670Y68167D01*
G01X24774Y68114D01*
G01X24827Y67959D01*
G01X24827Y67439D01*
G01X25429Y68167D02*
G01X25325Y68114D01*
G01X25221Y68010D01*
G01X25170Y67855D01*
G01X25170Y67751D01*
G01X25221Y67596D01*
G01X25325Y67492D01*
G01X25429Y67439D01*
G01X25584Y67439D01*
G01X25689Y67492D01*
G01X25793Y67596D01*
G01X25846Y67751D01*
G01X25846Y67855D01*
G01X25793Y68010D01*
G01X25689Y68114D01*
G01X25584Y68167D01*
G01X25429Y68167D01*
G01X26189Y68167D02*
G01X26189Y67439D01*
G01X26189Y67959D02*
G01X26344Y68114D01*
G01X26448Y68167D01*
G01X26603Y68167D01*
G01X26707Y68114D01*
G01X26760Y67959D01*
G01X26760Y67439D01*
G01X27103Y67855D02*
G01X27726Y67855D01*
G01X27726Y67959D01*
G01X27675Y68063D01*
G01X27621Y68114D01*
G01X27517Y68167D01*
G01X27362Y68167D01*
G01X27258Y68114D01*
G01X27154Y68010D01*
G01X27103Y67855D01*
G01X27103Y67751D01*
G01X27154Y67596D01*
G01X27258Y67492D01*
G01X27362Y67439D01*
G01X27517Y67439D01*
G01X27621Y67492D01*
G01X27726Y67596D01*
G01X45145Y68823D02*
G01X45041Y68772D01*
G01X44937Y68668D01*
G01X44883Y68564D01*
G01X44832Y68409D01*
G01X44832Y68147D01*
G01X44883Y67992D01*
G01X44937Y67888D01*
G01X45041Y67784D01*
G01X45145Y67733D01*
G01X45353Y67733D01*
G01X45455Y67784D01*
G01X45559Y67888D01*
G01X45612Y67992D01*
G01X45663Y68147D01*
G01X45663Y68409D01*
G01X45612Y68564D01*
G01X45559Y68668D01*
G01X45455Y68772D01*
G01X45353Y68823D01*
G01X45145Y68823D01*
G01X46006Y68823D02*
G01X46006Y67733D01*
G01X46006Y67733D02*
G01X46631Y67733D01*
G01X46974Y68823D02*
G01X46974Y67733D01*
G01X46974Y68823D02*
G01X47649Y68823D01*
G01X46974Y68305D02*
G01X47388Y68305D01*
G01X46974Y67733D02*
G01X47649Y67733D01*
G01X47992Y68823D02*
G01X47992Y67733D01*
G01X47992Y68823D02*
G01X48355Y68823D01*
G01X48510Y68772D01*
G01X48615Y68668D01*
G01X48668Y68564D01*
G01X48719Y68409D01*
G01X48719Y68147D01*
G01X48668Y67992D01*
G01X48615Y67888D01*
G01X48510Y67784D01*
G01X48355Y67733D01*
G01X47992Y67733D01*
G01X49062Y68201D02*
G01X49996Y68201D01*
G01X50339Y68823D02*
G01X50339Y67733D01*
G01X50339Y68823D02*
G01X50702Y68823D01*
G01X50860Y68772D01*
G01X50964Y68668D01*
G01X51015Y68564D01*
G01X51068Y68409D01*
G01X51068Y68147D01*
G01X51015Y67992D01*
G01X50964Y67888D01*
G01X50860Y67784D01*
G01X50702Y67733D01*
G01X50339Y67733D01*
G01X51411Y68823D02*
G01X51462Y68772D01*
G01X51513Y68823D01*
G01X51462Y68876D01*
G01X51411Y68823D01*
G01X51462Y68460D02*
G01X51462Y67733D01*
G01X52427Y68305D02*
G01X52376Y68409D01*
G01X52221Y68460D01*
G01X52064Y68460D01*
G01X51909Y68409D01*
G01X51856Y68305D01*
G01X51909Y68201D01*
G01X52013Y68147D01*
G01X52272Y68097D01*
G01X52376Y68046D01*
G01X52427Y67942D01*
G01X52427Y67888D01*
G01X52376Y67784D01*
G01X52221Y67733D01*
G01X52064Y67733D01*
G01X51909Y67784D01*
G01X51856Y67888D01*
G01X52770Y68460D02*
G01X52770Y67370D01*
G01X52770Y68305D02*
G01X52874Y68409D01*
G01X52978Y68460D01*
G01X53136Y68460D01*
G01X53240Y68409D01*
G01X53341Y68305D01*
G01X53395Y68147D01*
G01X53395Y68046D01*
G01X53341Y67888D01*
G01X53240Y67784D01*
G01X53136Y67733D01*
G01X52978Y67733D01*
G01X52874Y67784D01*
G01X52770Y67888D01*
G01X53738Y68823D02*
G01X53738Y67733D01*
G01X54703Y68460D02*
G01X54703Y67733D01*
G01X54703Y68305D02*
G01X54599Y68409D01*
G01X54497Y68460D01*
G01X54340Y68460D01*
G01X54236Y68409D01*
G01X54131Y68305D01*
G01X54081Y68147D01*
G01X54081Y68046D01*
G01X54131Y67888D01*
G01X54236Y67784D01*
G01X54340Y67733D01*
G01X54497Y67733D01*
G01X54599Y67784D01*
G01X54703Y67888D01*
G01X55099Y68460D02*
G01X55412Y67733D01*
G01X55721Y68460D02*
G01X55412Y67733D01*
G01X55307Y67525D01*
G01X55203Y67421D01*
G01X55099Y67370D01*
G01X55046Y67370D01*
G01X48020Y55422D02*
G01X47972Y55399D01*
G01X47926Y55351D01*
G01X47901Y55302D01*
G01X47881Y55231D01*
G01X47881Y55120D01*
G01X47901Y55048D01*
G01X47926Y55000D01*
G01X47972Y54954D01*
G01X48020Y54932D01*
G01X48112Y54932D01*
G01X48155Y54954D01*
G01X48201Y55000D01*
G01X48226Y55048D01*
G01X48249Y55120D01*
G01X48249Y55231D01*
G01X48226Y55302D01*
G01X48201Y55351D01*
G01X48155Y55399D01*
G01X48112Y55422D01*
G01X48020Y55422D01*
G01X48401Y55422D02*
G01X48401Y54932D01*
G01X48401Y54932D02*
G01X48678Y54932D01*
G01X48833Y55422D02*
G01X48833Y54932D01*
G01X48833Y55422D02*
G01X49133Y55422D01*
G01X48833Y55186D02*
G01X49016Y55186D01*
G01X48833Y54932D02*
G01X49133Y54932D01*
G01X49283Y55422D02*
G01X49283Y54932D01*
G01X49283Y55422D02*
G01X49445Y55422D01*
G01X49516Y55399D01*
G01X49562Y55351D01*
G01X49582Y55302D01*
G01X49608Y55231D01*
G01X49608Y55120D01*
G01X49582Y55048D01*
G01X49562Y55000D01*
G01X49516Y54954D01*
G01X49445Y54932D01*
G01X49283Y54932D01*
G01X49758Y54772D02*
G01X50177Y54772D01*
G01X50327Y55325D02*
G01X50375Y55351D01*
G01X50441Y55422D01*
G01X50441Y54932D01*
G01X50616Y55302D02*
G01X50616Y55325D01*
G01X50641Y55374D01*
G01X50662Y55399D01*
G01X50710Y55422D01*
G01X50804Y55422D01*
G01X50850Y55399D01*
G01X50870Y55374D01*
G01X50895Y55325D01*
G01X50895Y55280D01*
G01X50870Y55231D01*
G01X50827Y55168D01*
G01X50596Y54932D01*
G01X50916Y54932D01*
G01X51185Y55422D02*
G01X51119Y55399D01*
G01X51091Y55351D01*
G01X51091Y55302D01*
G01X51119Y55254D01*
G01X51165Y55231D01*
G01X51256Y55208D01*
G01X51325Y55186D01*
G01X51373Y55145D01*
G01X51393Y55097D01*
G01X51393Y55026D01*
G01X51373Y54977D01*
G01X51345Y54954D01*
G01X51279Y54932D01*
G01X51185Y54932D01*
G01X51119Y54954D01*
G01X51091Y54977D01*
G01X51071Y55026D01*
G01X51071Y55097D01*
G01X51091Y55145D01*
G01X51139Y55186D01*
G01X51210Y55208D01*
G01X51302Y55231D01*
G01X51345Y55254D01*
G01X51373Y55302D01*
G01X51373Y55351D01*
G01X51345Y55399D01*
G01X51279Y55422D01*
G01X51185Y55422D01*
G01X51548Y55422D02*
G01X51868Y54932D01*
G01X51868Y55422D02*
G01X51548Y54932D01*
G01X52298Y55351D02*
G01X52277Y55399D01*
G01X52209Y55422D01*
G01X52160Y55422D01*
G01X52089Y55399D01*
G01X52044Y55325D01*
G01X52023Y55208D01*
G01X52023Y55097D01*
G01X52044Y55000D01*
G01X52089Y54954D01*
G01X52160Y54932D01*
G01X52186Y54932D01*
G01X52254Y54954D01*
G01X52298Y55000D01*
G01X52323Y55071D01*
G01X52323Y55097D01*
G01X52298Y55168D01*
G01X52254Y55208D01*
G01X52186Y55231D01*
G01X52160Y55231D01*
G01X52089Y55208D01*
G01X52044Y55168D01*
G01X52023Y55097D01*
G01X52707Y55422D02*
G01X52473Y55097D01*
G01X52821Y55097D01*
G01X52707Y55422D02*
G01X52707Y54932D01*
G01X60133Y38673D02*
G01X60387Y38673D01*
G01X60250Y38485D01*
G01X60319Y38485D01*
G01X60365Y38465D01*
G01X60387Y38439D01*
G01X60410Y38373D01*
G01X60410Y38325D01*
G01X60387Y38254D01*
G01X60342Y38211D01*
G01X60273Y38185D01*
G01X60202Y38185D01*
G01X60133Y38211D01*
G01X60111Y38231D01*
G01X60088Y38279D01*
G01X60702Y38673D02*
G01X60634Y38648D01*
G01X60586Y38579D01*
G01X60563Y38465D01*
G01X60563Y38394D01*
G01X60586Y38279D01*
G01X60634Y38211D01*
G01X60702Y38185D01*
G01X60748Y38185D01*
G01X60817Y38211D01*
G01X60862Y38279D01*
G01X60888Y38394D01*
G01X60888Y38465D01*
G01X60862Y38579D01*
G01X60817Y38648D01*
G01X60748Y38673D01*
G01X60702Y38673D01*
G01X66730Y15302D02*
G01X67507Y15302D01*
G01X67665Y15353D01*
G01X67769Y15457D01*
G01X67820Y15615D01*
G01X67820Y15719D01*
G01X67769Y15874D01*
G01X67665Y15978D01*
G01X67507Y16029D01*
G01X66730Y16029D01*
G01X66730Y16372D02*
G01X67820Y16372D01*
G01X66730Y16872D02*
G01X67611Y16872D01*
G01X67769Y16923D01*
G01X67820Y17027D01*
G01X67820Y17131D01*
G01X67093Y16715D02*
G01X67093Y17080D01*
G01X67093Y17474D02*
G01X67820Y17474D01*
G01X67403Y17474D02*
G01X67248Y17525D01*
G01X67144Y17629D01*
G01X67093Y17733D01*
G01X67093Y17891D01*
G01X67093Y18856D02*
G01X67820Y18856D01*
G01X67248Y18856D02*
G01X67144Y18752D01*
G01X67093Y18648D01*
G01X67093Y18493D01*
G01X67144Y18389D01*
G01X67248Y18284D01*
G01X67403Y18234D01*
G01X67507Y18234D01*
G01X67665Y18284D01*
G01X67769Y18389D01*
G01X67820Y18493D01*
G01X67820Y18648D01*
G01X67769Y18752D01*
G01X67665Y18856D01*
G01X67248Y19770D02*
G01X67144Y19720D01*
G01X67093Y19562D01*
G01X67093Y19407D01*
G01X67144Y19252D01*
G01X67248Y19199D01*
G01X67352Y19252D01*
G01X67403Y19354D01*
G01X67456Y19615D01*
G01X67507Y19720D01*
G01X67611Y19770D01*
G01X67665Y19770D01*
G01X67769Y19720D01*
G01X67820Y19562D01*
G01X67820Y19407D01*
G01X67769Y19252D01*
G01X67665Y19199D01*
G01X67093Y20372D02*
G01X67144Y20268D01*
G01X67248Y20167D01*
G01X67403Y20113D01*
G01X67507Y20113D01*
G01X67665Y20167D01*
G01X67769Y20268D01*
G01X67820Y20372D01*
G01X67820Y20530D01*
G01X67769Y20634D01*
G01X67665Y20738D01*
G01X67507Y20789D01*
G01X67403Y20789D01*
G01X67248Y20738D01*
G01X67144Y20634D01*
G01X67093Y20530D01*
G01X67093Y20372D01*
G01X67093Y21132D02*
G01X67820Y21132D01*
G01X67301Y21132D02*
G01X67144Y21287D01*
G01X67093Y21391D01*
G01X67093Y21548D01*
G01X67144Y21652D01*
G01X67301Y21703D01*
G01X67820Y21703D01*
G01X66730Y22046D02*
G01X66781Y22097D01*
G01X66730Y22150D01*
G01X66677Y22097D01*
G01X66730Y22046D01*
G01X67093Y22097D02*
G01X67820Y22097D01*
G01X67248Y23116D02*
G01X67144Y23011D01*
G01X67093Y22910D01*
G01X67093Y22752D01*
G01X67144Y22648D01*
G01X67248Y22544D01*
G01X67403Y22493D01*
G01X67507Y22493D01*
G01X67665Y22544D01*
G01X67769Y22648D01*
G01X67820Y22752D01*
G01X67820Y22910D01*
G01X67769Y23011D01*
G01X67665Y23116D01*
G01X47118Y33276D02*
G01X47118Y32186D01*
G01X47118Y33276D02*
G01X47586Y33276D01*
G01X47741Y33225D01*
G01X47794Y33174D01*
G01X47845Y33070D01*
G01X47845Y32966D01*
G01X47794Y32862D01*
G01X47741Y32808D01*
G01X47586Y32757D01*
G01X47118Y32757D01*
G01X47482Y32757D02*
G01X47845Y32186D01*
G01X48188Y32602D02*
G01X48813Y32602D01*
G01X48813Y32704D01*
G01X48759Y32808D01*
G01X48708Y32862D01*
G01X48604Y32912D01*
G01X48449Y32912D01*
G01X48345Y32862D01*
G01X48241Y32757D01*
G01X48188Y32602D01*
G01X48188Y32498D01*
G01X48241Y32341D01*
G01X48345Y32237D01*
G01X48449Y32186D01*
G01X48604Y32186D01*
G01X48708Y32237D01*
G01X48813Y32341D01*
G01X49778Y33276D02*
G01X49778Y32186D01*
G01X49778Y32757D02*
G01X49674Y32862D01*
G01X49570Y32912D01*
G01X49415Y32912D01*
G01X49310Y32862D01*
G01X49206Y32757D01*
G01X49156Y32602D01*
G01X49156Y32498D01*
G01X49206Y32341D01*
G01X49310Y32237D01*
G01X49415Y32186D01*
G01X49570Y32186D01*
G01X49674Y32237D01*
G01X49778Y32341D01*
G01X52089Y33016D02*
G01X52036Y33121D01*
G01X51932Y33225D01*
G01X51830Y33276D01*
G01X51622Y33276D01*
G01X51518Y33225D01*
G01X51414Y33121D01*
G01X51360Y33016D01*
G01X51310Y32862D01*
G01X51310Y32602D01*
G01X51360Y32445D01*
G01X51414Y32341D01*
G01X51518Y32237D01*
G01X51622Y32186D01*
G01X51830Y32186D01*
G01X51932Y32237D01*
G01X52036Y32341D01*
G01X52089Y32445D01*
G01X52089Y32602D01*
G01X51830Y32602D02*
G01X52089Y32602D01*
G01X52432Y32912D02*
G01X52432Y32186D01*
G01X52432Y32602D02*
G01X52483Y32757D01*
G01X52587Y32862D01*
G01X52691Y32912D01*
G01X52846Y32912D01*
G01X53189Y32602D02*
G01X53814Y32602D01*
G01X53814Y32704D01*
G01X53761Y32808D01*
G01X53710Y32862D01*
G01X53606Y32912D01*
G01X53451Y32912D01*
G01X53347Y32862D01*
G01X53242Y32757D01*
G01X53189Y32602D01*
G01X53189Y32498D01*
G01X53242Y32341D01*
G01X53347Y32237D01*
G01X53451Y32186D01*
G01X53606Y32186D01*
G01X53710Y32237D01*
G01X53814Y32341D01*
G01X54157Y32602D02*
G01X54779Y32602D01*
G01X54779Y32704D01*
G01X54728Y32808D01*
G01X54675Y32862D01*
G01X54573Y32912D01*
G01X54416Y32912D01*
G01X54312Y32862D01*
G01X54208Y32757D01*
G01X54157Y32602D01*
G01X54157Y32498D01*
G01X54208Y32341D01*
G01X54312Y32237D01*
G01X54416Y32186D01*
G01X54573Y32186D01*
G01X54675Y32237D01*
G01X54779Y32341D01*
G01X55122Y32912D02*
G01X55122Y32186D01*
G01X55122Y32704D02*
G01X55280Y32862D01*
G01X55384Y32912D01*
G01X55539Y32912D01*
G01X55643Y32862D01*
G01X55694Y32704D01*
G01X55694Y32186D01*
G01X57278Y33263D02*
G01X57278Y32173D01*
G01X57278Y33263D02*
G01X57745Y33263D01*
G01X57903Y33212D01*
G01X57953Y33161D01*
G01X58007Y33057D01*
G01X58007Y32953D01*
G01X57953Y32849D01*
G01X57903Y32795D01*
G01X57745Y32745D01*
G01X57278Y32745D02*
G01X57745Y32745D01*
G01X57903Y32691D01*
G01X57953Y32640D01*
G01X58007Y32536D01*
G01X58007Y32381D01*
G01X57953Y32277D01*
G01X57903Y32224D01*
G01X57745Y32173D01*
G01X57278Y32173D01*
G01X58350Y33263D02*
G01X58350Y32173D01*
G01X58693Y32900D02*
G01X58693Y32381D01*
G01X58743Y32224D01*
G01X58848Y32173D01*
G01X59003Y32173D01*
G01X59107Y32224D01*
G01X59264Y32381D01*
G01X59264Y32900D02*
G01X59264Y32173D01*
G01X59607Y32590D02*
G01X60229Y32590D01*
G01X60229Y32691D01*
G01X60179Y32795D01*
G01X60125Y32849D01*
G01X60021Y32900D01*
G01X59866Y32900D01*
G01X59762Y32849D01*
G01X59658Y32745D01*
G01X59607Y32590D01*
G01X59607Y32486D01*
G01X59658Y32328D01*
G01X59762Y32224D01*
G01X59866Y32173D01*
G01X60021Y32173D01*
G01X60125Y32224D01*
G01X60229Y32328D01*
G01X7949Y35689D02*
G01X6860Y35689D01*
G01X7690Y34566D02*
G01X7794Y34619D01*
G01X7898Y34723D01*
G01X7949Y34825D01*
G01X7949Y35033D01*
G01X7898Y35137D01*
G01X7794Y35241D01*
G01X7690Y35295D01*
G01X7535Y35346D01*
G01X7276Y35346D01*
G01X7119Y35295D01*
G01X7014Y35241D01*
G01X6910Y35137D01*
G01X6860Y35033D01*
G01X6860Y34825D01*
G01X6910Y34723D01*
G01X7014Y34619D01*
G01X7119Y34566D01*
G01X7794Y33497D02*
G01X7898Y33601D01*
G01X7949Y33756D01*
G01X7949Y33964D01*
G01X7898Y34119D01*
G01X7794Y34223D01*
G01X7690Y34223D01*
G01X7586Y34172D01*
G01X7535Y34119D01*
G01X7482Y34015D01*
G01X7378Y33705D01*
G01X7327Y33601D01*
G01X7276Y33547D01*
G01X7172Y33497D01*
G01X7014Y33497D01*
G01X6910Y33601D01*
G01X6860Y33756D01*
G01X6860Y33964D01*
G01X6910Y34119D01*
G01X7014Y34223D01*
G01X7949Y33154D02*
G01X6860Y33154D01*
G01X7949Y33154D02*
G01X7949Y32686D01*
G01X7898Y32529D01*
G01X7848Y32478D01*
G01X7743Y32425D01*
G01X7586Y32425D01*
G01X7482Y32478D01*
G01X7431Y32529D01*
G01X7378Y32686D01*
G01X7378Y33154D01*
G54D52*
G75*
G01X17909Y44985D02*
G03X17909Y44988I200J2D01*
G01*
G54D10*
G75*
G01X7114Y5590D02*
G03X13268Y5537I3083J646D01*
G01*
G75*
G01X13210Y6860D02*
G03X7056Y6913I-3083J-646D01*
G01*
G54D53*
G75*
G01X21506Y39148D02*
G03X21506Y39146I-150J-1D01*
G01*
G54D52*
G75*
G01X23657Y37647D02*
G03X23657Y37645I-200J-1D01*
G01*
G54D10*
G75*
G01X40881Y6987D02*
G03X40881Y6962I-1354J-13D01*
G01*
G75*
G01X55051Y19884D02*
G03X59453Y19884I2201J861D01*
G01*
G75*
G01X59453Y22182D02*
G03X55051Y22383I-2240J-764D01*
G01*
G75*
G01X54429Y27712D02*
G03X54792Y30966I-960J1754D01*
G01*
G75*
G01X52146Y30966D02*
G03X52509Y27712I1323J-1500D01*
G01*
G75*
G01X59726Y28395D02*
G03X59710Y30553I-1050J1071D01*
G01*
G75*
G01X59726Y27823D02*
G03X59922Y30966I-1050J1643D01*
G01*
G75*
G01X57642Y30553D02*
G03X57626Y28395I1034J-1087D01*
G01*
G75*
G01X57430Y30966D02*
G03X57626Y27823I1246J-1500D01*
G01*
G75*
G01X69685Y30863D02*
G03X69685Y30863I-2500J0D01*
G01*
G75*
G01X70085Y30863D02*
G03X70085Y30863I-2900J0D01*
G01*
G75*
G01X13037Y63246D02*
G03X13037Y63246I-1700J0D01*
G01*
G75*
G01X44597Y20927D02*
G03X44597Y20927I-5999J0D01*
G01*
G75*
G01X54504Y6864D02*
G03X54504Y6864I-1700J0D01*
G01*
G75*
G01X67458Y6864D02*
G03X67458Y6864I-1700J0D01*
G01*
G75*
G01X25962Y63502D02*
G03X25962Y63502I-3100J0D01*
G01*
G75*
G01X49889Y29466D02*
G03X49889Y29466I-1500J0D01*
G01*
G75*
G01X50289Y29466D02*
G03X50289Y29466I-1900J0D01*
G01*
G75*
G01X891Y36705D02*
G03X891Y36705I-127J0D01*
G01*

%LPD*%
G36*
G01X8322Y5590D02*
G01X7175Y5590D01*
G01X7121Y5535D01*
G01X7121Y5139D01*
G01X7622Y4447D01*
G01X7687Y4320D01*
G01X8322Y3812D01*
G01X8322Y5590D01*
G37*

%LPD*%
G36*
G01X8307Y6860D02*
G01X8307Y8638D01*
G01X7622Y8130D01*
G01X7571Y7901D01*
G01X7056Y7310D01*
G01X7056Y6914D01*
G01X7110Y6860D01*
G01X8307Y6860D01*
G37*

%LPD*%
G36*
G01X23176Y22546D02*
G01X23154Y22546D01*
G01X23134Y22544D01*
G01X23113Y22540D01*
G01X23093Y22534D01*
G01X23073Y22526D01*
G01X23054Y22517D01*
G01X23037Y22505D01*
G01X23020Y22492D01*
G01X23005Y22477D01*
G01X22992Y22461D01*
G01X22980Y22444D01*
G01X22969Y22425D01*
G01X22961Y22406D01*
G01X22954Y22386D01*
G01X22950Y22365D01*
G01X22947Y22345D01*
G01X22946Y22323D01*
G01X22948Y22302D01*
G01X22951Y22282D01*
G01X22957Y22261D01*
G01X22964Y22242D01*
G01X22974Y22223D01*
G01X22985Y22205D01*
G01X22997Y22188D01*
G01X23012Y22172D01*
G01X23027Y22158D01*
G01X23044Y22146D01*
G01X23063Y22135D01*
G01X23082Y22126D01*
G01X23101Y22119D01*
G01X23122Y22114D01*
G01X23143Y22111D01*
G01X23164Y22110D01*
G01X23166Y22110D01*
G01X23187Y22111D01*
G01X23208Y22114D01*
G01X23229Y22119D01*
G01X23248Y22126D01*
G01X23268Y22135D01*
G01X23286Y22146D01*
G01X23303Y22158D01*
G01X23318Y22172D01*
G01X23333Y22188D01*
G01X23345Y22205D01*
G01X23356Y22223D01*
G01X23366Y22242D01*
G01X23373Y22261D01*
G01X23379Y22282D01*
G01X23382Y22302D01*
G01X23384Y22323D01*
G01X23383Y22345D01*
G01X23380Y22365D01*
G01X23376Y22386D01*
G01X23369Y22406D01*
G01X23361Y22425D01*
G01X23351Y22444D01*
G01X23338Y22461D01*
G01X23325Y22477D01*
G01X23310Y22492D01*
G01X23293Y22505D01*
G01X23276Y22517D01*
G01X23257Y22526D01*
G01X23237Y22534D01*
G01X23217Y22540D01*
G01X23197Y22544D01*
G01X23176Y22546D01*
G37*
M00*
M02*
