G04 Layer: BottomLayer*
G04 EasyEDA v6.4.7, 2020-10-11T20:05:18--4:00*
G04 e6b0d2e49f2c434995fed72e9f85cac0,1eb4b4baf0c945e885b29d49d8d6ac6e,10*
G04 Gerber Generator version 0.2*
G04 Scale: 100 percent, Rotated: No, Reflected: No *
G04 Dimensions in millimeters *
G04 leading zeros omitted , absolute positions ,3 integer and 3 decimal *
%FSLAX33Y33*%
%MOMM*%
G90*
D02*

%ADD11C,0.159995*%
%ADD16C,0.610006*%
%ADD35C,0.999998*%
%ADD36C,1.524000*%
%ADD37C,1.778000*%
%ADD39C,1.299997*%
%ADD40R,1.799996X1.799996*%
%ADD41C,1.799996*%
%ADD42R,1.599997X1.524000*%
%ADD43C,1.599997*%
%ADD44C,1.651000*%

%LPD*%
G54D11*
G01X9290Y56910D02*
G01X9290Y47799D01*
G01X10631Y46458D01*
G01X10631Y46458D02*
G01X10631Y42127D01*
G01X5209Y36705D01*
G01X10725Y25798D02*
G01X10725Y27644D01*
G01X5475Y32895D01*
G01X4927Y32895D01*
G01X4147Y33672D01*
G01X4147Y35643D01*
G01X5209Y36705D01*
G01X57152Y19382D02*
G01X50352Y12582D01*
G01X50352Y5968D01*
G01X21360Y49554D02*
G01X22864Y51058D01*
G01X18566Y45066D02*
G01X18566Y46933D01*
G01X21188Y49554D01*
G01X21360Y49554D01*
G01X23811Y63502D02*
G01X23811Y52178D01*
G01X21360Y49727D01*
G01X21360Y49554D01*
G01X39514Y46882D02*
G01X39514Y43822D01*
G01X45028Y38307D01*
G01X31960Y18129D02*
G01X28653Y21437D01*
G01X31304Y12557D02*
G01X31960Y13215D01*
G01X31960Y18129D01*
G01X42409Y20957D02*
G01X39582Y18129D01*
G01X31960Y18129D01*
G01X42409Y20957D02*
G01X42409Y24756D01*
G01X48389Y30736D01*
G01X3733Y18353D02*
G01X6733Y15353D01*
G01X6733Y13654D01*
G01X11505Y57494D02*
G01X11505Y60776D01*
G01X12028Y61297D01*
G01X11505Y41990D02*
G01X11505Y57494D01*
G01X11505Y57494D02*
G01X9057Y57494D01*
G01X8691Y57131D01*
G01X8691Y45361D01*
G01X3824Y40492D01*
G01X3824Y32780D01*
G01X2669Y31625D01*
G01X57152Y22783D02*
G01X56689Y22783D01*
G01X49521Y29948D01*
G01X49521Y31109D01*
G01X48825Y31807D01*
G01X43400Y31807D01*
G01X39206Y36001D01*
G01X19986Y38251D02*
G01X24360Y42625D01*
G01X24360Y54782D01*
G01X28394Y58813D01*
G01X29184Y58813D01*
G01X34284Y53715D01*
G01X34284Y52905D01*
G01X34299Y50017D02*
G01X29699Y45417D01*
G01X29699Y43088D01*
G01X21800Y35186D01*
G01X21800Y31053D01*
G01X34792Y49227D02*
G01X34792Y47720D01*
G01X23260Y36191D01*
G01X23260Y29862D01*
G01X28767Y58259D02*
G01X27215Y56704D01*
G01X27215Y42211D01*
G01X27621Y41805D01*
G01X41294Y32407D02*
G01X37931Y32407D01*
G01X30568Y25043D01*
G01X35099Y43436D02*
G01X39565Y38973D01*
G01X35099Y43436D02*
G01X36237Y44573D01*
G01X36237Y50139D01*
G01X33034Y41370D02*
G01X35099Y43436D01*
G01X25318Y25046D02*
G01X28917Y28645D01*
G01X28917Y35528D01*
G01X27723Y36722D01*
G01X27761Y42727D02*
G01X27761Y44330D01*
G01X28818Y45384D01*
G01X28025Y23385D02*
G01X29402Y24761D01*
G01X29402Y36052D01*
G01X28711Y36740D01*
G01X24487Y23270D02*
G01X27911Y23270D01*
G01X28025Y23385D01*
G01X28025Y23385D02*
G01X28475Y22935D01*
G01X39123Y41805D02*
G01X46788Y34139D01*
G01X48531Y34139D01*
G01X24347Y16743D02*
G01X27657Y16743D01*
G01X29227Y15173D01*
G01X27771Y17401D02*
G01X27771Y22028D01*
G01X27911Y22171D01*
G01X5209Y34165D02*
G01X10090Y29283D01*
G01X27911Y29283D01*
G01X28371Y29742D01*
G01X2669Y36705D02*
G01X2669Y35663D01*
G01X2669Y35663D02*
G01X1619Y34612D01*
G01X1619Y31104D01*
G01X3171Y29552D01*
G01X3926Y29552D01*
G01X27174Y37756D02*
G01X42714Y37756D01*
G01X48018Y32453D01*
G01X49092Y32453D01*
G01X52079Y29466D01*
G01X55305Y29466D01*
G01X58046Y26725D01*
G01X64083Y26725D01*
G01X69852Y20957D01*
G01X34810Y20957D02*
G01X34810Y27596D01*
G01X24317Y36331D02*
G01X26524Y36331D01*
G01X27482Y37289D01*
G01X40619Y37289D01*
G01X45775Y32130D01*
G01X48960Y32130D01*
G01X49897Y31190D01*
G01X49897Y30243D01*
G01X53738Y26402D01*
G01X61866Y26402D01*
G01X69852Y18417D01*
G36*
G01X68635Y31363D02*
G01X69635Y31363D01*
G01X69635Y30363D01*
G01X68635Y30363D01*
G01X68635Y31363D01*
G37*
G54D35*
G01X67834Y30863D03*
G01X66535Y30863D03*
G01X65235Y30863D03*
G54D36*
G01X42526Y6986D03*
G01X40027Y4486D03*
G01X40027Y9486D03*
G54D37*
G01X34810Y20957D03*
G01X42409Y20957D03*
G54D36*
G01X57152Y22783D03*
G01X57152Y19383D03*
G36*
G01X21261Y64152D02*
G01X22562Y64152D01*
G01X22562Y62851D01*
G01X21261Y62851D01*
G01X21261Y64152D01*
G37*
G54D39*
G01X23811Y63502D03*
G54D40*
G01X69852Y23497D03*
G54D41*
G01X69852Y20957D03*
G01X69852Y18417D03*
G01X69852Y15877D03*
G54D42*
G01X48389Y28196D03*
G54D43*
G01X48389Y30736D03*
G54D44*
G01X53469Y28196D03*
G01X53469Y30736D03*
G54D42*
G01X58676Y28196D03*
G54D43*
G01X58676Y30736D03*
G01X5209Y31625D03*
G01X2669Y31625D03*
G01X5209Y34165D03*
G01X2669Y34165D03*
G01X5209Y36705D03*
G36*
G01X1869Y37505D02*
G01X3469Y37505D01*
G01X3469Y35905D01*
G01X1869Y35905D01*
G01X1869Y37505D01*
G37*
G54D16*
G01X10631Y46458D03*
G01X9290Y56910D03*
G01X10725Y25798D03*
G01X50352Y5968D03*
G01X22864Y51058D03*
G01X39514Y46882D03*
G01X45028Y38307D03*
G01X28653Y21437D03*
G01X18566Y45066D03*
G01X31304Y12557D03*
G01X12028Y61297D03*
G01X11505Y41990D03*
G01X39206Y36001D03*
G01X34284Y52905D03*
G01X19986Y38251D03*
G01X34299Y50017D03*
G01X21800Y31053D03*
G01X34792Y49227D03*
G01X23260Y29862D03*
G01X27621Y41805D03*
G01X28767Y58259D03*
G01X30568Y25043D03*
G01X41294Y32407D03*
G01X39565Y38973D03*
G01X33034Y41370D03*
G01X36237Y50139D03*
G01X25318Y25046D03*
G01X27723Y36722D03*
G01X28818Y45384D03*
G01X27761Y42727D03*
G01X28711Y36740D03*
G01X24487Y23270D03*
G01X28475Y22935D03*
G01X39123Y41805D03*
G01X48531Y34139D03*
G01X29227Y15173D03*
G01X24347Y16743D03*
G01X27911Y22171D03*
G01X27771Y17401D03*
G01X28371Y29742D03*
G01X3926Y29552D03*
G01X27174Y37756D03*
G01X34810Y27596D03*
G01X24317Y36331D03*
G54D41*
G01X9732Y19554D02*
G01X9732Y17154D01*
G01X3733Y17154D02*
G01X3733Y19554D01*
G01X7933Y13653D02*
G01X5533Y13653D01*
M00*
M02*
