;Layer: Drill PTH
;EasyEDA v6.4.7, 2020-10-11T20:05:18--4:00
;e6b0d2e49f2c434995fed72e9f85cac0,1eb4b4baf0c945e885b29d49d8d6ac6e,10
;Gerber Generator version 0.2
M48
METRIC,LZ,000.000
;Holesize 1 = 0.310 METRIC
T01C0.310
;Holesize 2 = 0.701 METRIC
T02C0.701
;Holesize 3 = 0.762 METRIC
T03C0.762
;Holesize 4 = 0.900 METRIC
T04C0.900
;Holesize 5 = 0.901 METRIC
T05C0.901
;Holesize 6 = 1.000 METRIC
T06C1.000
;Holesize 7 = 1.200 METRIC
T07C1.200
%
G05
G90
T01
X+010631Y+046458
X+009290Y+056910
X+010725Y+025798
X+050352Y+005968
X+022864Y+051058
X+039514Y+046882
X+045028Y+038307
X+028653Y+021437
X+018566Y+045066
X+031304Y+012557
X+012028Y+061297
X+011505Y+041990
X+039206Y+036001
X+034284Y+052905
X+019986Y+038251
X+034299Y+050017
X+021800Y+031053
X+034792Y+049227
X+023260Y+029862
X+027621Y+041805
X+028767Y+058259
X+030568Y+025043
X+041294Y+032407
X+039565Y+038973
X+033034Y+041370
X+036237Y+050139
X+025318Y+025046
X+027723Y+036722
X+028818Y+045384
X+027761Y+042727
X+028711Y+036740
X+024487Y+023270
X+028475Y+022935
X+039123Y+041805
X+048531Y+034139
X+029227Y+015173
X+024347Y+016743
X+027911Y+022171
X+027771Y+017401
X+028371Y+029742
X+003926Y+029552
X+027174Y+037756
X+034810Y+027596
X+024317Y+036331
T02
X+069134Y+030863
X+067834Y+030863
X+066535Y+030863
X+065235Y+030863
X+021912Y+063502
X+023811Y+063502
T03
X+057152Y+022783
X+057152Y+019383
T04
X+034810Y+020957
X+042409Y+020957
T05
X+042527Y+006986
X+040026Y+004486
X+040026Y+009486
X+053469Y+028196
X+053469Y+030736
T06
X+048389Y+028196
X+048389Y+030736
X+058676Y+028196
X+058676Y+030736
X+005209Y+031625
X+002669Y+031625
X+005209Y+034165
X+002669Y+034165
X+005209Y+036705
X+002669Y+036705
T07
X+009732Y+017104G85X+009732Y+019604
X+003733Y+019604G85X+003733Y+017104
X+005482Y+013653G85X+007983Y+013653
X+069852Y+023497
X+069852Y+020957
X+069852Y+018417
X+069852Y+015877
M30
